<svg width="25" height="24" viewBox="0 0 25 24" fill="none" xmlns="http://www.w3.org/2000/svg">
<g clip-path="url(#clip0_3799_5755)">
<circle cx="12.5" cy="12" r="12" fill="#D9E7FF"/>
<g clip-path="url(#clip1_3799_5755)">
<path d="M7.625 7.5C7.00391 7.5 6.5 8.00391 6.5 8.625C6.5 8.97891 6.66641 9.31172 6.95 9.525L12.05 13.35C12.3172 13.5492 12.6828 13.5492 12.95 13.35L18.05 9.525C18.3336 9.31172 18.5 8.97891 18.5 8.625C18.5 8.00391 17.9961 7.5 17.375 7.5H7.625ZM6.5 10.125V15C6.5 15.8273 7.17266 16.5 8 16.5H17C17.8273 16.5 18.5 15.8273 18.5 15V10.125L13.4 13.95C12.8656 14.3508 12.1344 14.3508 11.6 13.95L6.5 10.125Z" fill="#3665FF"/>
</g>
</g>
<defs>
<clipPath id="clip0_3799_5755">
<rect width="24" height="24" fill="white" transform="translate(0.5)"/>
</clipPath>
<clipPath id="clip1_3799_5755">
<rect width="12" height="12" fill="white" transform="translate(6.5 6)"/>
</clipPath>
</defs>
</svg>
