<svg width="24" height="25" viewBox="0 0 24 25" fill="none" xmlns="http://www.w3.org/2000/svg">
<g clip-path="url(#clip0_3802_5763)">
<circle cx="12" cy="12.5" r="12" fill="#D9F7BE"/>
<g clip-path="url(#clip1_3802_5763)">
<path d="M12 17C15.3141 17 18 14.818 18 12.125C18 9.43203 15.3141 7.25 12 7.25C8.68593 7.25 6 9.43203 6 12.125C6 13.182 6.41484 14.1594 7.11797 14.9586C7.07343 15.5328 6.85078 16.0437 6.6164 16.4328C6.4875 16.6484 6.35625 16.8219 6.26015 16.9391C6.21093 16.9977 6.17343 17.0422 6.14531 17.0727C6.13125 17.0867 6.12187 17.0984 6.11484 17.1055L6.10781 17.1125C6 17.2203 5.96953 17.3797 6.02812 17.5203C6.08672 17.6609 6.22265 17.7523 6.375 17.7523C7.04765 17.7523 7.725 17.5437 8.2875 17.3C8.82422 17.0656 9.28125 16.7867 9.56015 16.5828C10.3055 16.8523 11.1305 17.0023 12 17.0023V17ZM10.7555 10.6438C10.9078 10.5922 11.0766 10.6461 11.175 10.775L12 11.8742L12.825 10.775C12.9211 10.6461 13.0898 10.5922 13.2445 10.6438C13.3992 10.6953 13.5 10.8383 13.5 11V13.25C13.5 13.4563 13.3312 13.625 13.125 13.625C12.9187 13.625 12.75 13.4563 12.75 13.25V12.125L12.3 12.725C12.2297 12.8188 12.1172 12.875 12 12.875C11.8828 12.875 11.7703 12.8188 11.7 12.725L11.25 12.125V13.25C11.25 13.4563 11.0812 13.625 10.875 13.625C10.6687 13.625 10.5 13.4563 10.5 13.25V11C10.5 10.8383 10.6031 10.6953 10.7555 10.6438ZM14.8125 11.5344C14.8125 11.5391 14.8125 11.5437 14.8125 11.5437C14.8148 11.5461 14.8266 11.5625 14.8641 11.5836C14.9555 11.6375 15.0891 11.6797 15.293 11.743L15.307 11.7477C15.4805 11.7992 15.7125 11.8695 15.8977 11.9867C16.1109 12.1203 16.3055 12.343 16.3102 12.6875C16.3148 13.0391 16.132 13.2969 15.893 13.4445C15.6703 13.5828 15.4031 13.6297 15.1734 13.6227C14.8875 13.6133 14.618 13.5195 14.4094 13.4492C14.3766 13.4375 14.3461 13.4281 14.3156 13.4164C14.1187 13.3508 14.0133 13.1375 14.0789 12.943C14.1445 12.7484 14.3578 12.6406 14.5523 12.7062C14.5922 12.7203 14.6297 12.732 14.6672 12.7437C14.8805 12.8164 15.0328 12.868 15.1969 12.8727C15.3211 12.8773 15.4312 12.8492 15.4969 12.807C15.525 12.7883 15.5391 12.7719 15.5461 12.7602C15.5508 12.7508 15.5602 12.732 15.5602 12.6969V12.6922C15.5602 12.6758 15.5602 12.6594 15.4969 12.6195C15.4078 12.5633 15.2719 12.5187 15.075 12.4578L15.0469 12.4484C14.8781 12.3969 14.6555 12.3312 14.4773 12.2234C14.2664 12.0969 14.0625 11.8789 14.0625 11.5344C14.0602 11.1781 14.2641 10.932 14.4961 10.7937C14.7164 10.6648 14.9766 10.618 15.1922 10.6203C15.4266 10.625 15.6539 10.6742 15.8461 10.7234C16.0453 10.7773 16.1648 10.9813 16.1109 11.1828C16.057 11.3844 15.8531 11.5016 15.6516 11.4477C15.4805 11.4031 15.3211 11.3703 15.1805 11.368C15.0656 11.3656 14.9508 11.3938 14.8781 11.4359C14.8453 11.4547 14.8289 11.4734 14.8219 11.4828C14.8172 11.4898 14.8125 11.5016 14.8125 11.5273V11.5344ZM8.4375 11.5344C8.4375 11.5391 8.4375 11.5437 8.4375 11.5437C8.43984 11.5461 8.45156 11.5625 8.48906 11.5836C8.58047 11.6375 8.71406 11.6797 8.91797 11.743L8.93203 11.7477C9.10547 11.7992 9.3375 11.8695 9.52265 11.9867C9.73593 12.1203 9.93047 12.343 9.93515 12.6875C9.93984 13.0391 9.75703 13.2969 9.51797 13.4445C9.29531 13.5828 9.02812 13.6297 8.79843 13.6227C8.51015 13.6133 8.23125 13.5172 8.02031 13.4445C7.98984 13.4352 7.96172 13.4258 7.93593 13.4164C7.73906 13.3508 7.63359 13.1375 7.69922 12.943C7.76484 12.7484 7.97812 12.6406 8.17265 12.7062C8.20547 12.718 8.23593 12.7273 8.2664 12.7391C8.48906 12.8141 8.65312 12.8703 8.82187 12.875C8.94609 12.8797 9.05625 12.8516 9.12187 12.8094C9.15 12.7906 9.16406 12.7742 9.17109 12.7625C9.17578 12.7531 9.18515 12.7344 9.18515 12.6992V12.6945C9.18515 12.6781 9.18515 12.6617 9.12187 12.6219C9.03281 12.5656 8.89687 12.5211 8.7 12.4602L8.67187 12.4508C8.50312 12.3992 8.28047 12.3336 8.10234 12.2258C7.89375 12.1016 7.68984 11.8836 7.6875 11.5391C7.68515 11.1828 7.88906 10.9367 8.12109 10.7984C8.3414 10.6695 8.60156 10.6227 8.81718 10.625C9.03984 10.6273 9.3375 10.6742 9.54609 10.7281C9.74531 10.782 9.86484 10.9859 9.81093 11.1875C9.75703 11.3891 9.55312 11.5062 9.35156 11.4523C9.19687 11.4102 8.95781 11.375 8.80547 11.3727C8.69062 11.3703 8.57578 11.3984 8.50312 11.4406C8.47031 11.4594 8.4539 11.4781 8.44687 11.4875C8.44218 11.4945 8.4375 11.5062 8.4375 11.532V11.5344Z" fill="#52C41A"/>
</g>
</g>
<defs>
<clipPath id="clip0_3802_5763">
<rect width="24" height="24" fill="white" transform="translate(0 0.5)"/>
</clipPath>
<clipPath id="clip1_3802_5763">
<rect width="12" height="12" fill="white" transform="translate(6 6.5)"/>
</clipPath>
</defs>
</svg>
