<svg width="24" height="24" viewBox="0 0 24 24" fill="none" xmlns="http://www.w3.org/2000/svg">
<g clip-path="url(#clip0_3802_5767)">
<circle cx="12" cy="12" r="12" fill="#D9F7BE"/>
<path d="M14.3625 10.0736C14.5181 10.0736 14.6687 10.0809 14.8194 10.1003C14.416 8.19478 12.3719 6.77777 10.0483 6.77777C7.44271 6.77777 5.31597 8.54722 5.31597 10.7979C5.31597 12.0958 6.02812 13.1677 7.20937 13.9965L6.74028 15.4208L8.39305 14.592C8.98611 14.7087 9.45764 14.8278 10.0507 14.8278C10.2014 14.8278 10.3448 14.8205 10.4955 14.8083C10.3983 14.4948 10.3448 14.1618 10.3448 13.8167C10.3424 11.7531 12.1167 10.0736 14.3625 10.0736ZM11.8226 8.78784C12.175 8.78784 12.4108 9.0236 12.4108 9.3809C12.4108 9.73333 12.175 9.96909 11.8226 9.96909C11.4628 9.96909 11.1104 9.73333 11.1104 9.3809C11.1128 9.0236 11.4653 8.78784 11.8226 8.78784ZM8.50729 9.96909C8.15486 9.96909 7.79514 9.73333 7.79514 9.3809C7.79514 9.02117 8.15486 8.78784 8.50729 8.78784C8.86701 8.78784 9.10035 9.0236 9.10035 9.3809C9.10035 9.73576 8.86701 9.96909 8.50729 9.96909ZM18.684 13.7632C18.684 11.8698 16.7906 10.3288 14.6639 10.3288C12.4108 10.3288 10.6437 11.8698 10.6437 13.7632C10.6437 15.6566 12.4132 17.1976 14.6639 17.1976C15.133 17.1976 15.6094 17.0736 16.0882 16.9569L17.3861 17.6691L17.0264 16.4878C17.9792 15.7733 18.684 14.8278 18.684 13.7632ZM13.3587 13.1677C13.1229 13.1677 12.8896 12.9319 12.8896 12.6913C12.8896 12.4555 13.1253 12.2222 13.3587 12.2222C13.7184 12.2222 13.9517 12.458 13.9517 12.6913C13.9517 12.9344 13.716 13.1677 13.3587 13.1677ZM15.9618 13.1677C15.726 13.1677 15.4927 12.9319 15.4927 12.6913C15.4927 12.4555 15.7285 12.2222 15.9618 12.2222C16.3142 12.2222 16.5549 12.458 16.5549 12.6913C16.5573 12.9344 16.3142 13.1677 15.9618 13.1677Z" fill="#52C41A"/>
</g>
<defs>
<clipPath id="clip0_3802_5767">
<rect width="24" height="24" fill="white"/>
</clipPath>
</defs>
</svg>
