<svg width="24" height="24" viewBox="0 0 24 24" fill="none" xmlns="http://www.w3.org/2000/svg">
<g clip-path="url(#clip0_3802_5759)">
<circle cx="12" cy="12" r="12" fill="#D9F7BE"/>
<g clip-path="url(#clip1_3802_5759)">
<path d="M9.86484 6.57656C9.68437 6.14062 9.20859 5.90859 8.75391 6.03281L6.69141 6.59531C6.28359 6.70781 6 7.07812 6 7.49999C6 13.2984 10.7016 18 16.5 18C16.9219 18 17.2922 17.7164 17.4047 17.3086L17.9672 15.2461C18.0914 14.7914 17.8594 14.3156 17.4234 14.1352L15.1734 13.1977C14.7914 13.0383 14.3484 13.1484 14.0883 13.4695L13.1414 14.625C11.4914 13.8445 10.1555 12.5086 9.375 10.8586L10.5305 9.91406C10.8516 9.65156 10.9617 9.21093 10.8023 8.8289L9.86484 6.5789V6.57656Z" fill="#52C41A"/>
</g>
</g>
<defs>
<clipPath id="clip0_3802_5759">
<rect width="24" height="24" fill="white"/>
</clipPath>
<clipPath id="clip1_3802_5759">
<rect width="12" height="12" fill="white" transform="translate(6 6)"/>
</clipPath>
</defs>
</svg>
