<svg width="20" height="20" viewBox="0 0 20 20" fill="none" xmlns="http://www.w3.org/2000/svg">
<path fill-rule="evenodd" clip-rule="evenodd" d="M1.13542 17.8173C0.991666 18.3355 1.4325 18.7185 1.92125 18.565L3.85708 17.9901C4.38417 17.8173 4.79625 18.0371 5.285 18.3355C6.68417 19.16 8.42833 19.5833 10 19.5833C14.7533 19.5833 19.5833 15.9073 19.5833 9.98558C19.5833 4.87861 15.4625 0.416626 10.0192 0.416626C4.45125 0.416626 0.416666 4.96499 0.416666 10.0143C0.416666 11.6267 0.886249 13.2862 1.71042 14.8026C1.86375 15.0532 1.88292 15.3689 1.7775 15.6674L1.13542 17.8173ZM6.08323 16.9515C5.61814 16.6667 4.63704 16.066 3.38495 16.4641L3.18913 16.5223L3.29909 16.1541C3.51794 15.4983 3.50609 14.71 3.09967 14.0139C2.3922 12.7031 2.01389 11.3135 2.01389 10.0143C2.01389 5.79144 5.38803 2.01385 10.0192 2.01385C14.543 2.01385 17.9861 5.7229 17.9861 9.98558C17.9861 14.9039 13.9976 17.9861 10 17.9861C8.68797 17.9861 7.23396 17.627 6.10622 16.9655L6.08323 16.9515ZM8.02767 11.8353C7.79377 11.6014 7.41453 11.6014 7.18062 11.8353C6.94671 12.0692 6.94671 12.4484 7.18062 12.6823C8.66203 14.1638 11.0639 14.1638 12.5453 12.6823C12.7792 12.4484 12.7792 12.0692 12.5453 11.8353C12.3114 11.6014 11.9322 11.6014 11.6982 11.8353C10.6846 12.8489 9.04127 12.8489 8.02767 11.8353Z" fill="#A9B0C0"/>
</svg>
