<svg width="24" height="24" viewBox="0 0 24 24" fill="none" xmlns="http://www.w3.org/2000/svg">
<g clip-path="url(#clip0_3710_5851)">
<path d="M11.504 2.03955C11.703 1.62231 12.297 1.62231 12.496 2.03955L15.3542 8.02917C15.4343 8.19709 15.5939 8.31307 15.7784 8.33739L22.358 9.20471C22.8164 9.26513 22.9999 9.82996 22.6646 10.1482L17.8514 14.7174C17.7164 14.8455 17.6554 15.0331 17.6893 15.2161L18.8977 21.7417C18.9818 22.1963 18.5014 22.5454 18.0951 22.3249L12.2622 19.1591C12.0987 19.0704 11.9013 19.0704 11.7378 19.1591L5.90495 22.3249C5.49864 22.5454 5.01816 22.1963 5.10233 21.7417L6.31069 15.2161C6.34456 15.0331 6.28359 14.8455 6.14865 14.7174L1.33538 10.1482C1.00009 9.82997 1.18362 9.26513 1.64196 9.20471L8.22163 8.33739C8.40609 8.31307 8.56572 8.19709 8.64585 8.02917L11.504 2.03955Z" stroke="#798195" stroke-width="2" stroke-linecap="round" stroke-linejoin="round"/>
</g>
<defs>
<clipPath id="clip0_3710_5851">
<rect width="24" height="24" fill="white"/>
</clipPath>
</defs>
</svg>
