<svg width="113" height="92" viewBox="0 0 113 92" fill="none" xmlns="http://www.w3.org/2000/svg">
<path fill-rule="evenodd" clip-rule="evenodd" d="M96.857 11.0105C108.951 13.946 110.929 30.4791 119.088 39.8841C127.698 49.8097 144.172 54.4507 145.853 67.4917C147.531 80.5045 134.509 90.1936 126.956 100.923C119.749 111.162 114.981 125.37 102.879 128.542C90.8554 131.694 79.5629 122.184 68.6717 116.199C60.2887 111.593 54.7146 104.16 47.3631 98.0384C37.491 89.8176 22.8978 86.2186 18.268 74.2266C13.1525 60.9769 12.3904 43.1149 22.1871 32.8284C32.107 22.4126 49.9664 30.4878 63.7639 26.4563C75.7396 22.9571 84.7368 8.06874 96.857 11.0105Z" fill="#F8FDFF"/>
<g opacity="0.8">
<path d="M33.7371 22.6412C33.7371 18.8562 36.8054 15.7878 40.5904 15.7878H58.7008C62.2166 15.7878 65.0667 18.638 65.0667 22.1538C65.0667 25.6696 62.2166 28.5197 58.7008 28.5197H33.7371V22.6412Z" fill="url(#paint0_linear_1252_4640)"/>
<g filter="url(#filter0_d_1252_4640)">
<path fill-rule="evenodd" clip-rule="evenodd" d="M41.2766 15.7878L69.7075 15.7878C75.751 15.7878 80.6503 20.6871 80.6503 26.7306V72.2415H60.0262C53.9827 72.2415 49.0835 67.3422 49.0835 61.2987V23.6984C49.0835 19.3699 45.6048 15.845 41.2766 15.7878V15.7878Z" fill="url(#paint1_linear_1252_4640)"/>
</g>
<rect x="55.6714" y="26.3203" width="18.205" height="2.52776" rx="1.26388" fill="url(#paint2_linear_1252_4640)"/>
<rect x="55.6714" y="35.1676" width="18.205" height="2.52778" rx="1.26389" fill="url(#paint3_linear_1252_4640)"/>
<rect x="55.6714" y="44.8571" width="18.205" height="2.52779" rx="1.26389" fill="url(#paint4_linear_1252_4640)"/>
<rect x="55.6714" y="40.2231" width="14.3947" height="2.52776" rx="1.26388" fill="url(#paint5_linear_1252_4640)"/>
<path fill-rule="evenodd" clip-rule="evenodd" d="M61.7539 59.4152C61.7539 56.7266 63.9349 54.547 66.6235 54.547C76.2382 54.547 84.0373 62.3412 84.0373 71.9559V72.2414H57.3647C60.0626 70.8321 61.7539 68.0404 61.7539 64.9966V59.4152Z" fill="url(#paint6_linear_1252_4640)"/>
<g filter="url(#filter1_d_1252_4640)">
<path fill-rule="evenodd" clip-rule="evenodd" d="M70.4893 54.547L92.5696 54.547C98.6131 54.547 103.512 59.4463 103.512 65.4898V84.8803H78.3195V62.4806C78.3195 58.1392 74.8303 54.604 70.4893 54.547V54.547Z" fill="url(#paint7_linear_1252_4640)"/>
</g>
<path fill-rule="evenodd" clip-rule="evenodd" d="M84.0369 64.6581C84.0369 63.96 84.6027 63.3942 85.3008 63.3942H97.1676C97.8657 63.3942 98.4315 63.96 98.4315 64.6581C98.4315 65.3561 97.8657 65.922 97.1676 65.922H85.3008C84.6027 65.922 84.0369 65.3561 84.0369 64.6581Z" fill="url(#paint8_linear_1252_4640)"/>
<path fill-rule="evenodd" clip-rule="evenodd" d="M84.0369 73.9266C84.0369 73.2286 84.6027 72.6627 85.3008 72.6627H97.1677C97.8657 72.6627 98.4315 73.2286 98.4315 73.9266C98.4315 74.6246 97.8657 75.1905 97.1677 75.1905H85.3008C84.6027 75.1905 84.0369 74.6246 84.0369 73.9266Z" fill="url(#paint9_linear_1252_4640)"/>
<rect x="84.0369" y="68.0284" width="11.0077" height="2.52778" rx="1.26389" fill="url(#paint10_linear_1252_4640)"/>
<g filter="url(#filter2_d_1252_4640)">
<path fill-rule="evenodd" clip-rule="evenodd" d="M98.1417 40.0907C97.8923 38.9337 97.0946 37.9701 96.0031 37.5072C97.097 37.0433 97.9029 36.0858 98.1718 34.9305L98.1831 34.882L98.1944 34.9305C98.4633 36.0858 99.2692 37.0433 100.363 37.5072C99.2716 37.9701 98.4739 38.9337 98.2245 40.0907L98.1831 40.2825L98.1417 40.0907Z" fill="#73D13D"/>
</g>
<g filter="url(#filter3_d_1252_4640)">
<path fill-rule="evenodd" clip-rule="evenodd" d="M24.6268 17.0803C24.3774 15.9234 23.5797 14.9597 22.4882 14.4969C23.5821 14.033 24.388 13.0754 24.6569 11.9201L24.6682 11.8716L24.6795 11.9201C24.9484 13.0754 25.7543 14.033 26.8482 14.4969C25.7567 14.9597 24.959 15.9234 24.7096 17.0803L24.6682 17.2722L24.6268 17.0803Z" fill="#B7B1FF"/>
</g>
<g filter="url(#filter4_d_1252_4640)">
<path fill-rule="evenodd" clip-rule="evenodd" d="M114.271 80.3882C113.897 78.6529 112.7 77.2074 111.063 76.5131C112.704 75.8173 113.913 74.381 114.316 72.648L114.333 72.5752L114.35 72.648C114.753 74.381 115.962 75.8173 117.603 76.5131C115.966 77.2074 114.769 78.6529 114.395 80.3882L114.333 80.6761L114.271 80.3882Z" fill="#5DC5FA"/>
</g>
</g>
<g style="mix-blend-mode:color">
<rect x="32" y="12" width="57" height="68" fill="#52BAFF"/>
</g>
<g style="mix-blend-mode:color">
<rect x="64.021" y="49.1826" width="50.633" height="45.4399" fill="#52BAFF"/>
</g>
<g filter="url(#filter5_d_1252_4640)">
<path fill-rule="evenodd" clip-rule="evenodd" d="M39.9973 77.8131C39.6231 76.0777 38.4266 74.6322 36.7893 73.9379C38.4302 73.2421 39.6391 71.8058 40.0424 70.0729L40.0593 70L40.0763 70.0729C40.4796 71.8058 41.6884 73.2421 43.3293 73.9379C41.6921 74.6322 40.4955 76.0777 40.1214 77.8131L40.0593 78.1009L39.9973 77.8131Z" fill="#FFDF8C"/>
</g>
<defs>
<filter id="filter0_d_1252_4640" x="25.7665" y="10.6178" width="60.0539" height="77.1337" filterUnits="userSpaceOnUse" color-interpolation-filters="sRGB">
<feFlood flood-opacity="0" result="BackgroundImageFix"/>
<feColorMatrix in="SourceAlpha" type="matrix" values="0 0 0 0 0 0 0 0 0 0 0 0 0 0 0 0 0 0 127 0" result="hardAlpha"/>
<feOffset dx="-5.17002" dy="5.17002"/>
<feGaussianBlur stdDeviation="5.17002"/>
<feColorMatrix type="matrix" values="0 0 0 0 0.587922 0 0 0 0 0.824855 0 0 0 0 0.428884 0 0 0 0.2 0"/>
<feBlend mode="normal" in2="BackgroundImageFix" result="effect1_dropShadow_1252_4640"/>
<feBlend mode="normal" in="SourceGraphic" in2="effect1_dropShadow_1252_4640" result="shape"/>
</filter>
<filter id="filter1_d_1252_4640" x="54.9792" y="49.377" width="53.7033" height="51.0133" filterUnits="userSpaceOnUse" color-interpolation-filters="sRGB">
<feFlood flood-opacity="0" result="BackgroundImageFix"/>
<feColorMatrix in="SourceAlpha" type="matrix" values="0 0 0 0 0 0 0 0 0 0 0 0 0 0 0 0 0 0 127 0" result="hardAlpha"/>
<feOffset dx="-5.17002" dy="5.17002"/>
<feGaussianBlur stdDeviation="5.17002"/>
<feColorMatrix type="matrix" values="0 0 0 0 0.584314 0 0 0 0 0.870588 0 0 0 0 0.392157 0 0 0 0.2 0"/>
<feBlend mode="normal" in2="BackgroundImageFix" result="effect1_dropShadow_1252_4640"/>
<feBlend mode="normal" in="SourceGraphic" in2="effect1_dropShadow_1252_4640" result="shape"/>
</filter>
<filter id="filter2_d_1252_4640" x="89.3416" y="28.2204" width="17.6831" height="18.7238" filterUnits="userSpaceOnUse" color-interpolation-filters="sRGB">
<feFlood flood-opacity="0" result="BackgroundImageFix"/>
<feColorMatrix in="SourceAlpha" type="matrix" values="0 0 0 0 0 0 0 0 0 0 0 0 0 0 0 0 0 0 127 0" result="hardAlpha"/>
<feOffset/>
<feGaussianBlur stdDeviation="3.3308"/>
<feColorMatrix type="matrix" values="0 0 0 0 1 0 0 0 0 1 0 0 0 0 1 0 0 0 0.5 0"/>
<feBlend mode="normal" in2="BackgroundImageFix" result="effect1_dropShadow_1252_4640"/>
<feBlend mode="normal" in="SourceGraphic" in2="effect1_dropShadow_1252_4640" result="shape"/>
</filter>
<filter id="filter3_d_1252_4640" x="15.8267" y="5.20998" width="17.6831" height="18.7238" filterUnits="userSpaceOnUse" color-interpolation-filters="sRGB">
<feFlood flood-opacity="0" result="BackgroundImageFix"/>
<feColorMatrix in="SourceAlpha" type="matrix" values="0 0 0 0 0 0 0 0 0 0 0 0 0 0 0 0 0 0 127 0" result="hardAlpha"/>
<feOffset/>
<feGaussianBlur stdDeviation="3.3308"/>
<feColorMatrix type="matrix" values="0 0 0 0 1 0 0 0 0 1 0 0 0 0 1 0 0 0 0.5 0"/>
<feBlend mode="normal" in2="BackgroundImageFix" result="effect1_dropShadow_1252_4640"/>
<feBlend mode="normal" in="SourceGraphic" in2="effect1_dropShadow_1252_4640" result="shape"/>
</filter>
<filter id="filter4_d_1252_4640" x="104.401" y="65.9136" width="19.8632" height="21.424" filterUnits="userSpaceOnUse" color-interpolation-filters="sRGB">
<feFlood flood-opacity="0" result="BackgroundImageFix"/>
<feColorMatrix in="SourceAlpha" type="matrix" values="0 0 0 0 0 0 0 0 0 0 0 0 0 0 0 0 0 0 127 0" result="hardAlpha"/>
<feOffset/>
<feGaussianBlur stdDeviation="3.3308"/>
<feColorMatrix type="matrix" values="0 0 0 0 1 0 0 0 0 1 0 0 0 0 1 0 0 0 0.5 0"/>
<feBlend mode="normal" in2="BackgroundImageFix" result="effect1_dropShadow_1252_4640"/>
<feBlend mode="normal" in="SourceGraphic" in2="effect1_dropShadow_1252_4640" result="shape"/>
</filter>
<filter id="filter5_d_1252_4640" x="30.1277" y="63.3384" width="19.8632" height="21.424" filterUnits="userSpaceOnUse" color-interpolation-filters="sRGB">
<feFlood flood-opacity="0" result="BackgroundImageFix"/>
<feColorMatrix in="SourceAlpha" type="matrix" values="0 0 0 0 0 0 0 0 0 0 0 0 0 0 0 0 0 0 127 0" result="hardAlpha"/>
<feOffset/>
<feGaussianBlur stdDeviation="3.3308"/>
<feColorMatrix type="matrix" values="0 0 0 0 1 0 0 0 0 1 0 0 0 0 1 0 0 0 0.5 0"/>
<feBlend mode="normal" in2="BackgroundImageFix" result="effect1_dropShadow_1252_4640"/>
<feBlend mode="normal" in="SourceGraphic" in2="effect1_dropShadow_1252_4640" result="shape"/>
</filter>
<linearGradient id="paint0_linear_1252_4640" x1="33.7371" y1="28.5197" x2="65.0667" y2="28.5197" gradientUnits="userSpaceOnUse">
<stop stop-color="#D9F7BE"/>
<stop offset="1" stop-color="#B7EB8F"/>
</linearGradient>
<linearGradient id="paint1_linear_1252_4640" x1="44.97" y1="15.7878" x2="44.97" y2="61.6505" gradientUnits="userSpaceOnUse">
<stop stop-color="#F6FFED"/>
<stop offset="1" stop-color="#CFF1B1"/>
</linearGradient>
<linearGradient id="paint2_linear_1252_4640" x1="73.8764" y1="26.3203" x2="55.6714" y2="26.3203" gradientUnits="userSpaceOnUse">
<stop stop-color="#D9F7BE"/>
<stop offset="1" stop-color="#B7EB8F"/>
</linearGradient>
<linearGradient id="paint3_linear_1252_4640" x1="73.8764" y1="35.1676" x2="55.6714" y2="35.1676" gradientUnits="userSpaceOnUse">
<stop stop-color="#D9F7BE"/>
<stop offset="1" stop-color="#B7EB8F"/>
</linearGradient>
<linearGradient id="paint4_linear_1252_4640" x1="73.8764" y1="44.8571" x2="55.6714" y2="44.8571" gradientUnits="userSpaceOnUse">
<stop stop-color="#D9F7BE"/>
<stop offset="1" stop-color="#B7EB8F"/>
</linearGradient>
<linearGradient id="paint5_linear_1252_4640" x1="70.0661" y1="40.2231" x2="55.6714" y2="40.2231" gradientUnits="userSpaceOnUse">
<stop stop-color="#D9F7BE"/>
<stop offset="1" stop-color="#B7EB8F"/>
</linearGradient>
<linearGradient id="paint6_linear_1252_4640" x1="57.3647" y1="72.2414" x2="84.0373" y2="72.2414" gradientUnits="userSpaceOnUse">
<stop stop-color="#D9F7BE"/>
<stop offset="1" stop-color="#B7EB8F"/>
</linearGradient>
<linearGradient id="paint7_linear_1252_4640" x1="73.5869" y1="54.547" x2="73.5869" y2="79.1896" gradientUnits="userSpaceOnUse">
<stop stop-color="#F6FFED"/>
<stop offset="1" stop-color="#D9F7BE"/>
</linearGradient>
<linearGradient id="paint8_linear_1252_4640" x1="98.4315" y1="63.3942" x2="84.0369" y2="63.3942" gradientUnits="userSpaceOnUse">
<stop stop-color="#D9F7BE"/>
<stop offset="1" stop-color="#B7EB8F"/>
</linearGradient>
<linearGradient id="paint9_linear_1252_4640" x1="98.4315" y1="72.6627" x2="84.0369" y2="72.6627" gradientUnits="userSpaceOnUse">
<stop stop-color="#D9F7BE"/>
<stop offset="1" stop-color="#B7EB8F"/>
</linearGradient>
<linearGradient id="paint10_linear_1252_4640" x1="95.0446" y1="68.0284" x2="84.0369" y2="68.0284" gradientUnits="userSpaceOnUse">
<stop stop-color="#D9F7BE"/>
<stop offset="1" stop-color="#B7EB8F"/>
</linearGradient>
</defs>
</svg>
