<svg width="25" height="24" viewBox="0 0 25 24" fill="none" xmlns="http://www.w3.org/2000/svg">
<path fill-rule="evenodd" clip-rule="evenodd" d="M4.34797 3.51471C6.51838 1.34434 9.51987 0 12.8333 0C16.1466 0 19.1481 1.34434 21.3185 3.51471C23.4889 5.68511 24.8333 8.68661 24.8333 12C24.8333 15.3134 23.4889 18.3149 21.3185 20.4853C19.1481 22.6556 16.1466 24 12.8333 24C9.51986 24 6.51837 22.6556 4.34797 20.4853C2.1776 18.3149 0.833252 15.3134 0.833252 12C0.833252 8.68662 2.17761 5.68511 4.34797 3.51471ZM19.0592 9.49866C19.4852 9.07264 19.4852 8.38191 19.0592 7.95588C18.6332 7.52986 17.9424 7.52986 17.5164 7.95588L11.7423 13.7299L9.241 11.2286C8.81498 10.8026 8.12425 10.8026 7.69823 11.2286C7.2722 11.6546 7.2722 12.3454 7.69823 12.7714L10.971 16.0441C11.397 16.4701 12.0877 16.4701 12.5137 16.0441L19.0592 9.49866Z" fill="white"/>
</svg>
