<svg width="32" height="32" viewBox="0 0 32 32" fill="none" xmlns="http://www.w3.org/2000/svg">
<path d="M4 5C4 3.89543 4.89543 3 6 3H10V27H6C4.89543 27 4 26.1046 4 25V5Z" fill="url(#paint0_linear_8205_16512)"/>
<path d="M4 5C4 3.89543 4.89543 3 6 3H10V27H6C4.89543 27 4 26.1046 4 25V5Z" fill="url(#paint1_linear_8205_16512)" fill-opacity="0.4"/>
<path d="M10 3H26C27.1046 3 28 3.89543 28 5V25C28 26.1046 27.1046 27 26 27H10V3Z" fill="url(#paint2_linear_8205_16512)"/>
<mask id="mask0_8205_16512" style="mask-type:alpha" maskUnits="userSpaceOnUse" x="10" y="3" width="18" height="24">
<path d="M10 3H26C27.1046 3 28 3.89543 28 5V25C28 26.1046 27.1046 27 26 27H10V3Z" fill="url(#paint3_linear_8205_16512)"/>
</mask>
<g mask="url(#mask0_8205_16512)">
<path d="M23.0005 15C22.7474 15 22.4974 15.0437 22.2599 15.1281L13.4942 18.2937C13.1974 18.4031 13.0005 18.6844 13.0005 19C13.0005 19.3156 13.1974 19.5969 13.4942 19.7063L15.3036 20.3594C14.7911 21.1656 14.5005 22.1187 14.5005 23.1219V24C14.5005 24.8875 14.163 25.8031 13.8036 26.525C13.6005 26.9312 13.3692 27.3313 13.1005 27.7C13.0005 27.8344 12.9724 28.0094 13.0286 28.1687C13.0849 28.3281 13.2161 28.4469 13.3786 28.4875L15.3786 28.9875C15.5099 29.0219 15.6505 28.9969 15.7661 28.925C15.8817 28.8531 15.963 28.7344 15.988 28.6C16.2567 27.2625 16.1224 26.0625 15.9224 25.2031C15.8224 24.7594 15.688 24.3062 15.5005 23.8906V23.1219C15.5005 22.1781 15.8192 21.2875 16.3724 20.575C16.7755 20.0906 17.2974 19.7 17.9099 19.4594L22.8161 17.5312C23.0724 17.4313 23.363 17.5563 23.463 17.8125C23.563 18.0687 23.438 18.3594 23.1817 18.4594L18.2755 20.3875C17.888 20.5406 17.5474 20.775 17.2692 21.0625L22.2567 22.8625C22.4942 22.9469 22.7442 22.9906 22.9974 22.9906C23.2505 22.9906 23.5005 22.9469 23.738 22.8625L32.5067 19.7063C32.8036 19.6 33.0005 19.3156 33.0005 19C33.0005 18.6844 32.8036 18.4031 32.5067 18.2937L23.7411 15.1281C23.5036 15.0437 23.2536 15 23.0005 15ZM17.0005 26.75C17.0005 27.8531 19.688 29 23.0005 29C26.313 29 29.0005 27.8531 29.0005 26.75L28.5224 22.2063L24.0786 23.8125C23.7317 23.9375 23.3661 24 23.0005 24C22.6349 24 22.2661 23.9375 21.9224 23.8125L17.4786 22.2063L17.0005 26.75Z" fill="url(#paint4_linear_8205_16512)"/>
</g>
<path fill-rule="evenodd" clip-rule="evenodd" d="M19 3H23V9V9.73414C23 9.88097 22.881 10 22.7341 10C22.2641 10 21.8133 9.81327 21.4809 9.48088L21 9L20.5191 9.48088C20.1867 9.81327 19.7359 10 19.2659 10C19.119 10 19 9.88097 19 9.73414V9V3Z" fill="url(#paint5_linear_8205_16512)"/>
<defs>
<linearGradient id="paint0_linear_8205_16512" x1="3" y1="15" x2="11" y2="15" gradientUnits="userSpaceOnUse">
<stop stop-color="#FFFCF5"/>
<stop offset="1" stop-color="#FFF5D8"/>
</linearGradient>
<linearGradient id="paint1_linear_8205_16512" x1="10" y1="13" x2="5.5" y2="5" gradientUnits="userSpaceOnUse">
<stop stop-color="#FED74C"/>
<stop offset="1" stop-color="#FBCB30"/>
</linearGradient>
<linearGradient id="paint2_linear_8205_16512" x1="19" y1="3" x2="19" y2="27" gradientUnits="userSpaceOnUse">
<stop stop-color="#FED84D"/>
<stop offset="1" stop-color="#F9C21E"/>
</linearGradient>
<linearGradient id="paint3_linear_8205_16512" x1="19" y1="3" x2="19" y2="27" gradientUnits="userSpaceOnUse">
<stop stop-color="#FED84D"/>
<stop offset="1" stop-color="#F9C21E"/>
</linearGradient>
<linearGradient id="paint4_linear_8205_16512" x1="17.5005" y1="17.5" x2="27.5005" y2="29" gradientUnits="userSpaceOnUse">
<stop stop-color="white" stop-opacity="0.4"/>
<stop offset="1" stop-color="white" stop-opacity="0"/>
</linearGradient>
<linearGradient id="paint5_linear_8205_16512" x1="21" y1="3" x2="21" y2="10" gradientUnits="userSpaceOnUse">
<stop stop-color="#F77A1C"/>
<stop offset="1" stop-color="#F77A1C"/>
</linearGradient>
</defs>
</svg>
