<svg width="32" height="32" viewBox="0 0 32 32" fill="none" xmlns="http://www.w3.org/2000/svg">
<path d="M5 12H27L25.438 24.4961C25.1878 26.4979 23.4862 28 21.4689 28H10.5311C8.51384 28 6.81223 26.4979 6.56202 24.4961L5 12Z" fill="white"/>
<path d="M5 12H27L25.438 24.4961C25.1878 26.4979 23.4862 28 21.4689 28H10.5311C8.51384 28 6.81223 26.4979 6.56202 24.4961L5 12Z" fill="url(#paint0_linear_8567_16912)" fill-opacity="0.4"/>
<path d="M16 25C18.7617 25 21 22.7617 21 20C21 17.2383 18.7617 15 16 15C13.2383 15 11 17.2383 11 20C11 22.7617 13.2383 25 16 25ZM14.418 18.418C14.6016 18.2344 14.8984 18.2344 15.0801 18.418L15.998 19.3359L16.916 18.418C17.0996 18.2344 17.3965 18.2344 17.5781 18.418C17.7598 18.6016 17.7617 18.8984 17.5781 19.0801L16.6602 19.998L17.5781 20.916C17.7617 21.0996 17.7617 21.3965 17.5781 21.5781C17.3945 21.7598 17.0977 21.7617 16.916 21.5781L15.998 20.6602L15.0801 21.5781C14.8965 21.7617 14.5996 21.7617 14.418 21.5781C14.2363 21.3945 14.2344 21.0977 14.418 20.916L15.3359 19.998L14.418 19.0801C14.2344 18.8965 14.2344 18.5996 14.418 18.418Z" fill="url(#paint1_linear_8567_16912)"/>
<path d="M5.77208 4.68377C5.90819 4.27543 6.29033 4 6.72076 4H25.2792C25.7097 4 26.0918 4.27543 26.2279 4.68377L27 7H5L5.77208 4.68377Z" fill="url(#paint2_linear_8567_16912)"/>
<mask id="mask0_8567_16912" style="mask-type:alpha" maskUnits="userSpaceOnUse" x="5" y="4" width="22" height="3">
<path d="M5.77208 4.68377C5.90819 4.27543 6.29033 4 6.72076 4H25.2792C25.7097 4 26.0918 4.27543 26.2279 4.68377L27 7H5L5.77208 4.68377Z" fill="url(#paint3_linear_8567_16912)"/>
</mask>
<g mask="url(#mask0_8567_16912)">
<g opacity="0.6">
<rect x="10" y="2" width="2" height="4" rx="1" fill="url(#paint4_linear_8567_16912)"/>
<rect x="15" y="2" width="2" height="4" rx="1" fill="url(#paint5_linear_8567_16912)"/>
<rect x="20" y="2" width="2" height="4" rx="1" fill="url(#paint6_linear_8567_16912)"/>
</g>
</g>
<rect x="2" y="7" width="28" height="5" rx="1" fill="url(#paint7_linear_8567_16912)"/>
<defs>
<linearGradient id="paint0_linear_8567_16912" x1="7.29167" y1="12" x2="17.0737" y2="30.9886" gradientUnits="userSpaceOnUse">
<stop stop-color="#FFE67C"/>
<stop offset="1" stop-color="#FFCE3E"/>
</linearGradient>
<linearGradient id="paint1_linear_8567_16912" x1="16" y1="15" x2="16" y2="25" gradientUnits="userSpaceOnUse">
<stop stop-color="#FDD354"/>
<stop offset="1" stop-color="#FDA924"/>
</linearGradient>
<linearGradient id="paint2_linear_8567_16912" x1="15.5" y1="3.5" x2="15.2055" y2="7.40231" gradientUnits="userSpaceOnUse">
<stop stop-color="#FDD254"/>
<stop offset="1" stop-color="#FDAC27"/>
</linearGradient>
<linearGradient id="paint3_linear_8567_16912" x1="15.5" y1="3.5" x2="15.2055" y2="7.40231" gradientUnits="userSpaceOnUse">
<stop stop-color="#FDD254"/>
<stop offset="1" stop-color="#FDAC27"/>
</linearGradient>
<linearGradient id="paint4_linear_8567_16912" x1="11" y1="2" x2="11" y2="6" gradientUnits="userSpaceOnUse">
<stop stop-color="#FFFBF7"/>
<stop offset="1" stop-color="#FFDDB2"/>
</linearGradient>
<linearGradient id="paint5_linear_8567_16912" x1="16" y1="2" x2="16" y2="6" gradientUnits="userSpaceOnUse">
<stop stop-color="#FFFBF7"/>
<stop offset="1" stop-color="#FFDDB2"/>
</linearGradient>
<linearGradient id="paint6_linear_8567_16912" x1="21" y1="2" x2="21" y2="6" gradientUnits="userSpaceOnUse">
<stop stop-color="#FFFBF7"/>
<stop offset="1" stop-color="#FFDDB2"/>
</linearGradient>
<linearGradient id="paint7_linear_8567_16912" x1="3.75" y1="7" x2="26.4674" y2="18.0945" gradientUnits="userSpaceOnUse">
<stop stop-color="#FDD254"/>
<stop offset="1" stop-color="#FDAC27"/>
</linearGradient>
</defs>
</svg>
