<svg width="33" height="32" viewBox="0 0 33 32" fill="none" xmlns="http://www.w3.org/2000/svg">
<path d="M4.5 8C4.5 5.79086 6.29086 4 8.5 4H15.5C22.6797 4 28.5 9.8203 28.5 17V24C28.5 26.2091 26.7091 28 24.5 28H8.5C6.29086 28 4.5 26.2091 4.5 24V8Z" fill="white"/>
<path d="M4.5 8C4.5 5.79086 6.29086 4 8.5 4H15.5C22.6797 4 28.5 9.8203 28.5 17V24C28.5 26.2091 26.7091 28 24.5 28H8.5C6.29086 28 4.5 26.2091 4.5 24V8Z" fill="url(#paint0_linear_8561_16855)" fill-opacity="0.4"/>
<rect x="8.5" y="21" width="14" height="2" rx="1" fill="url(#paint1_linear_8561_16855)" fill-opacity="0.2"/>
<rect x="8.5" y="17" width="11" height="2" rx="1" fill="url(#paint2_linear_8561_16855)" fill-opacity="0.2"/>
<rect x="8.5" y="13" width="11" height="2" rx="1" fill="url(#paint3_linear_8561_16855)" fill-opacity="0.2"/>
<path d="M23.5563 4.47487C24.9232 3.10804 27.1393 3.10804 28.5061 4.47487C29.8729 5.84171 29.8729 8.05779 28.5061 9.42462L21.0815 16.8492L16.1317 11.8995L23.5563 4.47487Z" fill="url(#paint4_radial_8561_16855)"/>
<rect x="18.253" y="9.7782" width="7" height="2" transform="rotate(45 18.253 9.7782)" fill="url(#paint5_linear_8561_16855)"/>
<g filter="url(#filter0_i_8561_16855)">
<path d="M16.8388 19.6777L20.0208 15.7886L17.1924 12.9602L13.3033 16.1422C12.8319 17.7921 11.5355 21.4455 10.4749 22.5061C11.5355 21.4455 15.1889 20.1491 16.8388 19.6777Z" fill="url(#paint6_linear_8561_16855)"/>
</g>
<path d="M15.4246 17.5563L14.0104 18.9705" stroke="#F77A1C" stroke-width="0.5" stroke-linecap="round" stroke-linejoin="round"/>
<defs>
<filter id="filter0_i_8561_16855" x="10.4749" y="12.9602" width="10.5459" height="11.5459" filterUnits="userSpaceOnUse" color-interpolation-filters="sRGB">
<feFlood flood-opacity="0" result="BackgroundImageFix"/>
<feBlend mode="normal" in="SourceGraphic" in2="BackgroundImageFix" result="shape"/>
<feColorMatrix in="SourceAlpha" type="matrix" values="0 0 0 0 0 0 0 0 0 0 0 0 0 0 0 0 0 0 127 0" result="hardAlpha"/>
<feOffset dx="1" dy="2"/>
<feGaussianBlur stdDeviation="1"/>
<feComposite in2="hardAlpha" operator="arithmetic" k2="-1" k3="1"/>
<feColorMatrix type="matrix" values="0 0 0 0 0.988235 0 0 0 0 0.65098 0 0 0 0 0.188235 0 0 0 1 0"/>
<feBlend mode="normal" in2="shape" result="effect1_innerShadow_8561_16855"/>
</filter>
<linearGradient id="paint0_linear_8561_16855" x1="7" y1="4" x2="24" y2="28" gradientUnits="userSpaceOnUse">
<stop stop-color="#FFE67C"/>
<stop offset="1" stop-color="#FFCE3E"/>
</linearGradient>
<linearGradient id="paint1_linear_8561_16855" x1="8.5" y1="21" x2="15.5" y2="23" gradientUnits="userSpaceOnUse">
<stop stop-color="#F77A1C"/>
<stop offset="1" stop-color="#F77A1C"/>
</linearGradient>
<linearGradient id="paint2_linear_8561_16855" x1="8.5" y1="17" x2="14.1636" y2="18.2714" gradientUnits="userSpaceOnUse">
<stop stop-color="#F77A1C"/>
<stop offset="1" stop-color="#F77A1C"/>
</linearGradient>
<linearGradient id="paint3_linear_8561_16855" x1="8.5" y1="13" x2="14.1636" y2="14.2714" gradientUnits="userSpaceOnUse">
<stop stop-color="#F77A1C"/>
<stop offset="1" stop-color="#F77A1C"/>
</linearGradient>
<radialGradient id="paint4_radial_8561_16855" cx="0" cy="0" r="1" gradientUnits="userSpaceOnUse" gradientTransform="translate(25.3241 6.24264) rotate(119.055) scale(10.9202 5.46008)">
<stop stop-color="#FBCC33"/>
<stop offset="1" stop-color="#FFC000"/>
</radialGradient>
<linearGradient id="paint5_linear_8561_16855" x1="21.753" y1="9.7782" x2="21.753" y2="11.7782" gradientUnits="userSpaceOnUse">
<stop stop-color="#F77A1C"/>
<stop offset="1" stop-color="#F77A1C"/>
</linearGradient>
<linearGradient id="paint6_linear_8561_16855" x1="17.8995" y1="13.6673" x2="10.4749" y2="22.5061" gradientUnits="userSpaceOnUse">
<stop stop-color="#FBC92C"/>
<stop offset="1" stop-color="#F9C21D"/>
</linearGradient>
</defs>
</svg>
