<svg width="32" height="32" viewBox="0 0 32 32" fill="none" xmlns="http://www.w3.org/2000/svg">
<path fill-rule="evenodd" clip-rule="evenodd" d="M16 4C18.2091 4 20 5.79086 20 8H24C26.2091 8 28 9.79086 28 12V24C28 26.2091 26.2091 28 24 28H8C5.79086 28 4 26.2091 4 24V12C4 9.79086 5.79086 8 8 8H12C12 5.79086 13.7909 4 16 4ZM16 8C16.5523 8 17 7.55228 17 7C17 6.44772 16.5523 6 16 6C15.4477 6 15 6.44772 15 7C15 7.55228 15.4477 8 16 8Z" fill="url(#paint0_linear_8567_16970)"/>
<rect x="6" y="17" width="20" height="9" rx="2" fill="white"/>
<rect x="6" y="17" width="20" height="9" rx="2" fill="url(#paint1_linear_8567_16970)" fill-opacity="0.2"/>
<path d="M29.799 9.65685L25.5563 5.41421C24.7753 4.63317 23.509 4.63317 22.7279 5.41421L15.6568 12.4853L22.7279 19.5563L29.799 12.4853C30.58 11.7042 30.58 10.4379 29.799 9.65685Z" fill="url(#paint2_linear_8567_16970)"/>
<path d="M29.799 9.65685L25.5563 5.41421C24.7753 4.63317 23.509 4.63317 22.7279 5.41421L15.6568 12.4853L22.7279 19.5563L29.799 12.4853C30.58 11.7042 30.58 10.4379 29.799 9.65685Z" fill="url(#paint3_linear_8567_16970)" fill-opacity="0.6"/>
<path d="M28.8515 8.70933L25.5563 5.41421C24.7753 4.63316 23.509 4.63317 22.7279 5.41421L15.6568 12.4853L20.3662 17.1946L28.8515 8.70933Z" fill="url(#paint4_linear_8567_16970)"/>
<path d="M26.4991 6.35702L25.5563 5.41421C24.7753 4.63317 23.509 4.63317 22.7279 5.41421L15.6568 12.4853L18.0139 14.8423L26.4991 6.35702Z" fill="url(#paint5_linear_8567_16970)"/>
<path d="M26.4991 6.35702L25.5563 5.41421C24.7753 4.63317 23.509 4.63317 22.7279 5.41421L15.6568 12.4853L18.0139 14.8423L26.4991 6.35702Z" fill="url(#paint6_linear_8567_16970)" fill-opacity="0.6"/>
<path d="M22.7279 19.5564L15.6568 12.4853L13.8953 20.1187C13.7291 20.8387 14.3745 21.4841 15.0945 21.3179L22.7279 19.5564Z" fill="url(#paint7_radial_8567_16970)"/>
<path d="M22.7279 19.5564L15.6568 12.4853L13.8953 20.1187C13.7291 20.8387 14.3745 21.4841 15.0945 21.3179L22.7279 19.5564Z" fill="url(#paint8_linear_8567_16970)"/>
<defs>
<linearGradient id="paint0_linear_8567_16970" x1="17" y1="-20" x2="17" y2="38" gradientUnits="userSpaceOnUse">
<stop stop-color="#FFF5CA"/>
<stop offset="1" stop-color="#FFECB4"/>
</linearGradient>
<linearGradient id="paint1_linear_8567_16970" x1="8.08333" y1="17" x2="11.9941" y2="29.2691" gradientUnits="userSpaceOnUse">
<stop stop-color="#FFE67C"/>
<stop offset="1" stop-color="#FFCE3E"/>
</linearGradient>
<linearGradient id="paint2_linear_8567_16970" x1="22.0208" y1="18.1421" x2="31.1869" y2="16.1252" gradientUnits="userSpaceOnUse">
<stop stop-color="#FDD355"/>
<stop offset="1" stop-color="#FDB532"/>
</linearGradient>
<linearGradient id="paint3_linear_8567_16970" x1="28.0312" y1="14.9602" x2="25.5563" y2="12.4853" gradientUnits="userSpaceOnUse">
<stop stop-color="#F9C421"/>
<stop offset="1" stop-color="#FF8A00"/>
</linearGradient>
<linearGradient id="paint4_linear_8567_16970" x1="24.1421" y1="5.41421" x2="18.0115" y2="14.8399" gradientUnits="userSpaceOnUse">
<stop stop-color="#FDA923"/>
<stop offset="1" stop-color="#FDD154"/>
</linearGradient>
<linearGradient id="paint5_linear_8567_16970" x1="17.0711" y1="14.6066" x2="24.1421" y2="4" gradientUnits="userSpaceOnUse">
<stop stop-color="#FDD355"/>
<stop offset="1" stop-color="#FDB532"/>
</linearGradient>
<linearGradient id="paint6_linear_8567_16970" x1="23.0815" y1="10.0104" x2="20.6066" y2="7.53553" gradientUnits="userSpaceOnUse">
<stop stop-color="#F9C421"/>
<stop offset="0.0677083" stop-color="#FF8A00"/>
<stop offset="1" stop-color="#FDD445"/>
</linearGradient>
<radialGradient id="paint7_radial_8567_16970" cx="0" cy="0" r="1" gradientUnits="userSpaceOnUse" gradientTransform="translate(19.1924 16.0208) rotate(135) scale(7 5.25145)">
<stop stop-color="#F8C017"/>
<stop offset="1" stop-color="#FEDC54"/>
</radialGradient>
<linearGradient id="paint8_linear_8567_16970" x1="19.1924" y1="16.0208" x2="13.5355" y2="21.6777" gradientUnits="userSpaceOnUse">
<stop stop-color="#FDAD28" stop-opacity="0"/>
<stop offset="0.53125" stop-color="#FDAD28" stop-opacity="0.375"/>
<stop offset="0.53135" stop-color="#FDAD28"/>
</linearGradient>
</defs>
</svg>
