<svg width="24" height="24" viewBox="0 0 24 24" fill="none" xmlns="http://www.w3.org/2000/svg">
<path fill-rule="evenodd" clip-rule="evenodd" d="M1 12C1 5.92487 5.92487 1 12 1C18.0751 1 23 5.92487 23 12C23 18.0751 18.0751 23 12 23C5.92487 23 1 18.0751 1 12ZM16.2071 9.20711C16.5976 8.81658 16.5976 8.18342 16.2071 7.79289C15.8166 7.40237 15.1834 7.40237 14.7929 7.79289L7.79289 14.7929C7.40237 15.1834 7.40237 15.8166 7.79289 16.2071C8.18342 16.5976 8.81658 16.5976 9.20711 16.2071L16.2071 9.20711ZM9.20711 7.79289C8.81658 7.40237 8.18342 7.40237 7.79289 7.79289C7.40237 8.18342 7.40237 8.81658 7.79289 9.20711L8.79289 10.2071C9.18342 10.5976 9.81658 10.5976 10.2071 10.2071C10.5976 9.81658 10.5976 9.18342 10.2071 8.79289L9.20711 7.79289ZM15.2071 13.7929C14.8166 13.4024 14.1834 13.4024 13.7929 13.7929C13.4024 14.1834 13.4024 14.8166 13.7929 15.2071L14.7929 16.2071C15.1834 16.5976 15.8166 16.5976 16.2071 16.2071C16.5976 15.8166 16.5976 15.1834 16.2071 14.7929L15.2071 13.7929Z" fill="white"/>
</svg>
