<svg width="16" height="16" viewBox="0 0 16 16" fill="none" xmlns="http://www.w3.org/2000/svg">
<g clip-path="url(#clip0_577_2062)">
<path d="M4.625 8.875C4.625 8.39102 5.01602 8 5.5 8C5.98398 8 6.375 8.39102 6.375 8.875C6.375 9.35898 5.98398 9.75 5.5 9.75C5.01602 9.75 4.625 9.35898 4.625 8.875ZM10.75 10.625C11.234 10.625 11.625 11.016 11.625 11.5C11.625 11.984 11.234 12.375 10.75 12.375C10.266 12.375 9.875 11.984 9.875 11.5C9.875 11.016 10.266 10.625 10.75 10.625ZM7.25 8.875C7.25 8.51133 7.54258 8.21875 7.90625 8.21875H10.9687C11.3324 8.21875 11.625 8.51133 11.625 8.875C11.625 9.23867 11.3324 9.53125 10.9687 9.53125H7.90625C7.54258 9.53125 7.25 9.23867 7.25 8.875ZM8.34375 10.8438C8.70742 10.8438 9 11.1363 9 11.5C9 11.8637 8.70742 12.1562 8.34375 12.1562H5.28125C4.91758 12.1562 4.625 11.8637 4.625 11.5C4.625 11.1363 4.91758 10.8438 5.28125 10.8438H8.34375ZM6.15625 2.75H10.0937V1.65625C10.0937 1.29395 10.3863 1 10.75 1C11.1137 1 11.4062 1.29395 11.4062 1.65625V2.75H12.5C13.4652 2.75 14.25 3.5334 14.25 4.5V13.25C14.25 14.2152 13.4652 15 12.5 15H3.75C2.7834 15 2 14.2152 2 13.25V4.5C2 3.5334 2.7834 2.75 3.75 2.75H4.84375V1.65625C4.84375 1.29395 5.13633 1 5.5 1C5.86367 1 6.15625 1.29395 6.15625 1.65625V2.75ZM3.3125 13.25C3.3125 13.4906 3.50828 13.6875 3.75 13.6875H12.5C12.7406 13.6875 12.9375 13.4906 12.9375 13.25V6.25H3.3125V13.25Z" fill="#8C6008"/>
</g>
<defs>
<clipPath id="clip0_577_2062">
<rect width="12.25" height="14" fill="white" transform="translate(2 1)"/>
</clipPath>
</defs>
</svg>
