<svg width="16" height="16" viewBox="0 0 16 16" fill="none" xmlns="http://www.w3.org/2000/svg">
<g clip-path="url(#clip0_553_2003)">
<path d="M5.00001 8C5.00001 6.31563 6.31563 5 8.00001 5C9.65626 5 11 6.31563 11 8C11 9.65625 9.65626 11 8.00001 11C6.31563 11 5.00001 9.65625 5.00001 8ZM8.00001 6.5C7.17188 6.5 6.50001 7.17188 6.50001 8C6.50001 8.82812 7.17188 9.5 8.00001 9.5C8.82813 9.5 9.50001 8.82812 9.50001 8C9.50001 7.17188 8.82813 6.5 8.00001 6.5ZM9.15938 9.375e-06C9.85313 9.375e-06 10.4563 0.474688 10.6188 1.14813L10.8625 2.16281C11.1281 2.2925 11.3813 2.43969 11.6219 2.6025L12.625 2.30719C13.2906 2.11125 14.0031 2.39594 14.35 2.99594L15.5094 5.00313C15.8531 5.60313 15.7438 6.3625 15.2438 6.84062L14.4844 7.53438C14.4938 7.70625 14.5 7.85313 14.5 8C14.5 8.14688 14.4938 8.29375 14.4844 8.4375L15.2438 9.15938C15.7438 9.6375 15.8531 10.3969 15.5094 10.9969L14.35 13.0031C14.0031 13.6031 13.2906 13.8875 12.625 13.6938L11.6219 13.3969C11.3813 13.5594 11.1281 13.7062 10.8625 13.8375L10.6188 14.8531C10.4563 15.525 9.85313 16 9.15938 16H6.84063C6.14688 16 5.54376 15.525 5.38126 14.8531L5.13751 13.8375C4.87188 13.7062 4.61876 13.5594 4.37813 13.3969L3.34688 13.6938C2.71032 13.8875 1.99813 13.6031 1.65157 13.0031L0.492195 10.9969C0.145632 10.3969 0.255257 9.6375 0.757194 9.15938L1.51469 8.4375C1.50501 8.29375 1.50001 8.14688 1.50001 7.97188C1.50001 7.85313 1.50501 7.70625 1.51469 7.53438L0.757194 6.84062C0.255226 6.3625 0.145632 5.60313 0.492195 5.00313L1.65157 2.99594C1.99813 2.39594 2.71032 2.11125 3.34688 2.30719L4.37813 2.6025C4.61876 2.43969 4.87188 2.2925 5.13751 2.16281L5.38126 1.14813C5.54376 0.474375 6.14688 0 6.84063 0L9.15938 9.375e-06ZM6.42188 3.2375L6.07188 3.38438C5.67501 3.55 5.30626 3.76562 4.97188 4.02187L4.66876 4.25313L2.95063 3.74688L1.79094 5.75313L3.08782 6.9875L3.04001 7.3625C3.01376 7.57188 3.00001 7.78438 3.00001 8C3.00001 8.21562 3.01376 8.42812 3.04001 8.6375L3.08782 9.0125L1.79126 10.2469L2.95063 12.2531L4.66876 11.7469L4.97188 11.9781C5.30626 12.2344 5.67501 12.45 6.07188 12.6156L6.42188 12.7625L6.84063 14.5H9.15938L9.57813 12.7625L9.92813 12.6156C10.325 12.45 10.6938 12.2344 11.0281 11.9781L11.3313 11.7469L13.05 12.2531L14.2094 10.2469L12.9125 9.0125L12.9594 8.6375C12.9875 8.42812 13 8.21562 13 8C13 7.78438 12.9875 7.57188 12.9594 7.3625L12.9125 6.9875L14.2094 5.75313L13.05 3.74688L11.3313 4.25313L11.0281 4.02187C10.6938 3.76562 10.325 3.55 9.92813 3.38438L9.57813 3.2375L9.15938 1.5H6.84063L6.42188 3.2375Z" fill="#37455C"/>
</g>
<defs>
<clipPath id="clip0_553_2003">
<rect width="16" height="16" fill="white"/>
</clipPath>
</defs>
</svg>
