<svg width="24" height="24" viewBox="0 0 24 24" fill="none" xmlns="http://www.w3.org/2000/svg">
<path fill-rule="evenodd" clip-rule="evenodd" d="M15.6287 17.3732L17.6128 19.4128C17.9257 19.7344 18.4423 19.7344 18.7552 19.4128C19.0561 19.1035 19.0561 18.6108 18.7552 18.3015L14.3855 13.8094C14.6183 13.3943 14.7514 12.9126 14.7514 12.399C14.7514 10.8369 13.5196 9.57062 12 9.57062C11.5004 9.57062 11.0319 9.70751 10.628 9.9468L6.3871 5.5872C6.07421 5.26555 5.55756 5.26555 5.24468 5.5872C4.94377 5.89653 4.94377 6.38918 5.24468 6.69852L6.95813 8.45992C6.01478 9.34794 5.10432 10.5678 4.25677 11.9733C4.09884 12.2352 4.09884 12.5629 4.25677 12.8248C6.4299 16.4285 8.99713 18.46 12 18.46C13.2775 18.46 14.4901 18.0884 15.6287 17.3732ZM14.4769 16.1891L13.2445 14.9223C12.8708 15.1175 12.4479 15.2275 12 15.2275C10.4804 15.2275 9.24858 13.9611 9.24858 12.399C9.24858 11.9386 9.3556 11.5039 9.54547 11.1197L8.07111 9.60405C7.35102 10.2697 6.60133 11.2189 5.85627 12.3983C7.82711 15.4962 9.88716 16.8437 12 16.8437C12.8438 16.8437 13.6673 16.6319 14.4769 16.1891ZM11.9688 13.6108C11.3423 13.5941 10.8375 13.0751 10.8212 12.4311L11.9688 13.6108ZM13.169 12.5589C13.1757 12.5066 13.1792 12.4532 13.1792 12.399C13.1792 11.7296 12.6512 11.1869 12 11.1869C11.9473 11.1869 11.8954 11.1904 11.8445 11.1973L13.169 12.5589ZM11.9746 6.33813L12 6.33813C15.0029 6.33813 17.5701 8.3696 19.7432 11.9733C19.9012 12.2352 19.9012 12.5629 19.7432 12.8248C19.0251 14.0158 18.2688 15.0288 17.4707 15.854L16.3558 14.7144C16.9611 14.0885 17.5577 13.3189 18.1432 12.399C16.1725 9.30165 14.1127 7.95438 12 7.95438C11.5456 7.95438 11.1185 7.95617 10.7354 8.0198C10.7321 8.02034 10.7288 8.02089 10.7256 8.02144C10.283 8.09636 9.72472 8.06188 9.41562 7.73639C9.11834 7.42337 9.12362 6.91812 9.50991 6.7254C9.83282 6.56429 10.1729 6.47602 10.4847 6.42424C11.0036 6.33805 11.5479 6.3381 11.9746 6.33813Z" fill="#A9B0C0"/>
</svg>
