<svg width="24" height="24" viewBox="0 0 24 24" fill="none" xmlns="http://www.w3.org/2000/svg">
<path fill-rule="evenodd" clip-rule="evenodd" d="M4.25677 12.4817C6.4299 8.97616 8.99713 7 12 7C15.0029 7 17.5701 8.97616 19.7432 12.4817C19.9005 12.7354 19.9005 13.0564 19.7432 13.3101C17.5701 16.8156 15.0029 18.7918 12 18.7918C8.99713 18.7918 6.4299 16.8156 4.25677 13.3101C4.09947 13.0564 4.09947 12.7354 4.25677 12.4817ZM5.85674 12.8959C7.82744 15.909 9.88733 17.2196 12 17.2196C14.1127 17.2196 16.1726 15.909 18.1433 12.8959C16.1726 9.88284 14.1127 8.57224 12 8.57224C9.88733 8.57224 7.82744 9.88284 5.85674 12.8959ZM12 11.7167C11.3488 11.7167 10.8208 12.2447 10.8208 12.8959C10.8208 13.5471 11.3488 14.0751 12 14.0751C12.6512 14.0751 13.1792 13.5471 13.1792 12.8959C13.1792 12.2447 12.6512 11.7167 12 11.7167ZM9.24858 12.8959C9.24858 11.3763 10.4804 10.1445 12 10.1445C13.5196 10.1445 14.7514 11.3763 14.7514 12.8959C14.7514 14.4155 13.5196 15.6473 12 15.6473C10.4804 15.6473 9.24858 14.4155 9.24858 12.8959Z" fill="#A9B0C0"/>
</svg>
