<svg width="24" height="24" viewBox="0 0 24 24" fill="none" xmlns="http://www.w3.org/2000/svg">
<path d="M18.4642 13C18.4642 13.4156 18.106 13.75 17.6606 13.75H12.3035V18.75C12.3035 19.1641 11.9436 19.5003 11.4999 19.5003C11.0563 19.5003 10.6964 19.1656 10.6964 18.75V13.75H5.33922C4.89558 13.75 4.53564 13.4144 4.53564 13.0003C4.53564 12.5875 4.89558 12.25 5.33922 12.25H10.6964V7.24999C10.6964 6.83593 11.0563 6.50031 11.4999 6.50031C11.9436 6.50031 12.3035 6.83593 12.3035 7.24999V12.25H17.6606C18.106 12.25 18.4642 12.5875 18.4642 13Z" fill="black"/>
</svg>
