<svg width="24" height="24" viewBox="0 0 24 24" fill="none" xmlns="http://www.w3.org/2000/svg">
<g clip-path="url(#clip0_690_2516)">
<path d="M20.0352 8.67775L15.9102 4.71974C15.6344 4.4515 15.1995 4.46615 14.9388 4.74812C14.6774 5.0301 14.6899 5.47497 14.9665 5.74158L17.834 8.51189H13.1532C11.9857 8.43165 10.9029 8.92384 10.0807 9.75587C9.25 10.5996 8.79167 11.7276 8.79167 12.9375V15.4893C8.79167 15.8775 9.09961 16.166 9.47917 16.166C9.85872 16.166 10.1667 15.9053 10.1667 15.5156V12.9375C10.1667 12.1064 10.4801 11.3309 11.0484 10.7549C11.6076 10.1895 12.3122 9.86134 13.1458 9.89064H17.8323L14.9648 12.6609C14.6882 12.9274 14.6758 13.3723 14.9371 13.6544C15.0723 13.7745 15.2539 13.875 15.4367 13.875C15.6059 13.875 15.7758 13.8119 15.9085 13.6828L20.0335 9.72479C20.1727 9.56544 20.25 9.38087 20.25 9.18751C20.25 8.99415 20.1727 8.80958 20.0352 8.67775ZM14.0625 15.75C13.6829 15.75 13.375 16.065 13.375 16.4268V17.8067C13.375 17.9357 13.272 18.0147 13.1458 18.0147H5.35417C5.22795 18.0147 5.125 17.9094 5.125 17.8067V9.89064C5.125 9.76156 5.22795 9.68263 5.35417 9.68263H6.95833C7.33789 9.68263 7.64583 9.36769 7.64583 9.00587C7.64583 8.64406 7.33789 8.32911 6.95833 8.32911H5.35417C4.46958 8.32911 3.75 9.06505 3.75 9.94337V17.8858C3.75 18.7647 4.46987 19.5 5.35417 19.5H13.1458C14.0304 19.5 14.75 18.7641 14.75 17.8858V16.5059C14.75 16.0664 14.4435 15.75 14.0625 15.75Z" fill="#1D2129"/>
</g>
<defs>
<clipPath id="clip0_690_2516">
<rect width="16.5" height="15" fill="white" transform="translate(3.75 4.5)"/>
</clipPath>
</defs>
</svg>
