

<svg width="16" height="16" viewBox="0 0 16 16" fill="none" xmlns="http://www.w3.org/2000/svg">
<path d="M15.45 4.00313C15.7906 4.19063 16 4.54688 16 4.93438C16 5.525 15.525 6 14.9344 6H1.06438C0.476563 6 0 5.525 0 4.93438C0 4.54688 0.210781 4.19063 0.550313 4.00313L7.6375 0.0933141C7.8625 -0.0311047 8.1375 -0.0311047 8.3625 0.0933141L15.45 4.00313ZM7 4C7 3.44688 7.44688 3 8 3C8.55313 3 9 3.44688 9 4C9 4.18125 8.95 4.35313 8.86563 4.5H13.2437L8 1.60656L2.75563 4.5H7.13438C7.05 4.35313 7 4.18125 7 4ZM2 7H3.5V12H5.5V7H7V12H9V7H10.5V12H12.5V7H14V12H14.25C14.6656 12 15 12.3344 15 12.75C15 13.1656 14.6656 13.5 14.25 13.5H2C1.58594 13.5 1.25 13.1656 1.25 12.75C1.25 12.3344 1.58594 12 2 12V7ZM15.25 14.5C15.6656 14.5 16 14.8344 16 15.25C16 15.6656 15.6656 16 15.25 16H1C0.585938 16 0.25 15.6656 0.25 15.25C0.25 14.8344 0.585938 14.5 1 14.5H15.25Z" fill="#37455C"/>
</svg>
