<svg width="24" height="23" viewBox="0 0 24 23" fill="none" xmlns="http://www.w3.org/2000/svg">
<path fill-rule="evenodd" clip-rule="evenodd" d="M12 21C17.5229 21 22 16.5229 22 11C22 5.47715 17.5229 1 12 1C6.47715 1 2 5.47715 2 11C2 16.5229 6.47715 21 12 21Z" stroke="#798195" stroke-width="2" stroke-linecap="round" stroke-linejoin="round"/>
<path d="M12 10.5C13.3807 10.5 14.5 9.3807 14.5 8C14.5 6.6193 13.3807 5.5 12 5.5C10.6193 5.5 9.5 6.6193 9.5 8C9.5 9.3807 10.6193 10.5 12 10.5Z" stroke="#798195" stroke-width="2" stroke-linejoin="round"/>
<path d="M5.01099 18.166C5.18284 15.5603 7.35079 13.5 9.99999 13.5H14C16.6457 13.5 18.8114 15.5548 18.9883 18.1556" stroke="#798195" stroke-width="2" stroke-linecap="round" stroke-linejoin="round"/>
</svg>
