<svg width="24" height="23" viewBox="0 0 24 23" fill="none" xmlns="http://www.w3.org/2000/svg">
<path d="M12 9C13.933 9 15.5 7.433 15.5 5.5C15.5 3.56701 13.933 2 12 2C10.067 2 8.5 3.56701 8.5 5.5C8.5 7.433 10.067 9 12 9Z" stroke="#798195" stroke-width="2" stroke-linecap="round" stroke-linejoin="round"/>
<path d="M6 2.62744C5.09325 3.25992 4.5 4.3107 4.5 5.5001C4.5 6.77325 5.1798 7.88765 6.1962 8.5001" stroke="#798195" stroke-width="2" stroke-linecap="round" stroke-linejoin="round"/>
<path d="M18 2.62744C18.9068 3.25992 19.5 4.3107 19.5 5.5001C19.5 6.68945 18.9068 7.7403 18 8.37275" stroke="#798195" stroke-width="2" stroke-linecap="round" stroke-linejoin="round"/>
<path d="M6 19V20H18V19C18 17.1363 18 16.2043 17.6955 15.4692C17.2895 14.4891 16.5109 13.7104 15.5308 13.3045C14.7957 13 13.8637 13 12 13C10.1363 13 9.20435 13 8.46925 13.3045C7.48915 13.7104 6.71045 14.4891 6.3045 15.4692C6 16.2043 6 17.1363 6 19Z" stroke="#798195" stroke-width="2" stroke-linecap="round" stroke-linejoin="round"/>
<path d="M22 20V19.4C22 17.1598 22 16.0397 21.564 15.1841C21.1805 14.4314 20.5686 13.8196 19.8159 13.4361" stroke="#798195" stroke-width="2" stroke-linecap="round" stroke-linejoin="round"/>
<path d="M2 20V19.4C2 17.1598 2 16.0397 2.43597 15.1841C2.81946 14.4314 3.43139 13.8196 4.18404 13.4361" stroke="#798195" stroke-width="2" stroke-linecap="round" stroke-linejoin="round"/>
</svg>
