<svg width="24" height="23" viewBox="0 0 24 23" fill="none" xmlns="http://www.w3.org/2000/svg">
<path d="M9.1419 20.5857C7.46635 20.0868 5.9749 19.1607 4.79393 17.9335C5.2345 17.4114 5.5 16.7367 5.5 16.0001C5.5 14.3432 4.15685 13.0001 2.5 13.0001C2.39977 13.0001 2.3007 13.005 2.203 13.0146C2.0699 12.3639 2 11.6902 2 11.0001C2 9.95475 2.16039 8.9469 2.4579 7.99975C2.47191 7.99995 2.48594 8.00005 2.5 8.00005C4.15685 8.00005 5.5 6.6569 5.5 5.00005C5.5 4.5244 5.3893 4.07465 5.1923 3.67506C6.34875 2.59975 7.76025 1.79501 9.32605 1.36157C9.8222 2.3341 10.8333 3.00007 12 3.00007C13.1667 3.00007 14.1778 2.3341 14.674 1.36157C16.2398 1.79501 17.6512 2.59975 18.8077 3.67506C18.6107 4.07465 18.5 4.5244 18.5 5.00005C18.5 6.6569 19.8432 8.00005 21.5 8.00005C21.5141 8.00005 21.5281 7.99995 21.5421 7.99975C21.8396 8.9469 22 9.95475 22 11.0001C22 11.6902 21.9301 12.3639 21.797 13.0146C21.6993 13.005 21.6002 13.0001 21.5 13.0001C19.8432 13.0001 18.5 14.3432 18.5 16.0001C18.5 16.7367 18.7655 17.4114 19.2061 17.9335C18.0251 19.1607 16.5336 20.0868 14.8581 20.5857C14.4714 19.376 13.338 18.5001 12 18.5001C10.662 18.5001 9.5286 19.376 9.1419 20.5857Z" stroke="#798195" stroke-width="2" stroke-linejoin="round"/>
<path d="M12 14.5C13.933 14.5 15.5 12.933 15.5 11C15.5 9.067 13.933 7.5 12 7.5C10.067 7.5 8.5 9.067 8.5 11C8.5 12.933 10.067 14.5 12 14.5Z" stroke="#798195" stroke-width="2" stroke-linejoin="round"/>
</svg>
