<svg width="16" height="16" viewBox="0 0 16 16" fill="none" xmlns="http://www.w3.org/2000/svg">
<path d="M4.5 13.1235C5.4636 13.8813 6.67903 14.3333 8 14.3333C9.32097 14.3333 10.5364 13.8813 11.5 13.1235" stroke="#37455C" stroke-width="1.33333"/>
<path d="M6.3335 3.24902C4.01726 3.96073 2.3335 6.11703 2.3335 8.66663C2.3335 9.30823 2.44013 9.92493 2.63663 10.5" stroke="#37455C" stroke-width="1.33333"/>
<path d="M9.6665 3.24902C11.9827 3.96073 13.6665 6.11703 13.6665 8.66663C13.6665 9.30823 13.5599 9.92493 13.3634 10.5" stroke="#37455C" stroke-width="1.33333"/>
<path d="M14.3333 12C14.3333 12.4472 14.1572 12.8532 13.8706 13.1525C13.5672 13.4694 13.14 13.6666 12.6667 13.6666C11.7462 13.6666 11 12.9204 11 12C11 11.3299 11.3954 10.7523 11.9656 10.4875C12.1787 10.3885 12.4162 10.3333 12.6667 10.3333C13.5871 10.3333 14.3333 11.0795 14.3333 12Z" stroke="#37455C" stroke-width="1.33333" stroke-linecap="round" stroke-linejoin="round"/>
<path d="M4.99984 12C4.99984 12.4472 4.8237 12.8532 4.53707 13.1525C4.23367 13.4694 3.80647 13.6666 3.33317 13.6666C2.4127 13.6666 1.6665 12.9204 1.6665 12C1.6665 11.3299 2.06188 10.7523 2.63206 10.4875C2.84518 10.3885 3.08273 10.3333 3.33317 10.3333C4.25364 10.3333 4.99984 11.0795 4.99984 12Z" stroke="#37455C" stroke-width="1.33333" stroke-linecap="round" stroke-linejoin="round"/>
<path d="M9.66683 2.99998C9.66683 3.44718 9.4907 3.85321 9.20406 4.15255C8.90066 4.46938 8.47346 4.66665 8.00016 4.66665C7.0797 4.66665 6.3335 3.92045 6.3335 2.99998C6.3335 2.32995 6.72886 1.75227 7.29906 1.48751C7.51216 1.38855 7.74973 1.33331 8.00016 1.33331C8.92063 1.33331 9.66683 2.07951 9.66683 2.99998Z" stroke="#37455C" stroke-width="1.33333" stroke-linecap="round" stroke-linejoin="round"/>
</svg>
