<svg width="16" height="16" viewBox="0 0 16 16" fill="none" xmlns="http://www.w3.org/2000/svg">
<path d="M2.3335 12.3334C2.3335 9.76559 2.3335 3.66669 2.3335 3.66669C2.3335 2.56212 3.22893 1.66669 4.3335 1.66669H11.6668V10.3334C11.6668 10.3334 6.0777 10.3334 4.3335 10.3334C3.2335 10.3334 2.3335 11.2281 2.3335 12.3334Z" stroke="#37455C" stroke-width="1.33333" stroke-linejoin="round"/>
<path d="M11.6668 10.3333C11.6668 10.3333 4.71806 10.3333 4.3335 10.3333C3.22893 10.3333 2.3335 11.2287 2.3335 12.3333C2.3335 13.4379 3.22893 14.3333 4.3335 14.3333C5.06986 14.3333 8.62543 14.3333 13.6668 14.3333V2.33331" stroke="#37455C" stroke-width="1.33333" stroke-linecap="round" stroke-linejoin="round"/>
<path d="M4.6665 12.3333H11.3332" stroke="#37455C" stroke-width="1.33333" stroke-linecap="round" stroke-linejoin="round"/>
</svg>
