<svg width="14" height="14" viewBox="0 0 14 14" fill="none" xmlns="http://www.w3.org/2000/svg">
<g clip-path="url(#clip0_4541_5949)">
<path d="M0.7875 0.482296C1.59113 -0.192521 2.72508 -0.119048 3.47539 0.449757C4.27383 -0.122028 5.39766 -0.187243 6.21523 0.47628L6.22344 0.483937C7.20781 1.31273 7.25703 2.78901 6.36562 3.68042L4.21641 5.83511C3.83086 6.20972 3.18281 6.23706 2.78086 5.82417L0.634102 3.68316L0.633008 3.68042C-0.258152 2.76441 -0.209836 1.31081 0.7875 0.482296ZM1.62723 1.49101C1.22855 1.82159 1.21133 2.40265 1.56187 2.75347L3.50547 4.69214L5.43594 2.75347C5.78867 2.40319 5.76953 1.82241 5.38398 1.49183C5.05039 1.22632 4.52539 1.25585 4.18359 1.58452L3.51641 2.29847L2.81914 1.58972C2.47187 1.24983 1.93512 1.23179 1.63105 1.488L1.62723 1.49101ZM14 4.78784C14 5.53706 13.2152 6.10034 12.25 6.10034C11.2848 6.10034 10.5 5.53706 10.5 4.78784C10.5 4.08784 11.2848 3.47534 12.25 3.47534C12.4004 3.47534 12.548 3.51362 12.6875 3.54097V1.45655L9.625 2.06905V5.66284C9.625 6.41206 8.84023 6.97534 7.875 6.97534C6.90977 6.97534 6.125 6.41206 6.125 5.66284C6.125 4.96284 6.90977 4.35034 7.875 4.35034C8.02539 4.35034 8.17305 4.38862 8.3125 4.41597V1.50659C8.3125 1.21839 8.53398 0.949054 8.84023 0.88753L13.2152 0.0126697C13.4066 -0.0258932 13.609 0.0240173 13.7594 0.148675C13.9125 0.273308 14 0.459601 14 0.631593V4.78784ZM5.25 10.7187C5.25 11.4433 4.66211 12.0312 3.9375 12.0312C3.21289 12.0312 2.625 11.4433 2.625 10.7187C2.625 9.99409 3.21289 9.4062 3.9375 9.4062C4.66211 9.4062 5.25 9.99409 5.25 10.7187ZM7.875 9.62495V12.25C7.875 13.2152 7.09023 14 6.125 14H1.75C0.783399 14 0 13.2152 0 12.25V9.62495C0 8.65972 0.783398 7.87495 1.72539 7.87495L1.94578 7.48394C2.09398 7.18589 2.39695 6.97534 2.72836 6.97534H5.14609C5.47695 6.97534 5.78047 7.18589 5.92812 7.48394L6.125 7.87495C7.09023 7.87495 7.875 8.65972 7.875 9.62495ZM2.56102 9.18745H1.72539C1.50828 9.18745 1.3125 9.38433 1.3125 9.62495V12.25C1.3125 12.4906 1.50828 12.6875 1.75 12.6875H6.125C6.36562 12.6875 6.5625 12.4906 6.5625 12.25V9.62495C6.5625 9.38433 6.36562 9.18745 6.125 9.18745H5.31289L4.87539 8.28784H2.99961L2.56102 9.18745ZM12.9445 7.08472C13.1086 7.2023 13.1715 7.42105 13.0895 7.60972L12.0395 10.0625H13.5625C13.7457 10.0625 13.907 10.1746 13.948 10.3468C14.0355 10.5164 13.9891 10.7105 13.8496 10.8281L10.3496 13.8906C10.1965 14.0027 9.96953 14.0355 9.80547 13.9152C9.64141 13.7976 9.58125 13.5789 9.66055 13.3902L10.7105 10.9375H9.1875C9.0043 10.9375 8.84297 10.8253 8.77734 10.6531C8.71445 10.4835 8.76094 10.2894 8.90039 10.1472L12.4004 7.08472C12.5535 6.97261 12.7805 6.96441 12.9445 7.08472Z" fill="#798195"/>
</g>
<defs>
<clipPath id="clip0_4541_5949">
<rect width="14" height="14" fill="white"/>
</clipPath>
</defs>
</svg>
