<svg width="12" height="12" viewBox="0 0 12 12" fill="none" xmlns="http://www.w3.org/2000/svg">
<g clip-path="url(#clip0_12126_17218)">
<path d="M6 1.125C7.29293 1.125 8.53291 1.63861 9.44715 2.55285C10.3614 3.46709 10.875 4.70707 10.875 6C10.875 7.29293 10.3614 8.53291 9.44715 9.44715C8.53291 10.3614 7.29293 10.875 6 10.875C4.70707 10.875 3.46709 10.3614 2.55285 9.44715C1.63861 8.53291 1.125 7.29293 1.125 6C1.125 4.70707 1.63861 3.46709 2.55285 2.55285C3.46709 1.63861 4.70707 1.125 6 1.125ZM6 12C7.5913 12 9.11742 11.3679 10.2426 10.2426C11.3679 9.11742 12 7.5913 12 6C12 4.4087 11.3679 2.88258 10.2426 1.75736C9.11742 0.632141 7.5913 0 6 0C4.4087 0 2.88258 0.632141 1.75736 1.75736C0.632141 2.88258 0 4.4087 0 6C0 7.5913 0.632141 9.11742 1.75736 10.2426C2.88258 11.3679 4.4087 12 6 12ZM5.0625 7.875C4.75078 7.875 4.5 8.12578 4.5 8.4375C4.5 8.74922 4.75078 9 5.0625 9H6.9375C7.24922 9 7.5 8.74922 7.5 8.4375C7.5 8.12578 7.24922 7.875 6.9375 7.875H6.75V5.8125C6.75 5.50078 6.49922 5.25 6.1875 5.25H5.0625C4.75078 5.25 4.5 5.50078 4.5 5.8125C4.5 6.12422 4.75078 6.375 5.0625 6.375H5.625V7.875H5.0625ZM6 4.5C6.19891 4.5 6.38968 4.42098 6.53033 4.28033C6.67098 4.13968 6.75 3.94891 6.75 3.75C6.75 3.55109 6.67098 3.36032 6.53033 3.21967C6.38968 3.07902 6.19891 3 6 3C5.80109 3 5.61032 3.07902 5.46967 3.21967C5.32902 3.36032 5.25 3.55109 5.25 3.75C5.25 3.94891 5.32902 4.13968 5.46967 4.28033C5.61032 4.42098 5.80109 4.5 6 4.5Z" fill="#A9B0C0"/>
</g>
<defs>
<clipPath id="clip0_12126_17218">
<rect width="12" height="12" fill="white"/>
</clipPath>
</defs>
</svg>
