<svg width="16" height="20" viewBox="0 0 16 20" fill="none" xmlns="http://www.w3.org/2000/svg">
<path d="M0 3.71425C0 3.39854 0.255857 3.14282 0.571429 3.14282H15.4286C15.7429 3.14282 16 3.39854 16 3.71425C16 4.02997 15.7429 4.28568 15.4286 4.28568H0.571429C0.255857 4.28568 0 4.02997 0 3.71425ZM0 9.42854C0 9.11425 0.255857 8.85711 0.571429 8.85711H15.4286C15.7429 8.85711 16 9.11425 16 9.42854C16 9.74282 15.7429 9.99997 15.4286 9.99997H0.571429C0.255857 9.99997 0 9.74282 0 9.42854ZM15.4286 15.7143H0.571429C0.255857 15.7143 0 15.4571 0 15.1428C0 14.8285 0.255857 14.5714 0.571429 14.5714H15.4286C15.7429 14.5714 16 14.8285 16 15.1428C16 15.4571 15.7429 15.7143 15.4286 15.7143Z" fill="#DCDDE1"/>
</svg>
