<svg width="19" height="20" viewBox="0 0 19 20" fill="none" xmlns="http://www.w3.org/2000/svg">
<path d="M18.1713 8.36788H17.5V8.33329H10V11.6666H14.7096C14.0225 13.607 12.1763 15 10 15C7.23877 15 5.00002 12.7612 5.00002 9.99996C5.00002 7.23871 7.23877 4.99996 10 4.99996C11.2746 4.99996 12.4342 5.48079 13.3171 6.26621L15.6742 3.90913C14.1859 2.52204 12.195 1.66663 10 1.66663C5.39794 1.66663 1.66669 5.39788 1.66669 9.99996C1.66669 14.602 5.39794 18.3333 10 18.3333C14.6021 18.3333 18.3334 14.602 18.3334 9.99996C18.3334 9.44121 18.2759 8.89579 18.1713 8.36788Z" fill="#FFC107"/>
<path d="M2.6275 6.12121L5.36542 8.12913C6.10625 6.29496 7.90042 4.99996 10 4.99996C11.2746 4.99996 12.4342 5.48079 13.3171 6.26621L15.6742 3.90913C14.1858 2.52204 12.195 1.66663 10 1.66663C6.79917 1.66663 4.02334 3.47371 2.6275 6.12121Z" fill="#FF3D00"/>
<path d="M9.99999 18.3334C12.1525 18.3334 14.1083 17.5096 15.5871 16.17L13.0079 13.9875C12.1712 14.6213 11.1312 15 9.99999 15C7.83249 15 5.99207 13.618 5.29874 11.6892L2.58124 13.783C3.9604 16.4817 6.76124 18.3334 9.99999 18.3334Z" fill="#4CAF50"/>
<path d="M18.1712 8.36796H17.5V8.33337H10V11.6667H14.7096C14.3796 12.5988 13.78 13.4025 13.0067 13.988C13.0071 13.9875 13.0075 13.9875 13.0079 13.9871L15.5871 16.1696C15.4046 16.3355 18.3333 14.1667 18.3333 10C18.3333 9.44129 18.2758 8.89587 18.1712 8.36796Z" fill="#1976D2"/>
</svg>
