<svg width="26" height="22" viewBox="0 0 26 22" fill="none" xmlns="http://www.w3.org/2000/svg">
<path fill-rule="evenodd" clip-rule="evenodd" d="M18.1252 6.443C18.2341 6.44327 18.343 6.44521 18.4518 6.44883V6.44767C17.5267 3.0305 13.8342 0.5 9.44166 0.5C4.33166 0.5 0.166656 3.93583 0.166656 8.19767C0.166656 10.517 1.40099 12.6053 3.38316 14.0088C3.54496 14.131 3.64035 14.3218 3.64099 14.5245C3.64099 14.5529 3.63406 14.5883 3.6271 14.6239C3.62006 14.6598 3.61299 14.6959 3.61299 14.7252C3.46949 15.2968 3.21049 16.2418 3.18249 16.2698C3.17681 16.2866 3.17118 16.3023 3.16579 16.3174C3.14348 16.3795 3.12532 16.4301 3.12532 16.4997C3.12722 16.6728 3.26714 16.8128 3.44032 16.8147C3.49637 16.8147 3.55241 16.7866 3.60956 16.758L3.61299 16.7563L5.65232 15.5838C5.79924 15.4935 5.96757 15.444 6.13999 15.4403C6.22632 15.4403 6.31266 15.4403 6.39899 15.4695C7.3807 15.7442 8.39429 15.8885 9.41366 15.8988H9.51749C9.34482 15.3038 9.25149 14.6785 9.25149 14.0322C9.25149 9.77967 13.2555 6.443 18.1252 6.443ZM23.1687 18.8762C23.0153 18.9614 22.9343 19.1357 22.968 19.3078C22.968 19.3638 22.968 19.421 22.9972 19.4793C23.0677 19.7794 23.1817 20.189 23.2587 20.4658L23.2588 20.466L23.2588 20.4661C23.3066 20.638 23.3402 20.7585 23.3402 20.7697C23.3402 20.8163 23.3489 20.8545 23.3568 20.8891C23.3633 20.9177 23.3693 20.9439 23.3693 20.9703C23.3693 21.0386 23.3421 21.1041 23.2937 21.1522C23.2453 21.2004 23.1798 21.2273 23.1115 21.227C23.0688 21.227 23.0423 21.212 23.0088 21.193C22.9965 21.186 22.9833 21.1785 22.968 21.171L21.2775 20.1957C21.1541 20.1277 21.0169 20.0886 20.8762 20.0813C20.791 20.0813 20.7047 20.0813 20.6475 20.1093C19.8448 20.3392 19.0142 20.4535 18.1263 20.4535C13.8563 20.4535 10.4182 17.587 10.4182 14.031C10.4182 10.4762 13.8563 7.6085 18.1263 7.6085C22.3952 7.6085 25.8333 10.4762 25.8333 14.031C25.8333 15.9525 24.802 17.7013 23.1687 18.8773V18.8762ZM16.5548 11.9485C16.5473 12.524 16.0826 12.9886 15.5072 12.9962C14.925 12.9962 14.4595 12.5318 14.4595 11.9485C14.4595 11.3675 14.9238 10.9008 15.5072 10.9008C16.0882 10.9008 16.5548 11.3675 16.5548 11.9485ZM21.7173 11.9485C21.7098 12.524 21.2451 12.9886 20.6697 12.9962C20.0887 12.9962 19.622 12.5318 19.622 11.9485C19.622 11.3675 20.0875 10.9008 20.6697 10.9008C21.2518 10.9008 21.7173 11.3675 21.7173 11.9485ZM12.4388 6.9365C13.1073 6.9365 13.6358 6.38 13.6358 5.7395C13.6358 5.071 13.1073 4.5425 12.4388 4.5425C11.7703 4.5425 11.2418 5.071 11.2418 5.7395C11.2418 6.408 11.7703 6.9365 12.4388 6.9365ZM7.50032 5.7395C7.50032 6.38 6.97066 6.9365 6.30216 6.9365C5.63482 6.9365 5.10516 6.408 5.10516 5.7395C5.10516 5.071 5.63482 4.5425 6.30216 4.5425C6.97066 4.5425 7.50032 5.071 7.50032 5.7395Z" fill="white"/>
</svg>
