<svg width="18" height="18" viewBox="0 0 18 18" fill="none" xmlns="http://www.w3.org/2000/svg">
<path fill-rule="evenodd" clip-rule="evenodd" d="M5.37944 5.77254C5.37944 3.77333 7.00028 2.15287 8.99985 2.15287H12.6203V5.77254C12.6203 7.77193 10.9992 9.39294 8.99985 9.39294C7.00046 9.39294 5.37944 7.77193 5.37944 5.77254ZM8.99985 0.486206C6.08017 0.486206 3.71278 2.85249 3.71278 5.77254C3.71278 8.6924 6.07998 11.0596 8.99985 11.0596C11.9197 11.0596 14.2869 8.6924 14.2869 5.77254V1.31954C14.2869 0.859302 13.9138 0.486206 13.4536 0.486206H8.99985ZM5.82568 11.9894C3.2031 11.9894 1.01832 13.9973 0.796728 16.61C0.757833 17.0686 1.09806 17.4719 1.55665 17.5108C2.01524 17.5496 2.41854 17.2094 2.45743 16.7508C2.60586 15.0008 4.06912 13.6561 5.82568 13.6561H12.1743C13.9302 13.6561 15.3941 15.0009 15.5426 16.7508C15.5815 17.2094 15.9848 17.5496 16.4433 17.5108C16.9019 17.4719 17.2422 17.0686 17.2033 16.61C16.9817 13.9972 14.7961 11.9894 12.1743 11.9894H5.82568ZM8.62119 6.72577C8.29575 6.40033 7.76811 6.40033 7.44268 6.72577C7.11724 7.0512 7.11724 7.57884 7.44268 7.90428C8.35079 8.81239 9.82314 8.81239 10.7313 7.90428C11.0567 7.57884 11.0567 7.0512 10.7313 6.72577C10.4058 6.40033 9.87818 6.40033 9.55274 6.72577C9.2955 6.98301 8.87843 6.98301 8.62119 6.72577Z" fill="#37455C"/>
</svg>
