<svg width="18" height="14" viewBox="0 0 18 14" fill="none" xmlns="http://www.w3.org/2000/svg">
<path d="M17.2219 0.489714H9.75006C9.336 0.489714 9.00006 0.825965 9.00006 1.24034C9.00006 1.65471 9.336 1.99096 9.75006 1.99096H17.2219C17.636 1.99096 17.9719 1.65471 17.9719 1.24034C17.9719 0.825965 17.6626 0.489714 17.2219 0.489714ZM11.2501 12.4719H9.75006C9.336 12.4719 9.00006 12.8082 9.00006 13.2225C9.00006 13.6369 9.33756 14 9.75006 14H11.2501C11.6641 14 11.9719 13.6638 11.9719 13.2494C11.9719 12.835 11.6626 12.4719 11.2501 12.4719ZM13.2219 8.4969H9.75006C9.336 8.4969 9.00006 8.83315 9.00006 9.24753C9.00006 9.6619 9.336 9.99815 9.75006 9.99815H13.2219C13.636 9.99815 13.9719 9.6619 13.9719 9.24753C13.9719 8.83315 13.6626 8.4969 13.2219 8.4969ZM15.2219 4.49378H9.75006C9.336 4.49378 9.00006 4.83003 9.00006 5.2444C9.00006 5.65878 9.336 5.99503 9.75006 5.99503H15.2219C15.636 5.99503 15.9719 5.65878 15.9719 5.2444C15.9719 4.83003 15.6626 4.49378 15.2219 4.49378ZM4.55006 0.230339C4.26687 -0.0765356 3.73162 -0.0765356 3.4485 0.230339L0.449435 3.48128C0.168185 3.78621 0.186748 4.26128 0.491435 4.5419C0.635998 4.67815 0.818498 4.74378 1.00006 4.74378C1.20222 4.74378 1.4035 4.66271 1.55069 4.50256L3.25006 2.6594V13.25C3.25006 13.6625 3.58756 14 4.00006 14C4.41256 14 4.75006 13.6625 4.75006 13.2219V2.6594L6.44912 4.50159C6.72818 4.80628 7.20319 4.82815 7.50944 4.54378C7.81256 4.26253 7.83131 3.78753 7.55006 3.48128L4.55006 0.230339Z" fill="black"/>
</svg>
