<svg width="12" height="12" viewBox="0 0 12 12" fill="none" xmlns="http://www.w3.org/2000/svg">
<g clip-path="url(#clip0_6043_15006)">
<path d="M5.99997 1.66669C4.31663 1.66669 2.96872 2.43335 1.98747 3.34585C1.01247 4.25002 0.360384 5.33335 0.0520508 6.0771C-0.0166992 6.24169 -0.0166992 6.42502 0.0520508 6.5896C0.360384 7.33335 1.01247 8.41669 1.98747 9.32085C2.96872 10.2334 4.31663 11 5.99997 11C7.6833 11 9.03122 10.2334 10.0125 9.32085C10.9875 8.4146 11.6396 7.33335 11.95 6.5896C12.0187 6.42502 12.0187 6.24169 11.95 6.0771C11.6396 5.33335 10.9875 4.25002 10.0125 3.34585C9.03122 2.43335 7.6833 1.66669 5.99997 1.66669ZM8.99997 6.33335C8.99997 7.9896 7.65622 9.33335 5.99997 9.33335C4.34372 9.33335 2.99997 7.9896 2.99997 6.33335C2.99997 4.6771 4.34372 3.33335 5.99997 3.33335C7.65622 3.33335 8.99997 4.6771 8.99997 6.33335ZM5.99997 5.00002C5.99997 5.73544 5.40205 6.33335 4.66663 6.33335C4.42705 6.33335 4.20205 6.27085 4.0083 6.15835C4.00413 6.21669 3.99997 6.27294 3.99997 6.33335C3.99997 7.43752 4.8958 8.33335 5.99997 8.33335C7.10413 8.33335 7.99997 7.43752 7.99997 6.33335C7.99997 5.22919 7.10413 4.33335 5.99997 4.33335C5.94163 4.33335 5.8833 4.33544 5.82497 4.34169C5.93538 4.53544 5.99997 4.76044 5.99997 5.00002Z" fill="#A9B0C0"/>
</g>
<defs>
<clipPath id="clip0_6043_15006">
<rect width="12" height="10.6667" fill="white" transform="translate(0 1)"/>
</clipPath>
</defs>
</svg>
