<svg width="14" height="14" viewBox="0 0 14 14" fill="none" xmlns="http://www.w3.org/2000/svg">
<g clip-path="url(#clip0_4541_6031)">
<g clip-path="url(#clip1_4541_6031)">
<g clip-path="url(#clip2_4541_6031)">
<path d="M7.4375 7.875H5.6875C4.47891 7.875 3.5 8.85391 3.5 10.0625C3.5 10.3031 3.69688 10.5 3.9375 10.5H9.1875C9.42911 10.5 9.625 10.3041 9.625 10.0625C9.625 8.85391 8.64609 7.875 7.4375 7.875ZM6.5625 7C7.5291 7 8.3125 6.2166 8.3125 5.25C8.3125 4.2834 7.5291 3.5 6.5625 3.5C5.59617 3.5 4.8125 4.2834 4.8125 5.25C4.8125 6.2166 5.59727 7 6.5625 7ZM13.5625 8.75H13.125V11.375H13.5625C13.8041 11.375 14 11.1791 14 10.9375V9.1875C14 8.94687 13.8031 8.75 13.5625 8.75ZM13.5625 1.75H13.125V4.375H13.5625C13.8031 4.375 14 4.17812 14 3.9375V2.1875C14 1.94578 13.8031 1.75 13.5625 1.75ZM13.5625 5.25H13.125V7.875H13.5625C13.8031 7.875 14 7.67812 14 7.4375V5.6875C14 5.44688 13.8031 5.25 13.5625 5.25ZM10.5 0H2.625C1.6584 0 0.875 0.783399 0.875 1.75V12.25C0.875 13.2166 1.6584 14 2.625 14H10.5C11.4666 14 12.25 13.2166 12.25 12.25V1.75C12.25 0.783399 11.4652 0 10.5 0ZM10.9375 12.25C10.9375 12.4916 10.7416 12.6875 10.5 12.6875H2.625C2.38339 12.6875 2.1875 12.4916 2.1875 12.25V1.75C2.1875 1.50834 2.38339 1.3125 2.625 1.3125H10.5C10.7416 1.3125 10.9375 1.50834 10.9375 1.75V12.25Z" fill="#798195"/>
</g>
</g>
</g>
<defs>
<clipPath id="clip0_4541_6031">
<rect width="14" height="14" fill="white"/>
</clipPath>
<clipPath id="clip1_4541_6031">
<rect width="14" height="14" fill="white"/>
</clipPath>
<clipPath id="clip2_4541_6031">
<rect width="14" height="14" fill="white"/>
</clipPath>
</defs>
</svg>
