<svg width="14" height="14" viewBox="0 0 14 14" fill="none" xmlns="http://www.w3.org/2000/svg">
<g clip-path="url(#clip0_4557_6472)">
<path d="M13.25 9.625V1.3125C13.25 0.588711 12.6621 0 11.9375 0H3.1875C1.98137 0 1 0.981094 1 2.1875V11.8125C1 13.0184 1.98137 14 3.1875 14H12.5938C12.9561 14 13.25 13.7061 13.25 13.3438C13.25 12.9814 12.9561 12.6875 12.5938 12.6875H12.375V10.8568C12.8836 10.675 13.25 10.1938 13.25 9.625ZM11.0625 12.6875H3.1875C2.70516 12.6875 2.3125 12.2954 2.3125 11.8125C2.3125 11.3296 2.70516 10.9375 3.1875 10.9375H11.0625V12.6875ZM11.9375 9.625H3.1875C2.87633 9.625 2.58047 9.68994 2.3125 9.80787V2.1875C2.3125 1.70461 2.70516 1.3125 3.1875 1.3125H11.9375V9.625ZM5.15625 4.375H9.96875C10.3324 4.375 10.625 4.08242 10.625 3.71875C10.625 3.35508 10.3324 3.0625 9.96875 3.0625H5.15625C4.79531 3.0625 4.5 3.35781 4.5 3.71875C4.5 4.07969 4.79531 4.375 5.15625 4.375ZM5.15625 6.5625H9.96875C10.3324 6.5625 10.625 6.26992 10.625 5.90625C10.625 5.54258 10.3324 5.25 9.96875 5.25H5.15625C4.79531 5.25 4.5 5.54531 4.5 5.90625C4.5 6.26719 4.79531 6.5625 5.15625 6.5625Z" fill="#798195"/>
</g>
<defs>
<clipPath id="clip0_4557_6472">
<rect width="12.25" height="14" fill="white" transform="translate(1)"/>
</clipPath>
</defs>
</svg>
