<svg width="14" height="14" viewBox="0 0 14 14" fill="none" xmlns="http://www.w3.org/2000/svg">
<g clip-path="url(#clip0_4569_6608)">
<path d="M3.81643 13.5899C4.07346 13.8469 4.48909 13.8469 4.74338 13.5899C4.99768 13.3328 5.00041 12.9172 4.74338 12.6629L3.23948 11.159L12.5938 11.1563C12.9574 11.1563 13.25 10.8637 13.25 10.5C13.25 10.1364 12.9574 9.84377 12.5938 9.84377H3.23948L4.74338 8.33987C5.00041 8.08284 5.00041 7.66721 4.74338 7.41291C4.48635 7.15862 4.07073 7.15588 3.81643 7.41291L1.19143 10.0352C0.934399 10.2922 0.934399 10.7078 1.19143 10.9621L3.81643 13.5871V13.5899ZM13.0586 3.96487C13.3156 3.70784 13.3156 3.29221 13.0586 3.03791L10.4336 0.410181C10.1766 0.153149 9.76096 0.153149 9.50667 0.410181C9.25237 0.667212 9.24963 1.08284 9.50667 1.33713L11.0106 2.84104L1.65627 2.84377C1.2926 2.84377 1.00002 3.13635 1.00002 3.50002C1.00002 3.8637 1.2926 4.15627 1.65627 4.15627H11.0106L9.50667 5.66018C9.24963 5.91721 9.24963 6.33284 9.50667 6.58713C9.7637 6.84143 10.1793 6.84416 10.4336 6.58713L13.0586 3.96213V3.96487Z" fill="#798195"/>
</g>
<defs>
<clipPath id="clip0_4569_6608">
<rect width="12.25" height="14" fill="white" transform="translate(1)"/>
</clipPath>
</defs>
</svg>
