<svg width="14" height="14" viewBox="0 0 14 14" fill="none" xmlns="http://www.w3.org/2000/svg">
<g clip-path="url(#clip0_4556_6398)">
<path d="M5.6 1C5.21281 1 4.9 1.31281 4.9 1.7C4.9 2.16594 4.9 2.63406 4.9 3.1C4.9 3.48719 5.21281 3.8 5.6 3.8C5.98719 3.8 6.3 3.48719 6.3 3.1C6.3 2.88563 6.3 2.67344 6.3 2.45906C7.88812 2.72594 9.17437 3.88313 9.625 5.39906C10.01 5.27 10.4212 5.2 10.85 5.2C10.9091 5.2 10.9659 5.20219 11.025 5.20437C10.4037 2.78719 8.21187 1 5.6 1ZM5.6 10.8C3.28125 10.8 1.4 8.91875 1.4 6.6C1.4 5.42531 1.88125 4.36219 2.66 3.60094C2.93562 3.32969 2.94 2.88781 2.67094 2.61C2.40188 2.33219 1.95781 2.33 1.68 2.59906C0.645313 3.61625 0 5.03375 0 6.6C0 9.69312 2.50688 12.2 5.6 12.2C6.46406 12.2 7.28437 12.0031 8.015 11.6531C7.69562 11.3075 7.43969 10.9006 7.26469 10.4566C6.755 10.6775 6.19062 10.8 5.6 10.8ZM4.22187 4.47812C4.01625 4.2725 3.68375 4.2725 3.48031 4.47812C3.27688 4.68375 3.27469 5.01625 3.48031 5.21969C4.06437 5.80375 4.64625 6.38562 5.23031 6.96969C5.43594 7.17531 5.76844 7.17531 5.97187 6.96969C6.17531 6.76406 6.1775 6.43156 5.97187 6.22813C5.38781 5.64406 4.80594 5.06219 4.22187 4.47812ZM10.85 5.9C9.72563 5.9 8.68437 6.49937 8.12219 7.475C7.56 8.45062 7.56 9.64937 8.12219 10.625C8.68437 11.6006 9.72563 12.2 10.85 12.2C11.9744 12.2 13.0156 11.6006 13.5778 10.625C14.14 9.64937 14.14 8.45062 13.5778 7.475C13.0156 6.49937 11.9744 5.9 10.85 5.9ZM10.4278 10.5222L9.20281 9.29719C9.065 9.16156 9.065 8.93844 9.20281 8.80281C9.61188 8.39375 10.0188 7.98688 10.4278 7.57781C10.5634 7.44219 10.7866 7.44219 10.9222 7.57781C11.0578 7.71344 11.0578 7.93656 10.9222 8.07219C10.7122 8.28219 10.5044 8.49 10.2944 8.7C10.9462 8.7 11.5981 8.7 12.25 8.7C12.4425 8.7 12.6 8.8575 12.6 9.05C12.6 9.2425 12.4425 9.4 12.25 9.4C11.5981 9.4 10.9462 9.4 10.2944 9.4C10.5044 9.61 10.7122 9.81781 10.9222 10.0278C11.0578 10.1634 11.0578 10.3866 10.9222 10.5222C10.7866 10.6578 10.5634 10.6578 10.4278 10.5222Z" fill="#798195"/>
</g>
<defs>
<clipPath id="clip0_4556_6398">
<rect width="14" height="14" fill="white"/>
</clipPath>
</defs>
</svg>
