<svg width="14" height="14" viewBox="0 0 14 14" fill="none" xmlns="http://www.w3.org/2000/svg">
<g clip-path="url(#clip0_4572_6914)">
<g clip-path="url(#clip1_4572_6914)">
<path d="M0 1.53125V13.3438C0 13.7074 0.293945 14 0.65625 14C1.01855 14 1.3125 13.7061 1.3125 13.3438V1.53125C1.3125 1.41077 1.41077 1.3125 1.53125 1.3125H3.0625V0H1.53125C0.687148 0 0 0.686875 0 1.53125ZM12.4688 0H3.9375V10.9375C3.9375 11.9022 4.72227 12.6875 5.6875 12.6875C6.1034 12.6875 6.48074 12.5356 6.78125 12.2924C7.05742 12.5344 7.45937 12.6875 7.875 12.6875C8.29062 12.6875 8.66824 12.5356 8.96875 12.2924C9.24492 12.5344 9.64688 12.6875 10.0625 12.6875C10.4781 12.6875 10.8557 12.5356 11.1562 12.2924C11.4324 12.5344 11.8344 12.6875 12.25 12.6875C12.4019 12.6875 12.547 12.662 12.6875 12.6254V13.3438C12.6875 13.7061 12.9814 14 13.3438 14C13.7061 14 14 13.7074 14 13.3438V1.53125C14 0.686875 13.3137 0 12.4688 0ZM6.125 10.9375C6.125 11.1781 5.92812 11.375 5.6875 11.375C5.44688 11.375 5.25 11.1781 5.25 10.9375V1.3125H6.125V10.9375ZM8.3125 10.9375C8.3125 11.1785 8.11639 11.375 7.875 11.375C7.63361 11.375 7.4375 11.1785 7.4375 10.9375V1.3125H8.3125V10.9375ZM10.5 10.9375C10.5 11.1785 10.3039 11.375 10.0625 11.375C9.82111 11.375 9.625 11.1781 9.625 10.9375V1.3125H10.5V10.9375ZM12.6875 10.9375C12.6875 11.1785 12.4914 11.375 12.25 11.375C12.0086 11.375 11.8125 11.1785 11.8125 10.9375V1.3125H12.4688C12.5892 1.3125 12.6875 1.41077 12.6875 1.53125V10.9375Z" fill="#798195"/>
</g>
</g>
<defs>
<clipPath id="clip0_4572_6914">
<rect width="14" height="14" fill="white"/>
</clipPath>
<clipPath id="clip1_4572_6914">
<rect width="14" height="14" fill="white"/>
</clipPath>
</defs>
</svg>
