<svg width="14" height="14" viewBox="0 0 14 14" fill="none" xmlns="http://www.w3.org/2000/svg">
<path d="M12.6831 6.85589C13.919 5.61995 13.919 3.61839 12.6831 2.38245C11.5893 1.2887 9.86559 1.14651 8.60778 2.04558L8.57278 2.06964C8.25778 2.29495 8.1856 2.73245 8.41091 3.04526C8.63622 3.35808 9.07372 3.43245 9.38653 3.20714L9.42153 3.18308C10.1237 2.68214 11.084 2.76089 11.6922 3.3712C12.3812 4.06026 12.3812 5.17589 11.6922 5.86495L9.23778 8.3237C8.54872 9.01276 7.43309 9.01276 6.74403 8.3237C6.13372 7.71339 6.05497 6.75308 6.55591 6.05308L6.57997 6.01808C6.80528 5.70308 6.73091 5.26558 6.4181 5.04245C6.10528 4.81933 5.6656 4.89151 5.44247 5.20433L5.41841 5.23933C4.51716 6.49495 4.65935 8.2187 5.7531 9.31245C6.98903 10.5484 8.99059 10.5484 10.2265 9.31245L12.6831 6.85589ZM1.31685 6.34401C0.0809082 7.57995 0.0809082 9.58151 1.31685 10.8175C2.4106 11.9112 4.13435 12.0534 5.39216 11.1543L5.42716 11.1303C5.74216 10.905 5.81435 10.4675 5.58903 10.1546C5.36372 9.84183 4.92622 9.76745 4.61341 9.99276L4.57841 10.0168C3.87622 10.5178 2.91591 10.439 2.30778 9.8287C1.61872 9.13745 1.61872 8.02183 2.30778 7.33276L4.76216 4.8762C5.45122 4.18714 6.56685 4.18714 7.25591 4.8762C7.86622 5.48651 7.94497 6.44683 7.44403 7.14901L7.41997 7.18401C7.19466 7.49901 7.26903 7.93651 7.58185 8.15964C7.89466 8.38276 8.33435 8.31058 8.55747 7.99776L8.58153 7.96276C9.48278 6.70495 9.3406 4.9812 8.24685 3.88745C7.01091 2.65151 5.00935 2.65151 3.77341 3.88745L1.31685 6.34401Z" fill="#798195"/>
</svg>
