<svg width="14" height="14" viewBox="0 0 14 14" fill="none" xmlns="http://www.w3.org/2000/svg">
<g clip-path="url(#clip0_4541_6002)">
<path d="M9.4375 5.25C9.4375 6.45859 8.45859 7.4375 7.25 7.4375C6.04141 7.4375 5.0625 6.45859 5.0625 5.25C5.0625 4.04141 6.04141 3.0625 7.25 3.0625C8.45859 3.0625 9.4375 4.04141 9.4375 5.25ZM7.25 4.375C6.76602 4.375 6.375 4.76602 6.375 5.25C6.375 5.73398 6.76602 6.125 7.25 6.125C7.73398 6.125 8.125 5.73398 8.125 5.25C8.125 4.76602 7.73398 4.375 7.25 4.375ZM12.5 5.25C12.5 7.63984 9.30078 11.8945 7.89805 13.65C7.56172 14.0684 6.93828 14.0684 6.60195 13.65C5.17461 11.8945 2 7.63984 2 5.25C2 2.35047 4.35047 0 7.25 0C10.1484 0 12.5 2.35047 12.5 5.25ZM7.25 1.3125C5.07617 1.3125 3.3125 3.07617 3.3125 5.25C3.3125 5.58906 3.43527 6.11406 3.73086 6.81406C4.01742 7.49219 4.4243 8.24141 4.89297 8.99883C5.66953 10.2621 6.57188 11.4598 7.25 12.3512C7.92812 11.4598 8.83047 10.2621 9.60703 8.99883C10.0746 8.24141 10.482 7.49219 10.7691 6.81406C11.0645 6.11406 11.1875 5.58906 11.1875 5.25C11.1875 3.07617 9.42383 1.3125 7.25 1.3125Z" fill="#798195"/>
</g>
<defs>
<clipPath id="clip0_4541_6002">
<rect width="10.5" height="14" fill="white" transform="translate(2)"/>
</clipPath>
</defs>
</svg>
