<svg width="14" height="14" viewBox="0 0 14 14" fill="none" xmlns="http://www.w3.org/2000/svg">
<path d="M13.7472 1.8808C13.9052 1.98969 14 2.1693 14 2.36108V10.5277C14 10.7489 13.8493 10.9871 13.6233 11.0722L9.53993 12.6277C9.41597 12.6764 9.27743 12.6788 9.14861 12.6375L4.67882 11.1475L0.790903 12.6277C0.611771 12.6958 0.410278 12.6715 0.252292 12.5645C0.0943542 12.4552 0 12.2753 0 12.0833V3.91663C0 3.67358 0.149479 3.45726 0.375764 3.37146L4.46007 1.8159C4.58403 1.76802 4.72257 1.7651 4.85139 1.80764L9.32118 3.29733L13.2101 1.8159C13.3875 1.7476 13.5892 1.77191 13.7472 1.8808ZM1.16667 11.2375L4.08333 10.1267V3.20764L1.16667 4.31767V11.2375ZM8.75 4.33712L5.25 3.17045V10.1073L8.75 11.2739V4.33712ZM9.91667 11.2375L12.8333 10.1267V3.20764L9.91667 4.31767V11.2375Z" fill="#798195"/>
</svg>
