<svg width="14" height="14" viewBox="0 0 14 14" fill="none" xmlns="http://www.w3.org/2000/svg">
<path d="M12.6831 6.85595C13.919 5.62001 13.919 3.61845 12.6831 2.38251C11.5893 1.28876 9.86559 1.14658 8.60778 2.04564L8.57278 2.0697C8.25778 2.29501 8.1856 2.73251 8.41091 3.04533C8.63622 3.35814 9.07372 3.43251 9.38653 3.2072L9.42153 3.18314C10.1237 2.6822 11.084 2.76095 11.6922 3.37126C12.3812 4.06033 12.3812 5.17595 11.6922 5.86501L9.23778 8.32376C8.54872 9.01283 7.43309 9.01283 6.74403 8.32376C6.13372 7.71345 6.05497 6.75314 6.55591 6.05314L6.57997 6.01814C6.80528 5.70314 6.73091 5.26564 6.4181 5.04251C6.10528 4.81939 5.6656 4.89158 5.44247 5.20439L5.41841 5.23939C4.51716 6.49501 4.65935 8.21876 5.7531 9.31251C6.98903 10.5485 8.99059 10.5485 10.2265 9.31251L12.6831 6.85595ZM1.31685 6.34408C0.0809082 7.58001 0.0809082 9.58158 1.31685 10.8175C2.4106 11.9113 4.13435 12.0535 5.39216 11.1544L5.42716 11.1303C5.74216 10.905 5.81435 10.4675 5.58903 10.1547C5.36372 9.84189 4.92622 9.76751 4.61341 9.99283L4.57841 10.0169C3.87622 10.5178 2.91591 10.4391 2.30778 9.82876C1.61872 9.13751 1.61872 8.02189 2.30778 7.33283L4.76216 4.87626C5.45122 4.1872 6.56685 4.1872 7.25591 4.87626C7.86622 5.48658 7.94497 6.44689 7.44403 7.14908L7.41997 7.18408C7.19466 7.49908 7.26903 7.93658 7.58185 8.1597C7.89466 8.38283 8.33435 8.31064 8.55747 7.99783L8.58153 7.96283C9.48278 6.70501 9.3406 4.98126 8.24685 3.88751C7.01091 2.65158 5.00935 2.65158 3.77341 3.88751L1.31685 6.34408Z" fill="#798195"/>
</svg>
