<svg width="14" height="14" viewBox="0 0 14 14" fill="none" xmlns="http://www.w3.org/2000/svg">
<g clip-path="url(#clip0_4541_6016)">
<g clip-path="url(#clip1_4541_6016)">
<path d="M7.56875 4.04141C7.83398 4.07422 8.09922 4.14805 8.36172 4.22187C8.41094 4.23555 8.46289 4.25195 8.51211 4.24102C8.82656 4.35313 9.0125 4.67852 8.925 4.99297C8.8375 5.30742 8.51211 5.49063 8.19766 5.40313C8.15664 5.39219 8.11289 5.38125 8.07188 5.36758C7.88047 5.31563 7.68906 5.26094 7.49492 5.22266C7.13398 5.1543 6.71562 5.18711 6.37656 5.33203C6.07578 5.46328 5.82695 5.78047 6.16875 5.99922C6.43945 6.17148 6.76484 6.25898 7.07656 6.31914C7.13945 6.36016 7.20508 6.3793 7.26797 6.3957C7.69453 6.51875 8.23867 6.67188 8.64609 6.95078C9.17656 7.31445 9.42539 7.90781 9.31055 8.54219C9.1957 9.15469 8.77188 9.55664 8.25781 9.76172C8.04453 9.84922 7.81211 9.90391 7.56875 9.93125V10.3469C7.56875 10.6723 7.30352 10.9375 6.97813 10.9375C6.65273 10.9375 6.3875 10.6723 6.3875 10.3469V9.87109C5.99102 9.78359 5.60273 9.65508 5.21719 9.5293C4.9082 9.42813 4.73867 9.0918 4.84258 8.78281C4.94375 8.47383 5.28008 8.3043 5.58906 8.4082C5.65742 8.43008 5.72578 8.45469 5.79414 8.47656C6.10312 8.58047 6.42031 8.68984 6.7375 8.73906C7.20234 8.80742 7.54961 8.76641 7.81758 8.64336C8.1457 8.53398 8.29883 8.1457 7.97891 7.92695C7.70273 7.71367 7.36094 7.64531 7.03555 7.55781C6.94805 7.53867 6.90977 7.52227 6.84961 7.50586C6.43672 7.38828 5.92266 7.24336 5.53437 6.99453C5.00117 6.65273 4.72773 6.08398 4.84258 5.45234C4.95195 4.85625 5.4168 4.45977 5.90898 4.24922C6.05938 4.15898 6.2207 4.13164 6.3875 4.09336V3.65313C6.3875 3.32773 6.65273 3.03789 6.97813 3.03789C7.30352 3.03789 7.56875 3.32773 7.56875 3.65313V4.04141ZM14 7C14 10.8664 10.8664 14 7 14C3.13359 14 0 10.8664 0 7C0 3.13359 3.13359 0 7 0C10.8664 0 14 3.13359 14 7ZM7 1.3125C3.8582 1.3125 1.3125 3.8582 1.3125 7C1.3125 10.1418 3.8582 12.6875 7 12.6875C10.1418 12.6875 12.6875 10.1418 12.6875 7C12.6875 3.8582 10.1418 1.3125 7 1.3125Z" fill="#798195"/>
</g>
</g>
<defs>
<clipPath id="clip0_4541_6016">
<rect width="14" height="14" fill="white"/>
</clipPath>
<clipPath id="clip1_4541_6016">
<rect width="14" height="14" fill="white"/>
</clipPath>
</defs>
</svg>
