<svg width="14" height="12" viewBox="0 0 14 12" fill="none" xmlns="http://www.w3.org/2000/svg">
<g clip-path="url(#clip0_4579_7374)">
<path d="M9.1 1.38031V5.6C9.1 6.37219 8.47219 6.99781 7.7 6.99781L4.9 7L2.51781 8.3475C2.46969 8.38469 2.415 8.4 2.3625 8.4C2.22688 8.4 2.1 8.29281 2.1 8.1375V7H1.4C0.628906 7 0 6.37219 0 5.6V1.38031C0 0.628906 0.628906 0 1.4 0H7.7C8.47219 0 9.1 0.628906 9.1 1.38031ZM3.15 6.78344L4.62437 5.95H7.7C7.89031 5.95 8.05 5.7925 8.05 5.6V1.4C8.05 1.20859 7.89031 1.05 7.7 1.05H1.4C1.20859 1.05 1.05 1.20859 1.05 1.4V5.6C1.05 5.7925 1.20859 5.95 1.4 5.95H3.15V6.78344ZM5.6 8.4V7.7H6.65V8.4C6.65 8.59031 6.8075 8.75 7 8.75H9.37562L10.85 9.58344V8.75H12.6C12.7903 8.75 12.95 8.59031 12.95 8.4V4.2C12.95 4.00969 12.7903 3.85 12.6 3.85H9.8V2.8H12.6C13.3722 2.8 14 3.42781 14 4.18031V8.4C14 9.17219 13.3722 9.8 12.6 9.8H11.9V10.9375C11.9 11.0928 11.7731 11.2 11.6375 11.2C11.585 11.2 11.5303 11.1847 11.4822 11.1475L9.1 9.8L7 9.79781C6.23 9.79781 5.6 9.17219 5.6 8.4Z" fill="#798195"/>
</g>
<defs>
<clipPath id="clip0_4579_7374">
<rect width="14" height="11.2" fill="white"/>
</clipPath>
</defs>
</svg>
