<svg width="14" height="14" viewBox="0 0 14 14" fill="none" xmlns="http://www.w3.org/2000/svg">
<g clip-path="url(#clip0_4556_6384)">
<path d="M5.6 1C5.21281 1 4.9 1.31281 4.9 1.7C4.9 2.16594 4.9 2.63406 4.9 3.1C4.9 3.48719 5.21281 3.8 5.6 3.8C5.98719 3.8 6.3 3.48719 6.3 3.1C6.3 2.88563 6.3 2.67344 6.3 2.45906C7.88812 2.72594 9.17437 3.88313 9.625 5.39906C10.01 5.27 10.4212 5.2 10.85 5.2C10.9091 5.2 10.9659 5.20219 11.025 5.20437C10.4037 2.78719 8.21187 1 5.6 1ZM5.6 10.8C3.28125 10.8 1.4 8.91875 1.4 6.6C1.4 5.42531 1.88125 4.36219 2.66 3.60094C2.93562 3.32969 2.94 2.88781 2.67094 2.61C2.40188 2.33219 1.95781 2.33 1.68 2.59906C0.645313 3.61625 0 5.03375 0 6.6C0 9.69312 2.50688 12.2 5.6 12.2C6.46406 12.2 7.28437 12.0031 8.015 11.6531C7.69562 11.3075 7.43969 10.9006 7.26469 10.4566C6.755 10.6775 6.19062 10.8 5.6 10.8ZM4.22187 4.47812C4.01625 4.2725 3.68375 4.2725 3.48031 4.47812C3.27688 4.68375 3.27469 5.01625 3.48031 5.21969C4.06437 5.80375 4.64625 6.38562 5.23031 6.96969C5.43594 7.17531 5.76844 7.17531 5.97187 6.96969C6.17531 6.76406 6.1775 6.43156 5.97187 6.22813C5.38781 5.64406 4.80594 5.06219 4.22187 4.47812ZM7.7 9.05C7.7 7.31094 9.11094 5.9 10.85 5.9C12.5891 5.9 14 7.31094 14 9.05C14 10.7891 12.5891 12.2 10.85 12.2C9.11094 12.2 7.7 10.7891 7.7 9.05ZM10.7778 7.57781C10.6422 7.71344 10.6422 7.93656 10.7778 8.07219C10.9878 8.28219 11.1956 8.49 11.4056 8.7C10.7538 8.7 10.1019 8.7 9.45 8.7C9.2575 8.7 9.1 8.8575 9.1 9.05C9.1 9.2425 9.2575 9.4 9.45 9.4C10.1019 9.4 10.7538 9.4 11.4056 9.4C11.1956 9.61 10.9878 9.81781 10.7778 10.0278C10.6422 10.1634 10.6422 10.3866 10.7778 10.5222C10.9134 10.6578 11.1366 10.6578 11.2722 10.5222C11.6812 10.1131 12.0881 9.70625 12.4972 9.29719C12.6328 9.16156 12.6328 8.93844 12.4972 8.80281C12.0881 8.39375 11.6812 7.98688 11.2722 7.57781C11.1366 7.44219 10.9134 7.44219 10.7778 7.57781Z" fill="#798195"/>
</g>
<defs>
<clipPath id="clip0_4556_6384">
<rect width="14" height="14" fill="white"/>
</clipPath>
</defs>
</svg>
