<svg width="14" height="14" viewBox="0 0 14 14" fill="none" xmlns="http://www.w3.org/2000/svg">
<path d="M13.7934 5.58299C14.0389 5.79201 14.0705 6.15903 13.8615 6.40451C13.6524 6.65 13.2854 6.6816 13.0399 6.47257L12.4444 5.96701V10.5C12.4444 11.5743 11.5743 12.4444 10.5 12.4444H3.5C2.42618 12.4444 1.55555 11.5743 1.55555 10.5V5.96701L0.960797 6.47257C0.715068 6.6816 0.347082 6.65 0.138541 6.40451C-0.0698795 6.15903 -0.0397163 5.79201 0.20594 5.58299L6.62326 0.138542C6.83958 -0.0461806 7.16042 -0.0461806 7.37673 0.138542L13.7934 5.58299ZM3.5 11.2778H4.66667V7.58333C4.66667 7.04618 5.10173 6.61111 5.63889 6.61111H8.36111C8.89826 6.61111 9.33333 7.04618 9.33333 7.58333V11.2778H10.5C10.9302 11.2778 11.2778 10.9302 11.2778 10.5V4.97778L7 1.34823L2.72222 4.97778V10.5C2.72222 10.9302 3.06979 11.2778 3.5 11.2778ZM5.83333 11.2778H8.16667V7.77778H5.83333V11.2778Z" fill="#798195"/>
</svg>
