<svg width="18" height="18" viewBox="0 0 18 18" fill="none" xmlns="http://www.w3.org/2000/svg">
<path fill-rule="evenodd" clip-rule="evenodd" d="M2.0625 14.3679C1.95 14.7735 2.295 15.0732 2.6775 14.9531L4.1925 14.5031C4.605 14.3679 4.9275 14.54 5.31 14.7735C6.405 15.4187 7.77 15.75 9 15.75C12.72 15.75 16.5 12.8731 16.5 8.23875C16.5 4.24198 13.275 0.75 9.015 0.75C4.6575 0.75 1.5 4.30959 1.5 8.26125C1.5 9.52313 1.8675 10.8218 2.5125 12.0086C2.6325 12.2047 2.6475 12.4518 2.565 12.6854L2.0625 14.3679ZM5.87317 13.7992C5.50987 13.577 4.78514 13.1336 3.85974 13.4284L3.48387 13.54L3.63661 13.0286C3.79909 12.5433 3.78946 11.963 3.49077 11.4526C2.92809 10.4108 2.625 9.30228 2.625 8.26125C2.625 4.8917 5.31732 1.875 9.015 1.875C12.6274 1.875 15.375 4.83666 15.375 8.23875C15.375 12.1664 12.1877 14.625 9 14.625C7.95288 14.625 6.79225 14.339 5.88846 13.8086L5.87317 13.7992ZM7.14775 10.7235C6.92808 10.5039 6.57192 10.5039 6.35225 10.7235C6.13258 10.9432 6.13258 11.2994 6.35225 11.519C7.7435 12.9103 9.99915 12.9103 11.3904 11.519C11.6101 11.2994 11.6101 10.9432 11.3904 10.7235C11.1707 10.5039 10.8146 10.5039 10.5949 10.7235C9.64299 11.6754 8.09965 11.6754 7.14775 10.7235Z" fill="#A9B0C0"/>
</svg>
