<svg width="18" height="18" viewBox="0 0 18 18" fill="none" xmlns="http://www.w3.org/2000/svg">
<path fill-rule="evenodd" clip-rule="evenodd" d="M6 6.375H6.76666C7.45115 6.375 8.06385 5.9504 8.30419 5.30949L8.87219 3.79482C8.96689 3.5423 9.2083 3.375 9.478 3.375C9.83533 3.375 10.125 3.66467 10.125 4.022V5.0431C10.125 5.77869 10.7213 6.375 11.4569 6.375H14.5111C14.8301 6.375 15.0693 6.66686 15.0068 6.97968L13.8836 12.5956C13.7784 13.1215 13.3167 13.5 12.7804 13.5H6V6.375ZM5.96249 5.25H6H6.76666C6.9822 5.25 7.17514 5.1163 7.25082 4.91447L7.81882 3.39981C8.07818 2.70819 8.73935 2.25 9.478 2.25C10.4566 2.25 11.25 3.04335 11.25 4.022V5.0431C11.25 5.15737 11.3426 5.25 11.4569 5.25H14.5111C15.54 5.25 16.3117 6.19135 16.1099 7.20031L14.9867 12.8163C14.7764 13.868 13.853 14.625 12.7804 14.625H6H5.84398C5.55465 15.2872 4.89387 15.75 4.125 15.75C3.08947 15.75 2.25 14.9105 2.25 13.875V5.625C2.25 4.58947 3.08947 3.75 4.125 3.75C5.03211 3.75 5.78877 4.39416 5.96249 5.25ZM4.875 5.625C4.875 5.21079 4.53921 4.875 4.125 4.875C3.71079 4.875 3.375 5.21079 3.375 5.625V13.875C3.375 14.2892 3.71079 14.625 4.125 14.625C4.53921 14.625 4.875 14.2892 4.875 13.875V13.5V6.375V5.625Z"  fill="#FF6E69"/>
</svg>
