<svg width="16" height="14" viewBox="0 0 16 14" fill="none" xmlns="http://www.w3.org/2000/svg">
<path d="M14 14H2C0.896875 14 0 13.1031 0 12V2C0 0.896875 0.896875 0 2 0H5.67188C6.20312 0 6.7125 0.209375 7.0875 0.584375L7.91563 1.4125C8.29062 1.7875 8.8 1.99688 9.33125 1.99688H14C15.1031 1.99688 16 2.89375 16 3.99687V12C16 13.1031 15.1031 14 14 14ZM9 4.5V9.5C9 9.69063 9.10625 9.8625 9.275 9.94687C9.44375 10.0312 9.64688 10.0125 9.8 9.9L11.5 8.625L13.2 9.9C13.35 10.0125 13.5531 10.0312 13.725 9.94687C13.8969 9.8625 14 9.69063 14 9.5V4.5C14 4.225 13.775 4 13.5 4H9.5C9.225 4 9 4.225 9 4.5Z" fill="#FFD036"/>
</svg>
