<svg width="8" height="8" viewBox="0 0 8 8" fill="none" xmlns="http://www.w3.org/2000/svg">
<path fill-rule="evenodd" clip-rule="evenodd" d="M4.51161 0.400024C4.64566 0.400024 4.75428 0.509874 4.75428 0.645277L4.75325 3.15197L6.98202 2.421C7.10952 2.37917 7.24637 2.4495 7.28781 2.57827L7.58796 3.51095C7.62938 3.63972 7.5596 3.77811 7.43211 3.81995L5.18644 4.55556L6.67343 6.62307C6.75222 6.73261 6.72825 6.88586 6.6198 6.96544L5.8343 7.54184C5.72585 7.62142 5.57398 7.59721 5.49519 7.48767L3.95827 5.34982L2.41306 7.49889C2.33427 7.60843 2.1824 7.6328 2.07395 7.55321L1.28845 6.97681C1.18 6.89723 1.15603 6.74384 1.23482 6.6343L2.75796 4.51396L0.5677 3.79556C0.440206 3.75372 0.370423 3.61548 0.411845 3.48671L0.71185 2.55403C0.753272 2.42526 0.890139 2.35478 1.01763 2.39661L3.29678 3.14345L3.29797 0.645277C3.29797 0.509874 3.40658 0.400024 3.54064 0.400024H4.51161Z" fill="#F53F3F"/>
</svg>
