<svg width="20" height="20" viewBox="0 0 20 20" fill="none" xmlns="http://www.w3.org/2000/svg">
<path fill-rule="evenodd" clip-rule="evenodd" d="M8.74999 0.833344C4.37776 0.833344 0.833328 4.37777 0.833328 8.75001C0.833328 13.1222 4.37776 16.6667 8.74999 16.6667C10.6359 16.6667 12.3678 16.0072 13.7277 14.9063L16.7886 17.9672L16.8672 18.0365C17.1941 18.2907 17.6668 18.2676 17.9672 17.9672C18.2926 17.6418 18.2926 17.1142 17.9672 16.7887L14.9062 13.7278C16.0072 12.3679 16.6667 10.636 16.6667 8.75001C16.6667 4.37777 13.1222 0.833344 8.74999 0.833344ZM8.74999 2.50001C12.2018 2.50001 15 5.29825 15 8.75001C15 12.2018 12.2018 15 8.74999 15C5.29823 15 2.49999 12.2018 2.49999 8.75001C2.49999 5.29825 5.29823 2.50001 8.74999 2.50001Z" fill="#B9B9BD"/>
</svg>
