<svg width="16" height="16" viewBox="0 0 16 16" fill="none" xmlns="http://www.w3.org/2000/svg">
<path fill-rule="evenodd" clip-rule="evenodd" d="M11.2387 1.47589C11.1555 1.1966 10.8975 1 10.5998 1H5.39985L5.31975 1.00479C5.03042 1.03959 4.79306 1.26064 4.74277 1.55402L4.43774 3.33333H3.66669H1.99999L1.92225 3.33782C1.59069 3.37633 1.33333 3.65811 1.33333 4C1.33333 4.36819 1.63181 4.66667 1.99999 4.66667H3.04165L3.66807 14.3763C3.6907 14.7271 3.98183 15 4.33336 15H11.6667C12.0182 15 12.3093 14.7271 12.332 14.3763L12.9584 4.66667H14L14.0777 4.66218C14.4093 4.62367 14.6667 4.34189 14.6667 4C14.6667 3.63181 14.3682 3.33333 14 3.33333H12.3334H11.562L11.2569 1.55402L11.2387 1.47589ZM10.2092 3.33333H5.79019L5.96118 2.33333H10.0379L10.2092 3.33333ZM4.95794 13.6667L4.37727 4.66667H11.6219L11.0413 13.6667H4.95794ZM10.3333 11.6667C10.3333 11.2985 10.0349 11 9.66666 11H6.33333L6.25558 11.0045C5.92402 11.043 5.66666 11.3248 5.66666 11.6667C5.66666 12.0349 5.96514 12.3333 6.33333 12.3333H9.66666L9.74441 12.3288C10.076 12.2903 10.3333 12.0086 10.3333 11.6667Z" fill="#888889"/>
</svg>
