<svg width="14" height="12" viewBox="0 0 14 12" fill="none" xmlns="http://www.w3.org/2000/svg">
<path fill-rule="evenodd" clip-rule="evenodd" d="M4.66667 8.04167H5.26296C5.79534 8.04167 6.27188 8.37191 6.45882 8.8704L6.90059 10.0485C6.97425 10.2449 7.16201 10.375 7.37178 10.375C7.6497 10.375 7.875 10.1497 7.875 9.87178V9.07759C7.875 8.50546 8.3388 8.04167 8.91092 8.04167H11.2864C11.5345 8.04167 11.7206 7.81467 11.6719 7.57136L10.7984 3.2034C10.7166 2.7944 10.3574 2.5 9.94034 2.5H4.66667V8.04167ZM4.6375 8.91667H4.66667H5.26296C5.4306 8.91667 5.58066 9.02066 5.63953 9.17763L6.08131 10.3557C6.28303 10.8936 6.79727 11.25 7.37178 11.25C8.13295 11.25 8.75 10.6329 8.75 9.87178V9.07759C8.75 8.98871 8.82205 8.91667 8.91092 8.91667H11.2864C12.0867 8.91667 12.6869 8.18451 12.53 7.39976L11.6564 3.0318C11.4928 2.2138 10.7745 1.625 9.94034 1.625H4.66667H4.54532C4.32028 1.10994 3.80634 0.749999 3.20833 0.749999C2.40292 0.749999 1.75 1.40292 1.75 2.20833V8.625C1.75 9.43042 2.40292 10.0833 3.20833 10.0833C3.91386 10.0833 4.50237 9.58232 4.6375 8.91667ZM3.79167 8.625C3.79167 8.94717 3.5305 9.20833 3.20833 9.20833C2.88617 9.20833 2.625 8.94717 2.625 8.625V2.20833C2.625 1.88617 2.88617 1.625 3.20833 1.625C3.5305 1.625 3.79167 1.88617 3.79167 2.20833V2.5V8.04167V8.625Z" fill="#A9B0C0"/>
</svg>
