<svg width="14" height="12" viewBox="0 0 14 12" fill="none" xmlns="http://www.w3.org/2000/svg">
<path fill-rule="evenodd" clip-rule="evenodd" d="M4.66667 3.95833H5.26296C5.79534 3.95833 6.27188 3.62809 6.45882 3.1296L6.90059 1.95153C6.97425 1.75512 7.16201 1.625 7.37178 1.625C7.6497 1.625 7.875 1.8503 7.875 2.12822V2.92241C7.875 3.49454 8.3388 3.95833 8.91092 3.95833H11.2864C11.5345 3.95833 11.7206 4.18533 11.6719 4.42864L10.7984 8.7966C10.7166 9.2056 10.3574 9.5 9.94034 9.5H4.66667V3.95833ZM4.6375 3.08333H4.66667H5.26296C5.4306 3.08333 5.58066 2.97934 5.63953 2.82237L6.08131 1.6443C6.28303 1.10637 6.79727 0.75 7.37178 0.75C8.13295 0.75 8.75 1.36705 8.75 2.12822V2.92241C8.75 3.01129 8.82205 3.08333 8.91092 3.08333H11.2864C12.0867 3.08333 12.6869 3.81549 12.53 4.60024L11.6564 8.9682C11.4928 9.7862 10.7745 10.375 9.94034 10.375H4.66667H4.54532C4.32028 10.8901 3.80634 11.25 3.20833 11.25C2.40292 11.25 1.75 10.5971 1.75 9.79167V3.375C1.75 2.56958 2.40292 1.91667 3.20833 1.91667C3.91386 1.91667 4.50237 2.41768 4.6375 3.08333ZM3.79167 3.375C3.79167 3.05283 3.5305 2.79167 3.20833 2.79167C2.88617 2.79167 2.625 3.05283 2.625 3.375V9.79167C2.625 10.1138 2.88617 10.375 3.20833 10.375C3.5305 10.375 3.79167 10.1138 3.79167 9.79167V9.5V3.95833V3.375Z" fill="#A9B0C0"/>
</svg>
