<svg width="24" height="24" viewBox="0 0 24 24" fill="none" xmlns="http://www.w3.org/2000/svg">
<g clip-path="url(#clip0_4541_6096)">
<circle cx="12" cy="12" r="12" fill="#F3F4F6"/>
<g clip-path="url(#clip1_4541_6096)">
<path d="M17.9133 13.1461L16.4777 7.31719C16.3945 6.98438 16.0945 6.75 15.75 6.75H8.25C7.9057 6.75 7.60617 6.98438 7.52273 7.31836L6.08719 13.1473C6.02925 13.3805 6 13.6219 6 13.8633V15.75C6 16.5785 6.67148 17.25 7.5 17.25H16.5C17.3285 17.25 18 16.5785 18 15.75V13.864C18 13.6219 17.9719 13.3805 17.9133 13.1461ZM8.54531 7.875H15.457L16.657 12.75H14.625C14.4119 12.75 14.217 12.8701 14.1218 13.0612L13.5281 14.25H10.4719L9.87891 13.0617C9.78281 12.8695 9.58828 12.75 9.375 12.75H7.34344L8.54531 7.875ZM16.875 15.75C16.875 15.9568 16.7068 16.125 16.5 16.125H7.5C7.29323 16.125 7.125 15.9568 7.125 15.75V13.875H9.02719L9.62203 15.0638C9.71719 15.2555 9.91172 15.375 10.125 15.375H13.875C14.0881 15.375 14.283 15.2549 14.3782 15.0638L14.9719 13.875H16.875V15.75ZM10.3125 10.125H13.6875C13.9992 10.125 14.25 9.87422 14.25 9.5625C14.25 9.25078 13.9992 9 13.6875 9H10.3125C10.0031 9 9.75 9.25312 9.75 9.5625C9.75 9.87188 10.0031 10.125 10.3125 10.125ZM14.4375 12C14.7492 12 15 11.7492 15 11.4375C15 11.1258 14.7492 10.875 14.4375 10.875H9.5625C9.25312 10.875 9 11.1281 9 11.4375C9 11.7469 9.25312 12 9.5625 12H14.4375Z" fill="#798195"/>
</g>
</g>
<defs>
<clipPath id="clip0_4541_6096">
<rect width="24" height="24" fill="white"/>
</clipPath>
<clipPath id="clip1_4541_6096">
<rect width="12" height="12" fill="white" transform="translate(6 6)"/>
</clipPath>
</defs>
</svg>
