<svg width="15" height="14" viewBox="0 0 15 14" fill="none" xmlns="http://www.w3.org/2000/svg">
<g clip-path="url(#clip0_4379_6256)">
<g clip-path="url(#clip1_4379_6256)">
<path d="M7.32188 0.139234C7.53516 0.0473594 7.76758 0 8 0C8.23242 0 8.44023 0.0473594 8.67812 0.139234L14.4012 2.59191C14.7648 2.74805 15 3.10352 15 3.5C15 3.89648 14.7648 4.25195 14.4012 4.40781L8.67812 6.86055C8.44023 6.95352 8.23242 7 8 7C7.76758 7 7.53516 6.95352 7.32188 6.86055L1.59883 4.40781C1.23554 4.25195 1 3.89648 1 3.5C1 3.10352 1.23554 2.74805 1.59883 2.59191L7.32188 0.139234ZM8 1.3125C7.9207 1.3125 7.86602 1.32371 7.83867 1.34559L2.8118 3.5L7.83867 5.65469C7.86602 5.67656 7.9207 5.6875 8 5.6875C8.05469 5.6875 8.10938 5.67656 8.16133 5.65469L13.1871 3.5L8.16133 1.34559C8.10938 1.32371 8.05469 1.3125 8 1.3125ZM7.83867 9.15469C7.86602 9.17656 7.9207 9.1875 8 9.1875C8.05469 9.1875 8.10938 9.17656 8.16133 9.15469L13.3594 6.92617C13.2336 6.7375 13.209 6.48594 13.3184 6.26992C13.4824 5.94453 13.8762 5.81328 14.1988 5.97461L14.4477 6.10039C14.7867 6.26992 15 6.61445 15 6.9918C15 7.39375 14.7621 7.75469 14.3957 7.91055L8.67812 10.3605C8.44023 10.4535 8.23242 10.5 8 10.5C7.76758 10.5 7.53516 10.4535 7.32188 10.3605L1.62371 7.91875C1.2453 7.75742 1.00002 7.38555 1.00002 6.97266C1.00002 6.6418 1.16048 6.33008 1.43094 6.13594L1.7123 5.93359C2.00734 5.72305 2.41723 5.79141 2.62777 6.08672C2.80879 6.34102 2.78391 6.68008 2.56133 6.9043L7.83867 9.15469ZM2.62777 9.58672C2.80879 9.84102 2.78391 10.1801 2.56133 10.4043L7.83867 12.6547C7.86602 12.6766 7.9207 12.6875 8 12.6875C8.05469 12.6875 8.10938 12.6766 8.16133 12.6547L13.3594 10.4262C13.2336 10.2375 13.209 9.98594 13.3184 9.76992C13.4824 9.44453 13.8762 9.31328 14.1988 9.47461L14.4477 9.60039C14.7867 9.76992 15 10.1145 15 10.4918C15 10.8938 14.7621 11.2547 14.3957 11.4105L8.67812 13.8605C8.44023 13.9535 8.23242 14 8 14C7.76758 14 7.53516 13.9535 7.32188 13.8605L1.62371 11.4187C1.2453 11.2574 1.00003 10.8855 1.00003 10.4727C1.00003 10.1418 1.16051 9.83008 1.43094 9.63594L1.7123 9.43359C2.00734 9.22305 2.41723 9.29141 2.62777 9.58672Z" fill="#798195"/>
</g>
</g>
<defs>
<clipPath id="clip0_4379_6256">
<rect width="14" height="14" fill="white" transform="translate(0.5)"/>
</clipPath>
<clipPath id="clip1_4379_6256">
<rect width="14" height="14" fill="white" transform="translate(1)"/>
</clipPath>
</defs>
</svg>
