<svg width="15" height="14" viewBox="0 0 15 14" fill="none" xmlns="http://www.w3.org/2000/svg">
<g clip-path="url(#clip0_4379_6251)">
<path d="M8.20234 0.440776C6.41953 0.384448 4.72422 1.04289 3.44207 2.28785C2.14926 3.54101 1.4375 5.22812 1.4375 7.03281C1.4375 10.2758 3.84074 13.0785 7.0293 13.5543C7.06211 13.5598 7.09219 13.5625 7.125 13.5625C7.44465 13.5625 7.72437 13.3288 7.77305 13.0033C7.82645 12.6448 7.57951 12.3107 7.22098 12.2574C4.67227 11.8754 2.75 9.63046 2.75 7.03281C2.75 5.58523 3.32039 4.23554 4.3559 3.22929C5.38211 2.23371 6.7143 1.70269 8.16215 1.75191C10.9668 1.83749 13.25 4.31757 13.25 7.28164V7.80253C13.25 8.47109 12.7105 9.0155 12.0469 9.0155C11.3832 9.0155 10.8438 8.47109 10.8438 7.80117V4.61289C10.8438 4.25058 10.5498 3.98125 10.1875 3.98125C9.86156 3.98125 9.60289 4.22337 9.55203 4.53496C9.05 4.15351 8.44297 3.93749 7.78125 3.93749C6.09277 3.93749 4.71875 5.31152 4.71875 6.97539C4.71875 8.63925 6.09277 10.0133 7.78125 10.0133C8.62207 10.0133 9.38414 9.67203 9.93813 9.12132C10.3868 9.81585 11.1623 10.2785 12.0469 10.2785C13.434 10.2785 14.5625 9.14539 14.5625 7.75304V7.28164C14.5625 3.61484 11.7078 0.52226 8.20234 0.440776ZM7.78125 8.75C6.81602 8.75 6.03125 7.96523 6.03125 7.0246C6.03125 6.05964 6.81602 5.29921 7.78125 5.29921C8.74648 5.29921 9.53125 6.08398 9.53125 7.0246C9.53125 7.96523 8.74648 8.75 7.78125 8.75Z" fill="#798195"/>
</g>
<defs>
<clipPath id="clip0_4379_6251">
<rect width="14" height="14" fill="white" transform="translate(0.5)"/>
</clipPath>
</defs>
</svg>
