<svg width="11" height="14" viewBox="0 0 11 14" fill="none" xmlns="http://www.w3.org/2000/svg">
<g clip-path="url(#clip0_4379_6247)">
<path d="M7.9375 5.25C7.9375 6.45859 6.95859 7.4375 5.75 7.4375C4.54141 7.4375 3.5625 6.45859 3.5625 5.25C3.5625 4.04141 4.54141 3.0625 5.75 3.0625C6.95859 3.0625 7.9375 4.04141 7.9375 5.25ZM5.75 4.375C5.26602 4.375 4.875 4.76602 4.875 5.25C4.875 5.73398 5.26602 6.125 5.75 6.125C6.23398 6.125 6.625 5.73398 6.625 5.25C6.625 4.76602 6.23398 4.375 5.75 4.375ZM11 5.25C11 7.63984 7.80078 11.8945 6.39805 13.65C6.06172 14.0684 5.43828 14.0684 5.10195 13.65C3.67461 11.8945 0.5 7.63984 0.5 5.25C0.5 2.35047 2.85047 0 5.75 0C8.64844 0 11 2.35047 11 5.25ZM5.75 1.3125C3.57617 1.3125 1.8125 3.07617 1.8125 5.25C1.8125 5.58906 1.93527 6.11406 2.23086 6.81406C2.51742 7.49219 2.9243 8.24141 3.39297 8.99883C4.16953 10.2621 5.07188 11.4598 5.75 12.3512C6.42812 11.4598 7.33047 10.2621 8.10703 8.99883C8.57461 8.24141 8.98203 7.49219 9.26914 6.81406C9.56445 6.11406 9.6875 5.58906 9.6875 5.25C9.6875 3.07617 7.92383 1.3125 5.75 1.3125Z" fill="#798195"/>
</g>
<defs>
<clipPath id="clip0_4379_6247">
<rect width="10.5" height="14" fill="white" transform="translate(0.5)"/>
</clipPath>
</defs>
</svg>
