<svg width="20" height="20" viewBox="0 0 20 20" fill="none" xmlns="http://www.w3.org/2000/svg">
<path d="M2.8 1C1.80589 1 1 1.80589 1 2.8V7.3C1 8.29411 1.80589 9.1 2.8 9.1H7.3C8.29411 9.1 9.1 8.29411 9.1 7.3V2.8C9.1 1.80589 8.29411 1 7.3 1H2.8Z" fill="#A9B0C0"/>
<path d="M2.8 10.9C1.80589 10.9 1 11.7059 1 12.7V17.2C1 18.1941 1.80589 19 2.8 19H7.3C8.29411 19 9.1 18.1941 9.1 17.2V12.7C9.1 11.7059 8.29411 10.9 7.3 10.9H2.8Z" fill="#A9B0C0"/>
<path d="M14.95 1C12.7132 1 10.9 2.81325 10.9 5.05C10.9 7.28676 12.7132 9.1 14.95 9.1C17.1868 9.1 19 7.28676 19 5.05C19 2.81325 17.1868 1 14.95 1Z" fill="#A9B0C0"/>
<path d="M12.7 10.9C11.7059 10.9 10.9 11.7059 10.9 12.7V17.2C10.9 18.1941 11.7059 19 12.7 19H17.2C18.1941 19 19 18.1941 19 17.2V12.7C19 11.7059 18.1941 10.9 17.2 10.9H12.7Z" fill="#A9B0C0"/>
</svg>
