<svg width="21" height="20" viewBox="0 0 21 20" fill="none" xmlns="http://www.w3.org/2000/svg">
<path fill-rule="evenodd" clip-rule="evenodd" d="M4.82353 1C4.36871 1 4 1.36631 4 1.81818V18.1818C4 18.4874 4.17137 18.7675 4.44438 18.9081C4.71739 19.0488 5.04655 19.0266 5.29794 18.8506L11 14.8581L16.7021 18.8506C16.9534 19.0266 17.2826 19.0488 17.5556 18.9081C17.8286 18.7675 18 18.4874 18 18.1818V1.81818C18 1.36631 17.6313 1 17.1765 1H4.82353ZM5.64706 7.54545H16.3529V16.6042L11.4744 13.1884C11.1899 12.9892 10.8101 12.9892 10.5256 13.1884L5.64706 16.6042V7.54545Z" fill="#A9B0C0"/>
</svg>
