<svg width="21" height="20" viewBox="0 0 21 20" fill="none" xmlns="http://www.w3.org/2000/svg">
<path fill-rule="evenodd" clip-rule="evenodd" d="M1 3.04545C1 1.91578 1.91578 1 3.04545 1H16.9545C18.0842 1 19 1.91578 19 3.04545V16.9545C19 18.0842 18.0842 19 16.9545 19H3.04545C1.91578 19 1 18.0842 1 16.9545V3.04545ZM5.09091 4.27273C4.63904 4.27273 4.27273 4.63904 4.27273 5.09091V8.36364C4.27273 8.81551 4.63904 9.18182 5.09091 9.18182H8.36364C8.81551 9.18182 9.18182 8.81551 9.18182 8.36364V5.09091C9.18182 4.63904 8.81551 4.27273 8.36364 4.27273H5.09091ZM10.8182 5.09091C10.8182 4.63904 11.1845 4.27273 11.6364 4.27273H14.9091C15.361 4.27273 15.7273 4.63904 15.7273 5.09091C15.7273 5.54278 15.361 5.90909 14.9091 5.90909H11.6364C11.1845 5.90909 10.8182 5.54278 10.8182 5.09091ZM10.8182 8.36364C10.8182 7.91177 11.1845 7.54545 11.6364 7.54545H14.9091C15.361 7.54545 15.7273 7.91177 15.7273 8.36364C15.7273 8.81551 15.361 9.18182 14.9091 9.18182H11.6364C11.1845 9.18182 10.8182 8.81551 10.8182 8.36364ZM4.27273 11.6364C4.27273 11.1845 4.63904 10.8182 5.09091 10.8182H14.9091C15.361 10.8182 15.7273 11.1845 15.7273 11.6364C15.7273 12.0882 15.361 12.4545 14.9091 12.4545H5.09091C4.63904 12.4545 4.27273 12.0882 4.27273 11.6364ZM4.27273 14.9091C4.27273 14.4572 4.63904 14.0909 5.09091 14.0909H14.9091C15.361 14.0909 15.7273 14.4572 15.7273 14.9091C15.7273 15.361 15.361 15.7273 14.9091 15.7273H5.09091C4.63904 15.7273 4.27273 15.361 4.27273 14.9091Z" fill="#FFD036"/>
</svg>
