<svg width="335" height="48" viewBox="0 0 335 48" fill="none" xmlns="http://www.w3.org/2000/svg">
<mask id="mask0_1_3" style="mask-type:alpha" maskUnits="userSpaceOnUse" x="0" y="0" width="335" height="48">
<rect y="-1.90735e-06" width="335" height="48" rx="4" fill="white"/>
</mask>
<g mask="url(#mask0_1_3)">
<path opacity="0.2" fill-rule="evenodd" clip-rule="evenodd" d="M371.782 18.4437L370.401 17.5008L273.715 83.4975L275.096 84.4403L371.782 18.4437ZM366.257 14.6724L367.638 15.6152L270.952 81.6119L269.571 80.6691L366.257 14.6724ZM363.495 12.7868L362.113 11.844L265.427 77.8406L266.809 78.7834L363.495 12.7868ZM357.97 9.01556L359.351 9.95837L262.665 75.955L261.284 75.0122L357.97 9.01556ZM355.207 7.12994L353.826 6.18713L257.14 72.1838L258.521 73.1266L355.207 7.12994ZM349.682 3.35871L351.064 4.30152L254.378 70.2982L252.996 69.3553L349.682 3.35871ZM346.92 1.47309L345.539 0.530282L248.853 66.5269L250.234 67.4697L346.92 1.47309ZM341.395 -2.29815L342.776 -1.35534L246.09 64.6413L244.709 63.6985L341.395 -2.29815ZM338.633 -4.18377L337.251 -5.12657L240.565 60.8701L241.947 61.8129L338.633 -4.18377ZM333.108 -7.955L334.489 -7.01219L237.803 58.9844L236.422 58.0416L333.108 -7.955ZM330.345 -9.84062L328.964 -10.7834L232.278 55.2132L233.659 56.156L330.345 -9.84062ZM324.82 -13.6119L326.201 -12.669L229.515 53.3276L228.134 52.3848L324.82 -13.6119ZM320.677 -16.4403L322.058 -15.4975L225.372 50.4992L223.991 49.5564L320.677 -16.4403Z" fill="url(#paint0_linear_1_3)"/>
<path opacity="0.2" fill-rule="evenodd" clip-rule="evenodd" d="M172.545 -16.4403L171.164 -15.4975L267.85 50.4992L269.231 49.5564L172.545 -16.4403ZM168.401 -13.6119L167.02 -12.669L263.706 53.3276L265.087 52.3848L168.401 -13.6119ZM162.876 -9.84062L164.258 -10.7834L260.944 55.2132L259.562 56.156L162.876 -9.84062ZM160.114 -7.955L158.733 -7.0122L255.419 58.9844L256.8 58.0416L160.114 -7.955ZM154.589 -4.18377L155.97 -5.12658L252.656 60.8701L251.275 61.8129L154.589 -4.18377ZM151.827 -2.29815L150.445 -1.35534L247.131 64.6413L248.513 63.6985L151.827 -2.29815ZM146.302 1.47309L147.683 0.530278L244.369 66.5269L242.988 67.4697L146.302 1.47309ZM143.539 3.35871L142.158 4.30151L238.844 70.2982L240.225 69.3553L143.539 3.35871ZM138.014 7.12994L139.396 6.18713L236.082 72.1838L234.7 73.1266L138.014 7.12994ZM135.252 9.01556L133.871 9.95837L230.557 75.955L231.938 75.0122L135.252 9.01556ZM129.727 12.7868L131.108 11.844L227.794 77.8406L226.413 78.7834L129.727 12.7868ZM126.964 14.6724L125.583 15.6152L222.269 81.6119L223.65 80.669L126.964 14.6724ZM121.44 18.4436L122.821 17.5008L219.507 83.4975L218.126 84.4403L121.44 18.4436Z" fill="url(#paint1_linear_1_3)"/>
</g>
<defs>
<linearGradient id="paint0_linear_1_3" x1="320.677" y1="-16.4403" x2="259.216" y2="73.6006" gradientUnits="userSpaceOnUse">
<stop stop-color="white"/>
<stop offset="1" stop-color="white" stop-opacity="0.01"/>
</linearGradient>
<linearGradient id="paint1_linear_1_3" x1="172.545" y1="-16.4403" x2="234.006" y2="73.6006" gradientUnits="userSpaceOnUse">
<stop stop-color="white" stop-opacity="0.01"/>
<stop offset="1" stop-color="white"/>
</linearGradient>
</defs>
</svg>
