<svg width="23" height="22" viewBox="0 0 23 22" fill="none" xmlns="http://www.w3.org/2000/svg">
<path fill-rule="evenodd" clip-rule="evenodd" d="M4.65654 1C4.20171 1 3.83301 1.36631 3.83301 1.81818V18.1818C3.83301 18.4874 4.00437 18.7675 4.27739 18.9081C4.5504 19.0488 4.87956 19.0266 5.13095 18.8506L10.833 14.8581L16.5351 18.8506C16.7865 19.0266 17.1156 19.0488 17.3886 18.9081C17.6616 18.7675 17.833 18.4874 17.833 18.1818V1.81818C17.833 1.36631 17.4643 1 17.0095 1H4.65654ZM5.48007 7.54545H16.1859V16.6042L11.3074 13.1884C11.0229 12.9892 10.6431 12.9892 10.3586 13.1884L5.48007 16.6042V7.54545Z" fill="#A9B0C0"/>
<path d="M17.1875 13H15.5625V12.8125C15.5625 12.3634 15.9259 12 16.375 12C16.8241 12 17.1875 12.3634 17.1875 12.8125V13ZM12.8125 12.8125V13.0481C11.9189 13.2479 11.25 14.0466 11.25 15V18.75C11.25 19.8537 12.1463 20.75 13.25 20.75H19.5C20.6037 20.75 21.5 19.8537 21.5 18.75V15C21.5 14.0466 20.8311 13.2479 19.9375 13.0481V12.8125C19.9375 10.8456 18.3419 9.25 16.375 9.25C14.4081 9.25 12.8125 10.8456 12.8125 12.8125Z" fill="#A9B0C0" stroke="white" stroke-width="1.5"/>
</svg>
