<svg width="16" height="16" viewBox="0 0 16 16" fill="none" xmlns="http://www.w3.org/2000/svg">
<rect width="16" height="16" rx="8" fill="white"/>
<g clip-path="url(#clip0_6567_15267)">
<path d="M8.50152 3.3125C8.40951 3.12153 8.21506 3 8.00152 3C7.78798 3 7.59527 3.12153 7.50152 3.3125L6.3852 5.60938L3.89215 5.97743C3.68381 6.00868 3.5102 6.15451 3.44597 6.35417C3.38173 6.55382 3.43381 6.77431 3.58312 6.92188L5.39215 8.71181L4.96506 11.2413C4.93034 11.4497 5.01715 11.6615 5.18902 11.7847C5.3609 11.908 5.58833 11.9236 5.77583 11.8247L8.00326 10.6354L10.2307 11.8247C10.4182 11.9236 10.6456 11.9097 10.8175 11.7847C10.9894 11.6597 11.0762 11.4497 11.0415 11.2413L10.6126 8.71181L12.4217 6.92188C12.571 6.77431 12.6248 6.55382 12.5588 6.35417C12.4928 6.15451 12.321 6.00868 12.1126 5.97743L9.61784 5.60938L8.50152 3.3125Z" fill="url(#paint0_linear_6567_15267)"/>
</g>
<defs>
<linearGradient id="paint0_linear_6567_15267" x1="5.14422" y1="10.4082" x2="13.9522" y2="5.81044" gradientUnits="userSpaceOnUse">
<stop stop-color="#FFC400"/>
<stop offset="1" stop-color="#FEE278"/>
</linearGradient>
<clipPath id="clip0_6567_15267">
<rect width="10" height="8.88889" fill="white" transform="translate(3 3)"/>
</clipPath>
</defs>
</svg>
