<svg width="10" height="10" viewBox="0 0 10 10" fill="none" xmlns="http://www.w3.org/2000/svg">
<g clip-path="url(#clip0_3360_6150)">
<path d="M3.41797 3.41797C3.60156 3.23633 3.89844 3.23633 4.06445 3.41797L4.98242 4.33789L5.91797 3.41797C6.10156 3.23633 6.39844 3.23633 6.56445 3.41797C6.76367 3.60156 6.76367 3.89844 6.56445 4.06445L5.66211 4.98242L6.56445 5.91797C6.76367 6.10156 6.76367 6.39844 6.56445 6.56445C6.39844 6.76367 6.10156 6.76367 5.91797 6.56445L4.98242 5.66211L4.06445 6.56445C3.89844 6.76367 3.60156 6.76367 3.41797 6.56445C3.23633 6.39844 3.23633 6.10156 3.41797 5.91797L4.33789 4.98242L3.41797 4.06445C3.23633 3.89844 3.23633 3.60156 3.41797 3.41797ZM10 5C10 7.76172 7.76172 10 5 10C2.23828 10 0 7.76172 0 5C0 2.23828 2.23828 0 5 0C7.76172 0 10 2.23828 10 5ZM5 0.9375C2.75586 0.9375 0.9375 2.75586 0.9375 5C0.9375 7.24414 2.75586 9.0625 5 9.0625C7.24414 9.0625 9.0625 7.24414 9.0625 5C9.0625 2.75586 7.24414 0.9375 5 0.9375Z" fill="#A9B0C0"/>
</g>
<defs>
<clipPath id="clip0_3360_6150">
<rect width="10" height="10" fill="white"/>
</clipPath>
</defs>
</svg>
