<svg width="16" height="16" viewBox="0 0 16 16" fill="none" xmlns="http://www.w3.org/2000/svg">
<path d="M3.33331 9.33334V11.6667H5.99998" stroke="#798195" stroke-width="1.33333" stroke-linecap="round" stroke-linejoin="round"/>
<path d="M6 9.33334H14V14H6V11.6667V9.33334Z" stroke="#798195" stroke-width="1.33333" stroke-linecap="round" stroke-linejoin="round"/>
<path d="M2 4.49999V4.16666" stroke="#798195" stroke-width="1.33333" stroke-linecap="round" stroke-linejoin="round"/>
<path d="M2 6.66668V6.33334" stroke="#798195" stroke-width="1.33333" stroke-linecap="round" stroke-linejoin="round"/>
<path d="M2 2.33333V2" stroke="#798195" stroke-width="1.33333" stroke-linecap="round" stroke-linejoin="round"/>
<path d="M10.6667 4.49999V4.16666" stroke="#798195" stroke-width="1.33333" stroke-linecap="round" stroke-linejoin="round"/>
<path d="M10.6667 6.66668V6.33334" stroke="#798195" stroke-width="1.33333" stroke-linecap="round" stroke-linejoin="round"/>
<path d="M10.6667 2.33333V2" stroke="#798195" stroke-width="1.33333" stroke-linecap="round" stroke-linejoin="round"/>
<path d="M10.6666 6.66666H10.3333" stroke="#798195" stroke-width="1.33333" stroke-linecap="round" stroke-linejoin="round"/>
<path d="M2.33333 6.66666H2" stroke="#798195" stroke-width="1.33333" stroke-linecap="round" stroke-linejoin="round"/>
<path d="M2.33333 2H2" stroke="#798195" stroke-width="1.33333" stroke-linecap="round" stroke-linejoin="round"/>
<path d="M4.33333 2H4" stroke="#798195" stroke-width="1.33333" stroke-linecap="round" stroke-linejoin="round"/>
<path d="M6.50002 2H6.16669" stroke="#798195" stroke-width="1.33333" stroke-linecap="round" stroke-linejoin="round"/>
<path d="M6.50002 6.66666H6.16669" stroke="#798195" stroke-width="1.33333" stroke-linecap="round" stroke-linejoin="round"/>
<path d="M8.66665 2H8.33331" stroke="#798195" stroke-width="1.33333" stroke-linecap="round" stroke-linejoin="round"/>
<path d="M4.33333 6.66666H4" stroke="#798195" stroke-width="1.33333" stroke-linecap="round" stroke-linejoin="round"/>
<path d="M8.66665 6.66666H8.33331" stroke="#798195" stroke-width="1.33333" stroke-linecap="round" stroke-linejoin="round"/>
<path d="M10.6666 2H10.3333" stroke="#798195" stroke-width="1.33333" stroke-linecap="round" stroke-linejoin="round"/>
</svg>
