<svg width="24" height="24" viewBox="0 0 24 24" fill="none" xmlns="http://www.w3.org/2000/svg">
<rect opacity="0.01" width="24" height="24" fill="#D8D8D8"/>
<g filter="url(#filter0_i_1726_5010)">
<path fill-rule="evenodd" clip-rule="evenodd" d="M12 23C18.0751 23 23 18.0751 23 12C23 5.92487 18.0751 1 12 1C5.92487 1 1 5.92487 1 12C1 18.0751 5.92487 23 12 23Z" fill="url(#paint0_linear_1726_5010)"/>
</g>
<mask id="mask0_1726_5010" style="mask-type:luminance" maskUnits="userSpaceOnUse" x="1" y="1" width="22" height="22">
<path fill-rule="evenodd" clip-rule="evenodd" d="M12 23C18.0751 23 23 18.0751 23 12C23 5.92487 18.0751 1 12 1C5.92487 1 1 5.92487 1 12C1 18.0751 5.92487 23 12 23Z" fill="white"/>
</mask>
<g mask="url(#mask0_1726_5010)">
<g filter="url(#filter1_i_1726_5010)">
<path fill-rule="evenodd" clip-rule="evenodd" d="M14.0462 17.3174C13.8423 17.4541 13.5743 17.4209 13.4092 17.2507L13.3525 17.1805C13.1306 16.8494 12.548 16.5978 11.8697 16.5978C11.27 16.5978 10.7434 16.7945 10.4757 17.0718L10.4033 17.1573C10.2401 17.38 9.92717 17.4282 9.70443 17.265C9.4817 17.1018 9.43345 16.7889 9.59668 16.5662C10.0391 15.9625 10.9142 15.5978 11.8697 15.5978C12.8562 15.5978 13.756 15.9865 14.1832 16.6237C14.3369 16.8531 14.2756 17.1637 14.0462 17.3174Z" fill="#723B06"/>
</g>
<g filter="url(#filter2_f_1726_5010)">
<path fill-rule="evenodd" clip-rule="evenodd" d="M11.0693 12.0727C14.12 12.0727 16.5931 9.59401 16.5931 6.53636C16.5931 3.47871 14.12 1 11.0693 1C8.01856 1 5.54547 3.47871 5.54547 6.53636C5.54547 9.59401 8.01856 12.0727 11.0693 12.0727Z" fill="#FF9B9B"/>
</g>
<g opacity="0.419364" filter="url(#filter3_f_1726_5010)">
<path fill-rule="evenodd" clip-rule="evenodd" d="M13.8182 7.63636C15.9269 7.63636 17.6364 5.92691 17.6364 3.81818C17.6364 1.70946 15.9269 0 13.8182 0C11.7095 0 10 1.70946 10 3.81818C10 5.92691 11.7095 7.63636 13.8182 7.63636Z" fill="#FFADAD"/>
</g>
<g filter="url(#filter4_f_1726_5010)">
<path fill-rule="evenodd" clip-rule="evenodd" d="M4.45455 16.9091C5.81015 16.9091 6.90909 15.8102 6.90909 14.4545C6.90909 13.0989 5.81015 12 4.45455 12C3.09894 12 2 13.0989 2 14.4545C2 15.8102 3.09894 16.9091 4.45455 16.9091Z" fill="#FF4848" fill-opacity="0.8"/>
</g>
<g filter="url(#filter5_f_1726_5010)">
<path fill-rule="evenodd" clip-rule="evenodd" d="M19.5454 16.8636C20.901 16.8636 22 15.7647 22 14.409C22 13.0534 20.901 11.9545 19.5454 11.9545C18.1898 11.9545 17.0909 13.0534 17.0909 14.409C17.0909 15.7647 18.1898 16.8636 19.5454 16.8636Z" fill="#FF4848" fill-opacity="0.8"/>
</g>
<g filter="url(#filter6_i_1726_5010)">
<rect x="13.9557" y="9.2941" width="5" height="1" rx="0.5" transform="rotate(-15 13.9557 9.2941)" fill="#723B06"/>
</g>
<g filter="url(#filter7_i_1726_5010)">
<rect width="5" height="1" rx="0.5" transform="matrix(-0.965926 -0.258819 -0.258819 0.965926 10.0443 9.2941)" fill="#723B06"/>
</g>
<g filter="url(#filter8_i_1726_5010)">
<path fill-rule="evenodd" clip-rule="evenodd" d="M9 12.25C9 12.9404 8.44036 13.5 7.75 13.5C7.05964 13.5 6.5 12.9404 6.5 12.25C6.5 11.5596 7.05964 11 7.75 11C8.44036 11 9 11.5596 9 12.25ZM17.5 12.25C17.5 12.9404 16.9404 13.5 16.25 13.5C15.5596 13.5 15 12.9404 15 12.25C15 11.5596 15.5596 11 16.25 11C16.9404 11 17.5 11.5596 17.5 12.25Z" fill="#723B06"/>
</g>
</g>
<defs>
<filter id="filter0_i_1726_5010" x="1" y="1" width="22" height="23" filterUnits="userSpaceOnUse" color-interpolation-filters="sRGB">
<feFlood flood-opacity="0" result="BackgroundImageFix"/>
<feBlend mode="normal" in="SourceGraphic" in2="BackgroundImageFix" result="shape"/>
<feColorMatrix in="SourceAlpha" type="matrix" values="0 0 0 0 0 0 0 0 0 0 0 0 0 0 0 0 0 0 127 0" result="hardAlpha"/>
<feOffset dy="1"/>
<feGaussianBlur stdDeviation="2"/>
<feComposite in2="hardAlpha" operator="arithmetic" k2="-1" k3="1"/>
<feColorMatrix type="matrix" values="0 0 0 0 0.993773 0 0 0 0 0.206348 0 0 0 0 0.206348 0 0 0 0.817198 0"/>
<feBlend mode="normal" in2="shape" result="effect1_innerShadow_1726_5010"/>
</filter>
<filter id="filter1_i_1726_5010" x="9.49994" y="15.5978" width="4.76794" height="2.80438" filterUnits="userSpaceOnUse" color-interpolation-filters="sRGB">
<feFlood flood-opacity="0" result="BackgroundImageFix"/>
<feBlend mode="normal" in="SourceGraphic" in2="BackgroundImageFix" result="shape"/>
<feColorMatrix in="SourceAlpha" type="matrix" values="0 0 0 0 0 0 0 0 0 0 0 0 0 0 0 0 0 0 127 0" result="hardAlpha"/>
<feOffset dy="1"/>
<feGaussianBlur stdDeviation="0.5"/>
<feComposite in2="hardAlpha" operator="arithmetic" k2="-1" k3="1"/>
<feColorMatrix type="matrix" values="0 0 0 0 0.253 0 0 0 0 0.131255 0 0 0 0 0.0139372 0 0 0 0.320449 0"/>
<feBlend mode="normal" in2="shape" result="effect1_innerShadow_1726_5010"/>
</filter>
<filter id="filter2_f_1726_5010" x="-4.83342" y="-9.37889" width="31.8054" height="31.8305" filterUnits="userSpaceOnUse" color-interpolation-filters="sRGB">
<feFlood flood-opacity="0" result="BackgroundImageFix"/>
<feBlend mode="normal" in="SourceGraphic" in2="BackgroundImageFix" result="shape"/>
<feGaussianBlur stdDeviation="5.18945" result="effect1_foregroundBlur_1726_5010"/>
</filter>
<filter id="filter3_f_1726_5010" x="5.5519" y="-4.4481" width="16.5325" height="16.5325" filterUnits="userSpaceOnUse" color-interpolation-filters="sRGB">
<feFlood flood-opacity="0" result="BackgroundImageFix"/>
<feBlend mode="normal" in="SourceGraphic" in2="BackgroundImageFix" result="shape"/>
<feGaussianBlur stdDeviation="2.22405" result="effect1_foregroundBlur_1726_5010"/>
</filter>
<filter id="filter4_f_1726_5010" x="-0.965398" y="9.0346" width="10.8399" height="10.8399" filterUnits="userSpaceOnUse" color-interpolation-filters="sRGB">
<feFlood flood-opacity="0" result="BackgroundImageFix"/>
<feBlend mode="normal" in="SourceGraphic" in2="BackgroundImageFix" result="shape"/>
<feGaussianBlur stdDeviation="1.4827" result="effect1_foregroundBlur_1726_5010"/>
</filter>
<filter id="filter5_f_1726_5010" x="14.1255" y="8.9891" width="10.8399" height="10.8399" filterUnits="userSpaceOnUse" color-interpolation-filters="sRGB">
<feFlood flood-opacity="0" result="BackgroundImageFix"/>
<feBlend mode="normal" in="SourceGraphic" in2="BackgroundImageFix" result="shape"/>
<feGaussianBlur stdDeviation="1.4827" result="effect1_foregroundBlur_1726_5010"/>
</filter>
<filter id="filter6_i_1726_5010" x="14.068" y="8.11224" width="4.86395" height="3.03552" filterUnits="userSpaceOnUse" color-interpolation-filters="sRGB">
<feFlood flood-opacity="0" result="BackgroundImageFix"/>
<feBlend mode="normal" in="SourceGraphic" in2="BackgroundImageFix" result="shape"/>
<feColorMatrix in="SourceAlpha" type="matrix" values="0 0 0 0 0 0 0 0 0 0 0 0 0 0 0 0 0 0 127 0" result="hardAlpha"/>
<feOffset dy="1"/>
<feGaussianBlur stdDeviation="0.5"/>
<feComposite in2="hardAlpha" operator="arithmetic" k2="-1" k3="1"/>
<feColorMatrix type="matrix" values="0 0 0 0 0.253 0 0 0 0 0.131255 0 0 0 0 0.0139372 0 0 0 0.320449 0"/>
<feBlend mode="normal" in2="shape" result="effect1_innerShadow_1726_5010"/>
</filter>
<filter id="filter7_i_1726_5010" x="5.06805" y="8.11224" width="4.86395" height="3.03552" filterUnits="userSpaceOnUse" color-interpolation-filters="sRGB">
<feFlood flood-opacity="0" result="BackgroundImageFix"/>
<feBlend mode="normal" in="SourceGraphic" in2="BackgroundImageFix" result="shape"/>
<feColorMatrix in="SourceAlpha" type="matrix" values="0 0 0 0 0 0 0 0 0 0 0 0 0 0 0 0 0 0 127 0" result="hardAlpha"/>
<feOffset dy="1"/>
<feGaussianBlur stdDeviation="0.5"/>
<feComposite in2="hardAlpha" operator="arithmetic" k2="-1" k3="1"/>
<feColorMatrix type="matrix" values="0 0 0 0 0.253 0 0 0 0 0.131255 0 0 0 0 0.0139372 0 0 0 0.320449 0"/>
<feBlend mode="normal" in2="shape" result="effect1_innerShadow_1726_5010"/>
</filter>
<filter id="filter8_i_1726_5010" x="6.5" y="11" width="11" height="3.5" filterUnits="userSpaceOnUse" color-interpolation-filters="sRGB">
<feFlood flood-opacity="0" result="BackgroundImageFix"/>
<feBlend mode="normal" in="SourceGraphic" in2="BackgroundImageFix" result="shape"/>
<feColorMatrix in="SourceAlpha" type="matrix" values="0 0 0 0 0 0 0 0 0 0 0 0 0 0 0 0 0 0 127 0" result="hardAlpha"/>
<feOffset dy="1"/>
<feGaussianBlur stdDeviation="0.5"/>
<feComposite in2="hardAlpha" operator="arithmetic" k2="-1" k3="1"/>
<feColorMatrix type="matrix" values="0 0 0 0 0.253 0 0 0 0 0.131255 0 0 0 0 0.0139372 0 0 0 0.320449 0"/>
<feBlend mode="normal" in2="shape" result="effect1_innerShadow_1726_5010"/>
</filter>
<linearGradient id="paint0_linear_1726_5010" x1="1" y1="1" x2="1" y2="23" gradientUnits="userSpaceOnUse">
<stop stop-color="#FFA08D"/>
<stop offset="1" stop-color="#FF4F4F"/>
</linearGradient>
</defs>
</svg>
