<svg width="24" height="24" viewBox="0 0 24 24" fill="none" xmlns="http://www.w3.org/2000/svg">
<rect opacity="0.01" width="24" height="24" fill="#D8D8D8"/>
<g filter="url(#filter0_i_1726_5059)">
<path fill-rule="evenodd" clip-rule="evenodd" d="M12 23C18.0751 23 23 18.0751 23 12C23 5.92487 18.0751 1 12 1C5.92487 1 1 5.92487 1 12C1 18.0751 5.92487 23 12 23Z" fill="url(#paint0_linear_1726_5059)"/>
</g>
<mask id="mask0_1726_5059" style="mask-type:luminance" maskUnits="userSpaceOnUse" x="1" y="1" width="22" height="22">
<path fill-rule="evenodd" clip-rule="evenodd" d="M12 23C18.0751 23 23 18.0751 23 12C23 5.92487 18.0751 1 12 1C5.92487 1 1 5.92487 1 12C1 18.0751 5.92487 23 12 23Z" fill="white"/>
</mask>
<g mask="url(#mask0_1726_5059)">
<g opacity="0.726376" filter="url(#filter1_f_1726_5059)">
<path fill-rule="evenodd" clip-rule="evenodd" d="M11.0693 12.0727C14.12 12.0727 16.5931 9.59401 16.5931 6.53636C16.5931 3.47871 14.12 1 11.0693 1C8.01856 1 5.54547 3.47871 5.54547 6.53636C5.54547 9.59401 8.01856 12.0727 11.0693 12.0727Z" fill="#FFFCB6"/>
</g>
<g opacity="0.419364" filter="url(#filter2_f_1726_5059)">
<path fill-rule="evenodd" clip-rule="evenodd" d="M13.8182 7.63636C15.9269 7.63636 17.6364 5.92691 17.6364 3.81818C17.6364 1.70946 15.9269 0 13.8182 0C11.7095 0 10 1.70946 10 3.81818C10 5.92691 11.7095 7.63636 13.8182 7.63636Z" fill="#FFFDC3"/>
</g>
<g filter="url(#filter3_f_1726_5059)">
<path fill-rule="evenodd" clip-rule="evenodd" d="M4.45455 16.9091C5.81015 16.9091 6.90909 15.8102 6.90909 14.4545C6.90909 13.0989 5.81015 12 4.45455 12C3.09894 12 2 13.0989 2 14.4545C2 15.8102 3.09894 16.9091 4.45455 16.9091Z" fill="#FF7E32" fill-opacity="0.6"/>
</g>
<g filter="url(#filter4_f_1726_5059)">
<path fill-rule="evenodd" clip-rule="evenodd" d="M19.5446 16.9091C20.9002 16.9091 21.9991 15.8102 21.9991 14.4545C21.9991 13.0989 20.9002 12 19.5446 12C18.189 12 17.09 13.0989 17.09 14.4545C17.09 15.8102 18.189 16.9091 19.5446 16.9091Z" fill="#FF7E32" fill-opacity="0.6"/>
</g>
<g filter="url(#filter5_i_1726_5059)">
<path fill-rule="evenodd" clip-rule="evenodd" d="M15.2169 16.4581C15.3364 16.5038 15.4743 16.5142 15.609 16.4789C15.9114 16.3999 16.0833 16.1214 15.993 15.8568C15.5185 14.4671 13.883 13.5 12.0137 13.5C10.1556 13.5 8.52762 14.4556 8.0425 15.8335C7.9496 16.0974 8.11877 16.3773 8.42037 16.4585C8.64533 16.5192 8.88042 16.4522 9.02392 16.3048C11.6712 14.5881 14.2995 15.9063 15.0226 16.3363C15.0761 16.3878 15.1412 16.4286 15.2131 16.4567C15.2157 16.4585 15.217 16.4594 15.217 16.4594C15.217 16.4594 15.217 16.459 15.2169 16.4581Z" fill="#723B06"/>
</g>
<g filter="url(#filter6_i_1726_5059)">
<path fill-rule="evenodd" clip-rule="evenodd" d="M5.30736 10.0103C5.48662 9.84258 5.75654 9.83229 5.9468 9.97371L6.01408 10.0338C6.25681 10.2933 6.71823 10.404 7.18748 10.2782C7.59286 10.1696 7.9059 9.91084 8.03514 9.61768L8.0748 9.50636C8.1475 9.23996 8.42239 9.08293 8.68879 9.15562C8.95519 9.22831 9.11222 9.5032 9.03953 9.76961C8.84966 10.4654 8.23255 11.0335 7.4463 11.2441C6.6352 11.4615 5.79086 11.2591 5.28378 10.717C5.09514 10.5153 5.1057 10.1989 5.30736 10.0103Z" fill="#723B06"/>
</g>
<g filter="url(#filter7_i_1726_5059)">
<path fill-rule="evenodd" clip-rule="evenodd" d="M14.7439 9.11196C14.983 9.05638 15.2219 9.18242 15.3159 9.40003L15.3441 9.48574C15.4246 9.83183 15.7689 10.1583 16.2381 10.2841C16.6435 10.3927 17.044 10.3251 17.3025 10.1359L17.3925 10.0593C17.5887 9.86492 17.9052 9.86638 18.0996 10.0625C18.294 10.2587 18.2925 10.5753 18.0963 10.7696C17.584 11.2773 16.7655 11.4607 15.9793 11.25C15.1682 11.0327 14.5382 10.4352 14.3701 9.71221C14.3076 9.44324 14.4749 9.1745 14.7439 9.11196Z" fill="#723B06"/>
</g>
</g>
<defs>
<filter id="filter0_i_1726_5059" x="1" y="1" width="22" height="26" filterUnits="userSpaceOnUse" color-interpolation-filters="sRGB">
<feFlood flood-opacity="0" result="BackgroundImageFix"/>
<feBlend mode="normal" in="SourceGraphic" in2="BackgroundImageFix" result="shape"/>
<feColorMatrix in="SourceAlpha" type="matrix" values="0 0 0 0 0 0 0 0 0 0 0 0 0 0 0 0 0 0 127 0" result="hardAlpha"/>
<feOffset dy="4"/>
<feGaussianBlur stdDeviation="2"/>
<feComposite in2="hardAlpha" operator="arithmetic" k2="-1" k3="1"/>
<feColorMatrix type="matrix" values="0 0 0 0 1 0 0 0 0 0.640548 0 0 0 0 0.150057 0 0 0 0.5 0"/>
<feBlend mode="normal" in2="shape" result="effect1_innerShadow_1726_5059"/>
</filter>
<filter id="filter1_f_1726_5059" x="-4.83342" y="-9.37889" width="31.8054" height="31.8305" filterUnits="userSpaceOnUse" color-interpolation-filters="sRGB">
<feFlood flood-opacity="0" result="BackgroundImageFix"/>
<feBlend mode="normal" in="SourceGraphic" in2="BackgroundImageFix" result="shape"/>
<feGaussianBlur stdDeviation="5.18945" result="effect1_foregroundBlur_1726_5059"/>
</filter>
<filter id="filter2_f_1726_5059" x="5.5519" y="-4.4481" width="16.5325" height="16.5325" filterUnits="userSpaceOnUse" color-interpolation-filters="sRGB">
<feFlood flood-opacity="0" result="BackgroundImageFix"/>
<feBlend mode="normal" in="SourceGraphic" in2="BackgroundImageFix" result="shape"/>
<feGaussianBlur stdDeviation="2.22405" result="effect1_foregroundBlur_1726_5059"/>
</filter>
<filter id="filter3_f_1726_5059" x="-0.965398" y="9.0346" width="10.8399" height="10.8399" filterUnits="userSpaceOnUse" color-interpolation-filters="sRGB">
<feFlood flood-opacity="0" result="BackgroundImageFix"/>
<feBlend mode="normal" in="SourceGraphic" in2="BackgroundImageFix" result="shape"/>
<feGaussianBlur stdDeviation="1.4827" result="effect1_foregroundBlur_1726_5059"/>
</filter>
<filter id="filter4_f_1726_5059" x="14.1246" y="9.0346" width="10.8399" height="10.8399" filterUnits="userSpaceOnUse" color-interpolation-filters="sRGB">
<feFlood flood-opacity="0" result="BackgroundImageFix"/>
<feBlend mode="normal" in="SourceGraphic" in2="BackgroundImageFix" result="shape"/>
<feGaussianBlur stdDeviation="1.4827" result="effect1_foregroundBlur_1726_5059"/>
</filter>
<filter id="filter5_i_1726_5059" x="8.01703" y="13.5" width="8" height="4" filterUnits="userSpaceOnUse" color-interpolation-filters="sRGB">
<feFlood flood-opacity="0" result="BackgroundImageFix"/>
<feBlend mode="normal" in="SourceGraphic" in2="BackgroundImageFix" result="shape"/>
<feColorMatrix in="SourceAlpha" type="matrix" values="0 0 0 0 0 0 0 0 0 0 0 0 0 0 0 0 0 0 127 0" result="hardAlpha"/>
<feOffset dy="1"/>
<feGaussianBlur stdDeviation="0.5"/>
<feComposite in2="hardAlpha" operator="arithmetic" k2="-1" k3="1"/>
<feColorMatrix type="matrix" values="0 0 0 0 0.253 0 0 0 0 0.131255 0 0 0 0 0.0139372 0 0 0 0.320449 0"/>
<feBlend mode="normal" in2="shape" result="effect1_innerShadow_1726_5059"/>
</filter>
<filter id="filter6_i_1726_5059" x="5.14893" y="9.13785" width="3.90839" height="3.19214" filterUnits="userSpaceOnUse" color-interpolation-filters="sRGB">
<feFlood flood-opacity="0" result="BackgroundImageFix"/>
<feBlend mode="normal" in="SourceGraphic" in2="BackgroundImageFix" result="shape"/>
<feColorMatrix in="SourceAlpha" type="matrix" values="0 0 0 0 0 0 0 0 0 0 0 0 0 0 0 0 0 0 127 0" result="hardAlpha"/>
<feOffset dy="1"/>
<feGaussianBlur stdDeviation="0.5"/>
<feComposite in2="hardAlpha" operator="arithmetic" k2="-1" k3="1"/>
<feColorMatrix type="matrix" values="0 0 0 0 0.253 0 0 0 0 0.131255 0 0 0 0 0.0139372 0 0 0 0.320449 0"/>
<feBlend mode="normal" in2="shape" result="effect1_innerShadow_1726_5059"/>
</filter>
<filter id="filter7_i_1726_5059" x="14.357" y="9.09888" width="3.88745" height="3.237" filterUnits="userSpaceOnUse" color-interpolation-filters="sRGB">
<feFlood flood-opacity="0" result="BackgroundImageFix"/>
<feBlend mode="normal" in="SourceGraphic" in2="BackgroundImageFix" result="shape"/>
<feColorMatrix in="SourceAlpha" type="matrix" values="0 0 0 0 0 0 0 0 0 0 0 0 0 0 0 0 0 0 127 0" result="hardAlpha"/>
<feOffset dy="1"/>
<feGaussianBlur stdDeviation="0.5"/>
<feComposite in2="hardAlpha" operator="arithmetic" k2="-1" k3="1"/>
<feColorMatrix type="matrix" values="0 0 0 0 0.253 0 0 0 0 0.131255 0 0 0 0 0.0139372 0 0 0 0.320449 0"/>
<feBlend mode="normal" in2="shape" result="effect1_innerShadow_1726_5059"/>
</filter>
<linearGradient id="paint0_linear_1726_5059" x1="1" y1="1" x2="1" y2="23" gradientUnits="userSpaceOnUse">
<stop stop-color="#FFE88D"/>
<stop offset="1" stop-color="#FFA533"/>
</linearGradient>
</defs>
</svg>
