<svg width="45" height="44" viewBox="0 0 45 44" fill="none" xmlns="http://www.w3.org/2000/svg">
<rect x="0.5" width="44" height="44" rx="12" fill="#E4FCE1"/>
<g clip-path="url(#clip0_4941_6635)">
<g clip-path="url(#clip1_4941_6635)">
<rect x="14.125" y="19" width="16" height="7" fill="white"/>
<path d="M22.125 31C28.7531 31 34.125 26.6359 34.125 21.25C34.125 15.8641 28.7531 11.5 22.125 11.5C15.4969 11.5 10.125 15.8641 10.125 21.25C10.125 23.3641 10.9547 25.3187 12.3609 26.9172C12.2719 28.0656 11.8266 29.0875 11.3578 29.8656C11.1 30.2969 10.8375 30.6437 10.6453 30.8781C10.5469 30.9953 10.4719 31.0844 10.4156 31.1453C10.3875 31.1734 10.3687 31.1969 10.3547 31.2109L10.3406 31.225C10.125 31.4406 10.0641 31.7594 10.1812 32.0406C10.2984 32.3219 10.5703 32.5047 10.875 32.5047C12.2203 32.5047 13.575 32.0875 14.7 31.6C15.7734 31.1312 16.6875 30.5734 17.2453 30.1656C18.7359 30.7047 20.3859 31.0047 22.125 31.0047V31ZM16.125 22.75C15.2953 22.75 14.625 22.0797 14.625 21.25C14.625 20.4203 15.2953 19.75 16.125 19.75C16.9547 19.75 17.625 20.4203 17.625 21.25C17.625 22.0797 16.9547 22.75 16.125 22.75ZM22.125 22.75C21.2953 22.75 20.625 22.0797 20.625 21.25C20.625 20.4203 21.2953 19.75 22.125 19.75C22.9547 19.75 23.625 20.4203 23.625 21.25C23.625 22.0797 22.9547 22.75 22.125 22.75ZM29.625 21.25C29.625 22.0797 28.9547 22.75 28.125 22.75C27.2953 22.75 26.625 22.0797 26.625 21.25C26.625 20.4203 27.2953 19.75 28.125 19.75C28.9547 19.75 29.625 20.4203 29.625 21.25Z" fill="url(#paint0_linear_4941_6635)"/>
</g>
</g>
<defs>
<linearGradient id="paint0_linear_4941_6635" x1="15.625" y1="11" x2="25.125" y2="33" gradientUnits="userSpaceOnUse">
<stop stop-color="#8AFF83"/>
<stop offset="1" stop-color="#42D334"/>
</linearGradient>
<clipPath id="clip0_4941_6635">
<rect width="24" height="24" fill="white" transform="translate(10.125 10)"/>
</clipPath>
<clipPath id="clip1_4941_6635">
<rect width="24" height="24" fill="white" transform="translate(10.125 10)"/>
</clipPath>
</defs>
</svg>
