<svg width="45" height="44" viewBox="0 0 45 44" fill="none" xmlns="http://www.w3.org/2000/svg">
<rect x="0.5" width="44" height="44" rx="12" fill="#F8F0FF"/>
<path fill-rule="evenodd" clip-rule="evenodd" d="M28.194 9.43733C27.9105 9.15867 27.507 9 27.084 9H15.084C12.9705 9 11.25 10.496 11.25 12.3333V32.3333C11.25 34.1707 12.9705 35.6667 15.084 35.6667H31.416C33.531 35.6667 35.25 34.1707 35.25 32.3333V17C35.25 16.668 35.1105 16.3493 34.86 16.104L28.194 9.43733Z" fill="url(#paint0_linear_4941_6602)"/>
<path d="M29.6586 26.2812C30.2162 25.8002 31.0581 25.8621 31.5392 26.4197C31.9832 26.9343 31.9646 27.6913 31.5206 28.1831L31.4008 28.3002L27.2271 31.9016C26.7336 32.3274 26.0126 32.3299 25.5178 31.9292L25.3991 31.8206L23.0754 29.4257C22.5626 28.8972 22.5753 28.0531 23.1038 27.5403C23.5917 27.067 24.3484 27.0414 24.8653 27.456L24.9892 27.5688L26.4367 29.06L29.6586 26.2812Z" fill="white"/>
<path fill-rule="evenodd" clip-rule="evenodd" d="M27.321 17C26.73 17 26.25 16.492 26.25 15.8667V12.8066C26.25 12.3666 26.7773 12.1411 27.0954 12.445L30.9613 16.1385C31.2873 16.45 31.0668 17 30.6159 17H27.321Z" fill="white"/>
<path fill-rule="evenodd" clip-rule="evenodd" d="M28.8216 20.6667C29.6496 20.6667 30.3216 21.264 30.3216 22C30.3216 22.736 29.6496 23.3333 28.8216 23.3333H16.1631C15.3351 23.3333 14.6631 22.736 14.6631 22C14.6631 21.264 15.3351 20.6667 16.1631 20.6667H28.8216Z" fill="url(#paint1_linear_4941_6602)"/>
<path fill-rule="evenodd" clip-rule="evenodd" d="M16.1631 15H20.6631C21.4911 15 22.1631 15.5973 22.1631 16.3333C22.1631 17.0693 21.4911 17.6667 20.6631 17.6667H16.1631C15.3351 17.6667 14.6631 17.0693 14.6631 16.3333C14.6631 15.5973 15.3351 15 16.1631 15Z" fill="url(#paint2_linear_4941_6602)"/>
<defs>
<linearGradient id="paint0_linear_4941_6602" x1="28.25" y1="9" x2="16.75" y2="36" gradientUnits="userSpaceOnUse">
<stop stop-color="#A48FFF"/>
<stop offset="1" stop-color="#8066F0"/>
</linearGradient>
<linearGradient id="paint1_linear_4941_6602" x1="14.25" y1="22" x2="30.25" y2="22" gradientUnits="userSpaceOnUse">
<stop stop-color="#FFFEFF"/>
<stop offset="1" stop-color="#FFFEFF" stop-opacity="0"/>
</linearGradient>
<linearGradient id="paint2_linear_4941_6602" x1="14.75" y1="16.5" x2="22.25" y2="16.5" gradientUnits="userSpaceOnUse">
<stop stop-color="#FFFEFF"/>
<stop offset="1" stop-color="#FFFEFF" stop-opacity="0"/>
</linearGradient>
</defs>
</svg>
