<svg width="33" height="32" viewBox="0 0 33 32" fill="none" xmlns="http://www.w3.org/2000/svg">
<path d="M9.02001 5.09868C10.1009 3.06591 12.6249 2.29423 14.6577 3.37507L25.2477 9.00587C27.2805 10.0867 28.0522 12.6108 26.9713 14.6436L20.6587 26.5158C19.5779 28.5486 17.0538 29.3202 15.021 28.2394L4.43105 22.6086C2.39828 21.5278 1.62659 19.0037 2.70744 16.9709L9.02001 5.09868Z" fill="url(#paint0_linear_1721_5125)"/>
<mask id="mask0_1721_5125" style="mask-type:alpha" maskUnits="userSpaceOnUse" x="2" y="2" width="26" height="27">
<path d="M9.02001 5.09868C10.1009 3.06591 12.6249 2.29423 14.6577 3.37507L25.2477 9.00587C27.2805 10.0867 28.0522 12.6108 26.9713 14.6436L20.6587 26.5158C19.5779 28.5486 17.0538 29.3202 15.021 28.2394L4.43105 22.6086C2.39828 21.5278 1.6266 19.0037 2.70744 16.9709L9.02001 5.09868Z" fill="white"/>
</mask>
<g mask="url(#mask0_1721_5125)">
<path d="M17.9284 19.3946C16.0336 15.7312 10.5382 16.7502 10.0827 20.8494L9.81379 23.2698C9.58919 25.2912 10.8561 27.1796 12.8117 27.7384L13.9462 28.0625C14.3186 28.1689 14.7041 28.2229 15.0914 28.2229H15.6454C18.7693 28.2229 20.7832 24.9138 19.348 22.1391L17.9284 19.3946Z" fill="url(#paint1_linear_1721_5125)"/>
<path opacity="0.4" d="M11.8135 7.6604L18.3437 10.6287" stroke="white" stroke-width="2.98471" stroke-linecap="round" stroke-linejoin="round"/>
<path opacity="0.4" d="M9.4668 13.4144L15.9971 16.3827" stroke="white" stroke-width="2.98471" stroke-linecap="round" stroke-linejoin="round"/>
<path opacity="0.4" d="M6.69873 19.1012L13.229 22.0695" stroke="white" stroke-width="2.98471" stroke-linecap="round" stroke-linejoin="round"/>
</g>
<g filter="url(#filter0_i_1721_5125)">
<rect x="10.7632" y="6.52835" width="20.893" height="22.3854" rx="4.1686" fill="url(#paint2_linear_1721_5125)"/>
</g>
<path d="M21.032 8.47271C22.2683 8.47271 23.2705 7.47048 23.2705 6.23417C23.2705 4.99786 22.2683 3.99564 21.032 3.99564C19.7957 3.99564 18.7935 4.99786 18.7935 6.23417C18.7935 7.47048 19.7957 8.47271 21.032 8.47271Z" fill="#FF484B"/>
<path d="M15.2402 18.1736H22.7381" stroke="url(#paint3_linear_1721_5125)" stroke-width="2.49928" stroke-linecap="round" stroke-linejoin="round"/>
<path d="M15.2402 12.8469H25.2374" stroke="url(#paint4_linear_1721_5125)" stroke-width="2.49928" stroke-linecap="round" stroke-linejoin="round"/>
<path d="M15.2402 23.5004H22.7381" stroke="url(#paint5_linear_1721_5125)" stroke-width="2.49928" stroke-linecap="round" stroke-linejoin="round"/>
<defs>
<filter id="filter0_i_1721_5125" x="9.72103" y="5.4862" width="21.9352" height="23.4275" filterUnits="userSpaceOnUse" color-interpolation-filters="sRGB">
<feFlood flood-opacity="0" result="BackgroundImageFix"/>
<feBlend mode="normal" in="SourceGraphic" in2="BackgroundImageFix" result="shape"/>
<feColorMatrix in="SourceAlpha" type="matrix" values="0 0 0 0 0 0 0 0 0 0 0 0 0 0 0 0 0 0 127 0" result="hardAlpha"/>
<feOffset dx="-2.0843" dy="-2.0843"/>
<feGaussianBlur stdDeviation="0.521075"/>
<feComposite in2="hardAlpha" operator="arithmetic" k2="-1" k3="1"/>
<feColorMatrix type="matrix" values="0 0 0 0 1 0 0 0 0 0.535872 0 0 0 0 0 0 0 0 0.1 0"/>
<feBlend mode="normal" in2="shape" result="effect1_innerShadow_1721_5125"/>
</filter>
<linearGradient id="paint0_linear_1721_5125" x1="18.4667" y1="5.06555" x2="9.72605" y2="25.424" gradientUnits="userSpaceOnUse">
<stop stop-color="#75A8FB"/>
<stop offset="1" stop-color="#6094FF"/>
</linearGradient>
<linearGradient id="paint1_linear_1721_5125" x1="15.9598" y1="7.16568" x2="15.9598" y2="28.2229" gradientUnits="userSpaceOnUse">
<stop stop-color="#0A86C6"/>
<stop offset="1" stop-color="#0A86C6" stop-opacity="0"/>
</linearGradient>
<linearGradient id="paint2_linear_1721_5125" x1="12.349" y1="6.57327" x2="21.2097" y2="28.9137" gradientUnits="userSpaceOnUse">
<stop stop-color="#FFD036"/>
<stop offset="1" stop-color="#FFAA02"/>
</linearGradient>
<linearGradient id="paint3_linear_1721_5125" x1="14.2824" y1="18.1726" x2="23.9485" y2="18.1726" gradientUnits="userSpaceOnUse">
<stop stop-color="white"/>
<stop offset="1" stop-color="white" stop-opacity="0"/>
</linearGradient>
<linearGradient id="paint4_linear_1721_5125" x1="14.9268" y1="12.9791" x2="27.1705" y2="12.9791" gradientUnits="userSpaceOnUse">
<stop stop-color="white"/>
<stop offset="1" stop-color="white" stop-opacity="0"/>
</linearGradient>
<linearGradient id="paint5_linear_1721_5125" x1="13.638" y1="23.9722" x2="23.9485" y2="23.9722" gradientUnits="userSpaceOnUse">
<stop stop-color="white"/>
<stop offset="1" stop-color="white" stop-opacity="0"/>
</linearGradient>
</defs>
</svg>
