<svg width="45" height="44" viewBox="0 0 45 44" fill="none" xmlns="http://www.w3.org/2000/svg">
<rect x="0.5" width="44" height="44" rx="12" fill="#FFF2F0"/>
<g clip-path="url(#clip0_4941_6613)">
<g clip-path="url(#clip1_4941_6613)">
<path d="M12.6062 24.0813L21.0766 31.9891C21.4281 32.3172 21.8922 32.5 22.375 32.5C22.8578 32.5 23.3219 32.3172 23.6734 31.9891L32.1437 24.0813C33.5688 22.7547 34.375 20.8938 34.375 18.9484V18.6766C34.375 15.4 32.0078 12.6063 28.7781 12.0672C26.6406 11.7109 24.4656 12.4094 22.9375 13.9375L22.375 14.5L21.8125 13.9375C20.2844 12.4094 18.1094 11.7109 15.9719 12.0672C12.7422 12.6063 10.375 15.4 10.375 18.6766V18.9484C10.375 20.8938 11.1812 22.7547 12.6062 24.0813Z" fill="url(#paint0_linear_4941_6613)"/>
</g>
<g clip-path="url(#clip2_4941_6613)">
<circle cx="28.375" cy="28" r="6" fill="white"/>
<path d="M34.375 28C34.375 31.3141 31.6891 34 28.375 34C25.0609 34 22.375 31.3141 22.375 28C22.375 24.6859 25.0609 22 28.375 22C31.6891 22 34.375 24.6859 34.375 28ZM28.375 24.4375C28.232 24.4375 28.1008 24.5195 28.0398 24.6461L27.1914 26.3664L25.293 26.643C25.1523 26.6641 25.0352 26.7625 24.9906 26.8984C24.9461 27.0344 24.9836 27.1844 25.0844 27.2828L26.4578 28.6234L26.1344 30.5148C26.1109 30.6555 26.1672 30.7984 26.2844 30.8805C26.4016 30.9625 26.5539 30.9766 26.6781 30.9086L28.375 30.018L30.0742 30.9109C30.2008 30.9766 30.3531 30.9672 30.4703 30.8828C30.5875 30.7984 30.6437 30.6578 30.6203 30.5172L30.2969 28.6258L31.6703 27.2852C31.7734 27.1844 31.8086 27.0367 31.7641 26.9008C31.7195 26.7648 31.6023 26.6664 31.4617 26.6453L29.5633 26.3687L28.7148 24.6484C28.6516 24.5195 28.5203 24.4398 28.3797 24.4398L28.375 24.4375Z" fill="url(#paint1_linear_4941_6613)"/>
</g>
</g>
<defs>
<linearGradient id="paint0_linear_4941_6613" x1="22.375" y1="11.9758" x2="22.375" y2="32.5" gradientUnits="userSpaceOnUse">
<stop stop-color="#FE5373"/>
<stop offset="1" stop-color="#F7324B"/>
</linearGradient>
<linearGradient id="paint1_linear_4941_6613" x1="24.6333" y1="32" x2="36.3117" y2="26.0885" gradientUnits="userSpaceOnUse">
<stop stop-color="#FFC400"/>
<stop offset="1" stop-color="#FEE278"/>
</linearGradient>
<clipPath id="clip0_4941_6613">
<rect width="24" height="24" fill="white" transform="translate(10.375 10)"/>
</clipPath>
<clipPath id="clip1_4941_6613">
<rect width="24" height="24" fill="white" transform="translate(10.375 10)"/>
</clipPath>
<clipPath id="clip2_4941_6613">
<rect width="12" height="12" fill="white" transform="translate(22.375 22)"/>
</clipPath>
</defs>
</svg>
