<svg width="11" height="12" viewBox="0 0 11 12" fill="none" xmlns="http://www.w3.org/2000/svg">
<g clip-path="url(#clip0_6042_15239)">
<path d="M0 2.25C0 1.42266 0.672656 0.75 1.5 0.75H9C9.82734 0.75 10.5 1.42266 10.5 2.25V7.5H7.875C7.25391 7.5 6.75 8.00391 6.75 8.625V11.25H1.5C0.672656 11.25 0 10.5773 0 9.75V2.25ZM9.43828 8.25H10.5L9.75 9L8.25 10.5L7.5 11.25V10.1883V8.625C7.5 8.41875 7.66875 8.25 7.875 8.25H9.43828ZM2.625 8.8125C2.625 8.73863 2.61045 8.66549 2.58218 8.59724C2.55391 8.52899 2.51248 8.46699 2.46025 8.41475C2.40801 8.36252 2.346 8.32109 2.27776 8.29282C2.20951 8.26455 2.13637 8.25 2.0625 8.25C1.98863 8.25 1.91549 8.26455 1.84724 8.29282C1.77899 8.32109 1.71699 8.36252 1.66475 8.41475C1.61252 8.46699 1.57109 8.52899 1.54282 8.59724C1.51455 8.66549 1.5 8.73863 1.5 8.8125C1.5 8.88637 1.51455 8.95951 1.54282 9.02776C1.57109 9.09601 1.61252 9.15801 1.66475 9.21025C1.71699 9.26248 1.77899 9.30391 1.84724 9.33218C1.91549 9.36045 1.98863 9.375 2.0625 9.375C2.13637 9.375 2.20951 9.36045 2.27776 9.33218C2.346 9.30391 2.40801 9.26248 2.46025 9.21025C2.51248 9.15801 2.55391 9.09601 2.58218 9.02776C2.61045 8.95951 2.625 8.88637 2.625 8.8125ZM2.0625 2.625C1.91332 2.625 1.77024 2.68426 1.66475 2.78975C1.55926 2.89524 1.5 3.03832 1.5 3.1875C1.5 3.33668 1.55926 3.47976 1.66475 3.58525C1.77024 3.69074 1.91332 3.75 2.0625 3.75C2.21168 3.75 2.35476 3.69074 2.46025 3.58525C2.56574 3.47976 2.625 3.33668 2.625 3.1875C2.625 3.03832 2.56574 2.89524 2.46025 2.78975C2.35476 2.68426 2.21168 2.625 2.0625 2.625ZM2.625 6C2.625 5.92613 2.61045 5.85299 2.58218 5.78474C2.55391 5.7165 2.51248 5.65449 2.46025 5.60225C2.40801 5.55002 2.346 5.50859 2.27776 5.48032C2.20951 5.45205 2.13637 5.4375 2.0625 5.4375C1.98863 5.4375 1.91549 5.45205 1.84724 5.48032C1.77899 5.50859 1.71699 5.55002 1.66475 5.60225C1.61252 5.65449 1.57109 5.7165 1.54282 5.78474C1.51455 5.85299 1.5 5.92613 1.5 6C1.5 6.07387 1.51455 6.14701 1.54282 6.21526C1.57109 6.28351 1.61252 6.34551 1.66475 6.39775C1.71699 6.44998 1.77899 6.49141 1.84724 6.51968C1.91549 6.54795 1.98863 6.5625 2.0625 6.5625C2.13637 6.5625 2.20951 6.54795 2.27776 6.51968C2.346 6.49141 2.40801 6.44998 2.46025 6.39775C2.51248 6.34551 2.55391 6.28351 2.58218 6.21526C2.61045 6.14701 2.625 6.07387 2.625 6Z" fill="#A9B0C0"/>
</g>
<defs>
<clipPath id="clip0_6042_15239">
<rect width="10.5" height="12" fill="white"/>
</clipPath>
</defs>
</svg>
