<svg width="12" height="12" viewBox="0 0 12 12" fill="none" xmlns="http://www.w3.org/2000/svg">
<g clip-path="url(#clip0_6042_15242)">
<path d="M6.60202 1.375C6.49161 1.14583 6.25827 1 6.00202 1C5.74577 1 5.51452 1.14583 5.40202 1.375L4.06244 4.13125L1.07077 4.57292C0.820772 4.61042 0.612439 4.78542 0.535356 5.025C0.458272 5.26458 0.520772 5.52917 0.699939 5.70625L2.87077 7.85417L2.35827 10.8896C2.31661 11.1396 2.42077 11.3938 2.62702 11.5417C2.83327 11.6896 3.10619 11.7083 3.33119 11.5896L6.00411 10.1625L8.67702 11.5896C8.90202 11.7083 9.17494 11.6917 9.38119 11.5417C9.58744 11.3917 9.69161 11.1396 9.64994 10.8896L9.13536 7.85417L11.3062 5.70625C11.4854 5.52917 11.5499 5.26458 11.4708 5.025C11.3916 4.78542 11.1854 4.61042 10.9354 4.57292L7.94161 4.13125L6.60202 1.375Z" fill="#fff"/>
</g>
<defs>
<clipPath id="clip0_6042_15242">
<rect width="12" height="10.6667" fill="white" transform="translate(0 1)"/>
</clipPath>
</defs>
</svg>
