<svg width="66" height="66" viewBox="0 0 66 66" fill="none" xmlns="http://www.w3.org/2000/svg">
<g filter="url(#filter0_d_5974_7247)">
<rect x="8" y="6" width="50" height="50" rx="12.5" fill="white"/>
</g>
<mask id="path-2-inside-1_5974_7247" fill="white">
<path fill-rule="evenodd" clip-rule="evenodd" d="M12.5 32H33H53.5C54.1667 32 55.5 32 56 29.5L57.2554 19.1433C57.3911 18.0236 57.459 17.4637 57.4175 16.7488C57.3761 16.0339 57.2907 15.6798 57.1201 14.9717C56.5847 12.7501 55.7237 11.046 54.3388 9.66117C50.6777 6 44.7851 6 33 6C21.2149 6 15.3223 6 11.6612 9.66117C10.2763 11.046 9.41529 12.7501 8.87996 14.9717C8.7093 15.6798 8.62398 16.0339 8.58252 16.7488C8.54107 17.4637 8.60893 18.0236 8.74466 19.1433L10 29.5C10.5 32 11.8333 32 12.5 32Z"/>
</mask>
<path fill-rule="evenodd" clip-rule="evenodd" d="M12.5 32H33H53.5C54.1667 32 55.5 32 56 29.5L57.2554 19.1433C57.3911 18.0236 57.459 17.4637 57.4175 16.7488C57.3761 16.0339 57.2907 15.6798 57.1201 14.9717C56.5847 12.7501 55.7237 11.046 54.3388 9.66117C50.6777 6 44.7851 6 33 6C21.2149 6 15.3223 6 11.6612 9.66117C10.2763 11.046 9.41529 12.7501 8.87996 14.9717C8.7093 15.6798 8.62398 16.0339 8.58252 16.7488C8.54107 17.4637 8.60893 18.0236 8.74466 19.1433L10 29.5C10.5 32 11.8333 32 12.5 32Z" fill="url(#paint0_linear_5974_7247)"/>
<path d="M56 29.5L57.9612 29.8922L57.9762 29.8169L57.9855 29.7407L56 29.5ZM54.3388 9.66117L52.9246 11.0754L52.9246 11.0754L54.3388 9.66117ZM11.6612 9.66117L13.0754 11.0754L11.6612 9.66117ZM10 29.5L8.01455 29.7407L8.02379 29.8169L8.03885 29.8922L10 29.5ZM8.58252 16.7488L6.58588 16.633L8.58252 16.7488ZM57.2554 19.1433L59.2408 19.384L57.2554 19.1433ZM57.1201 14.9717L59.0644 14.5031L57.1201 14.9717ZM57.4175 16.7488L59.4142 16.633L57.4175 16.7488ZM33 30H12.5V34H33V30ZM53.5 30H33V34H53.5V30ZM54.0389 29.1078C53.8541 30.0315 53.6024 30.089 53.72 30.0123C53.7859 29.9693 53.8388 30 53.5 30V34C53.8279 34 54.8808 34.0307 55.9051 33.3627C56.981 32.661 57.6459 31.4685 57.9612 29.8922L54.0389 29.1078ZM55.2699 18.9026L54.0145 29.2593L57.9855 29.7407L59.2408 19.384L55.2699 18.9026ZM52.9246 11.0754C53.99 12.1407 54.7047 13.4856 55.1757 15.4402L59.0644 14.5031C58.4648 12.0147 57.4575 9.95136 55.7531 8.24695L52.9246 11.0754ZM33 8C38.9491 8 43.2097 8.00425 46.4494 8.43981C49.6316 8.86764 51.5276 9.67833 52.9246 11.0754L55.7531 8.24695C53.4889 5.98283 50.6081 4.96294 46.9824 4.47548C43.4142 3.99575 38.836 4 33 4V8ZM13.0754 11.0754C14.4724 9.67833 16.3685 8.86764 19.5506 8.43981C22.7903 8.00425 27.0509 8 33 8V4C27.164 4 22.5858 3.99575 19.0176 4.47548C15.3919 4.96294 12.5111 5.98283 10.247 8.24695L13.0754 11.0754ZM10.8243 15.4402C11.2953 13.4856 12.0101 12.1407 13.0754 11.0754L10.247 8.24695C8.54256 9.95136 7.53527 12.0147 6.93561 14.5031L10.8243 15.4402ZM11.9855 29.2593L10.7301 18.9026L6.75919 19.384L8.01455 29.7407L11.9855 29.2593ZM12.5 30C12.1612 30 12.2141 29.9693 12.2801 30.0123C12.3976 30.089 12.1459 30.0315 11.9612 29.1078L8.03885 29.8922C8.35411 31.4685 9.01905 32.661 10.095 33.3627C11.1192 34.0307 12.1721 34 12.5 34V30ZM6.93561 14.5031C6.75945 15.2342 6.63815 15.7316 6.58588 16.633L10.5792 16.8646C10.6098 16.3362 10.6592 16.1255 10.8243 15.4402L6.93561 14.5031ZM10.7301 18.9026C10.5899 17.7461 10.5499 17.3688 10.5792 16.8646L6.58588 16.633C6.53221 17.5586 6.62792 18.301 6.75919 19.384L10.7301 18.9026ZM59.2408 19.384C59.3721 18.301 59.4678 17.5586 59.4142 16.633L55.4209 16.8646C55.4501 17.3688 55.4101 17.7461 55.2699 18.9026L59.2408 19.384ZM55.1757 15.4402C55.3409 16.1255 55.3902 16.3362 55.4209 16.8646L59.4142 16.633C59.3619 15.7316 59.2406 15.2342 59.0644 14.5031L55.1757 15.4402Z" fill="url(#paint1_linear_5974_7247)" mask="url(#path-2-inside-1_5974_7247)"/>
<g clip-path="url(#clip0_5974_7247)">
<path d="M49.9672 33.8459L31.5429 30.3662L33.8627 18.0834L52.287 21.563L49.9672 33.8459Z" fill="white"/>
<path d="M49.9672 33.8459L31.5429 30.3662L33.8627 18.0834L52.287 21.563L49.9672 33.8459Z" fill="url(#paint2_linear_5974_7247)" fill-opacity="0.4"/>
<path d="M55.0592 36.353L25.8874 30.8435C25.4676 30.7642 25.054 31.0464 24.9747 31.4662L24.8298 32.2339C24.5103 33.9252 25.6292 35.5651 27.3205 35.8845L51.8862 40.5241C53.5775 40.8435 55.2175 39.7246 55.5369 38.0333L55.6819 37.2657C55.7535 36.8866 55.4814 36.4327 55.0592 36.353ZM33.8628 18.0834L52.287 21.5631L49.9673 33.8459L53.038 34.4259L55.5027 21.3753C55.7418 20.1096 54.9004 18.8764 53.6347 18.6373L33.675 14.8677C32.4093 14.6286 31.1761 15.4701 30.937 16.7358L28.4723 29.7863L31.543 30.3662L33.8628 18.0834Z" fill="url(#paint3_linear_5974_7247)"/>
</g>
<g clip-path="url(#clip1_5974_7247)">
<path d="M22.848 16.6976C18.9889 14.8384 14.3495 16.4609 12.4902 20.32C10.631 24.1791 12.2535 28.8185 16.1126 30.6777L25.4327 35.1679C29.2918 37.0272 33.9312 35.4046 35.7904 31.5456C37.6496 27.6865 36.0271 23.0471 32.168 21.1878L22.848 16.6976Z" fill="white"/>
<path d="M22.848 16.6976C18.9889 14.8384 14.3495 16.4609 12.4902 20.32C10.631 24.1791 12.2535 28.8185 16.1126 30.6777L25.4327 35.1679C29.2918 37.0272 33.9312 35.4046 35.7904 31.5456C37.6496 27.6865 36.0271 23.0471 32.168 21.1878L22.848 16.6976ZM30.6882 28.7286C29.8836 28.3409 29.5459 27.3753 29.9335 26.5707C30.3211 25.7661 31.2868 25.4284 32.0914 25.816C32.896 26.2037 33.2337 27.1693 32.846 27.9739C32.4584 28.7785 31.4928 29.1162 30.6882 28.7286ZM28.8322 30.3464C28.4445 31.1509 27.4789 31.4887 26.6743 31.101C25.8697 30.7134 25.532 29.7477 25.9197 28.9432C26.3073 28.1386 27.2729 27.8009 28.0775 28.1885C28.8821 28.5761 29.2198 29.5418 28.8322 30.3464ZM19.5888 21.2279C19.822 20.7437 20.3993 20.5419 20.8835 20.7751C21.3677 21.0084 21.5696 21.5857 21.3363 22.0699L20.775 23.2349L21.94 23.7961C22.4242 24.0294 22.6261 24.6067 22.3928 25.0909C22.1595 25.5751 21.5823 25.7769 21.0981 25.5437L19.9331 24.9824L19.3718 26.1474C19.1385 26.6316 18.5613 26.8335 18.0771 26.6002C17.5929 26.3669 17.391 25.7897 17.6243 25.3055L18.1856 24.1405L17.0206 23.5792C16.5364 23.3459 16.3345 22.7687 16.5678 22.2845C16.801 21.8003 17.3783 21.5984 17.8625 21.8317L19.0275 22.393L19.5888 21.2279Z" fill="url(#paint4_linear_5974_7247)"/>
</g>
<path fill-rule="evenodd" clip-rule="evenodd" d="M53.9989 32C55.8912 32 56.8373 32 57.4241 32.5918C58.0109 33.1836 58.0029 34.1231 57.987 36.0022C57.9146 44.5336 57.4406 49.237 54.3389 52.3388C50.6777 56 44.7851 56 33 56C21.2149 56 15.3224 56 11.6612 52.3388C8.5594 49.237 8.08549 44.5336 8.01308 36.0022C7.99713 34.1231 7.98916 33.1836 8.57596 32.5918C9.16276 32 10.1089 32 12.0012 32H53.9989Z" fill="url(#paint5_linear_5974_7247)"/>
<g opacity="0.8" filter="url(#filter1_f_5974_7247)">
<rect x="12" y="35" width="42" height="12" rx="6" fill="url(#paint6_radial_5974_7247)"/>
</g>
<defs>
<filter id="filter0_d_5974_7247" x="0" y="0" width="66" height="66" filterUnits="userSpaceOnUse" color-interpolation-filters="sRGB">
<feFlood flood-opacity="0" result="BackgroundImageFix"/>
<feColorMatrix in="SourceAlpha" type="matrix" values="0 0 0 0 0 0 0 0 0 0 0 0 0 0 0 0 0 0 127 0" result="hardAlpha"/>
<feOffset dy="2"/>
<feGaussianBlur stdDeviation="4"/>
<feComposite in2="hardAlpha" operator="out"/>
<feColorMatrix type="matrix" values="0 0 0 0 0.976471 0 0 0 0 0.72549 0 0 0 0 0.113725 0 0 0 0.12 0"/>
<feBlend mode="normal" in2="BackgroundImageFix" result="effect1_dropShadow_5974_7247"/>
<feBlend mode="normal" in="SourceGraphic" in2="effect1_dropShadow_5974_7247" result="shape"/>
</filter>
<filter id="filter1_f_5974_7247" x="2" y="25" width="62" height="32" filterUnits="userSpaceOnUse" color-interpolation-filters="sRGB">
<feFlood flood-opacity="0" result="BackgroundImageFix"/>
<feBlend mode="normal" in="SourceGraphic" in2="BackgroundImageFix" result="shape"/>
<feGaussianBlur stdDeviation="5" result="effect1_foregroundBlur_5974_7247"/>
</filter>
<linearGradient id="paint0_linear_5974_7247" x1="11.0717" y1="9.5" x2="49.9994" y2="29.8953" gradientUnits="userSpaceOnUse">
<stop stop-color="#FF9733"/>
<stop offset="1" stop-color="#FF6007"/>
</linearGradient>
<linearGradient id="paint1_linear_5974_7247" x1="33" y1="6" x2="54.0076" y2="29.4318" gradientUnits="userSpaceOnUse">
<stop stop-color="#FFBF3D"/>
<stop offset="1" stop-color="#FF8E0B"/>
</linearGradient>
<linearGradient id="paint2_linear_5974_7247" x1="43.0748" y1="19.8232" x2="40.755" y2="32.1061" gradientUnits="userSpaceOnUse">
<stop stop-color="#FED84C"/>
<stop offset="1" stop-color="#F9C21E"/>
</linearGradient>
<linearGradient id="paint3_linear_5974_7247" x1="43.6548" y1="16.7525" x2="39.6034" y2="38.2043" gradientUnits="userSpaceOnUse">
<stop stop-color="#FED84C"/>
<stop offset="1" stop-color="#F9C21E"/>
</linearGradient>
<linearGradient id="paint4_linear_5974_7247" x1="27.508" y1="18.9427" x2="20.7726" y2="32.9228" gradientUnits="userSpaceOnUse">
<stop stop-color="#02CAFE"/>
<stop offset="1" stop-color="#1AA2F8"/>
</linearGradient>
<linearGradient id="paint5_linear_5974_7247" x1="33" y1="6" x2="33" y2="56" gradientUnits="userSpaceOnUse">
<stop stop-color="#FFB133"/>
<stop offset="1" stop-color="#FF8B07"/>
</linearGradient>
<radialGradient id="paint6_radial_5974_7247" cx="0" cy="0" r="1" gradientUnits="userSpaceOnUse" gradientTransform="translate(33 41) rotate(90) scale(7.5 26.25)">
<stop stop-color="white"/>
<stop offset="1" stop-color="white" stop-opacity="0.4"/>
</radialGradient>
<clipPath id="clip0_5974_7247">
<rect width="31.25" height="25" fill="white" transform="translate(28.5912 12.3174) rotate(10.6951)"/>
</clipPath>
<clipPath id="clip1_5974_7247">
<rect width="25.8633" height="20.6906" fill="white" transform="translate(16.9805 11) rotate(25.7239)"/>
</clipPath>
</defs>
</svg>
