<svg width="18" height="18" viewBox="0 0 18 18" fill="none" xmlns="http://www.w3.org/2000/svg">
<path fill-rule="evenodd" clip-rule="evenodd" d="M6 11.625H6.76666C7.45115 11.625 8.06385 12.0496 8.30419 12.6905L8.87219 14.2052C8.96689 14.4577 9.2083 14.625 9.478 14.625C9.83533 14.625 10.125 14.3353 10.125 13.978V12.9569C10.125 12.2213 10.7213 11.625 11.4569 11.625H14.5111C14.8301 11.625 15.0693 11.3331 15.0068 11.0203L13.8836 5.40437C13.7784 4.87852 13.3167 4.5 12.7804 4.5H6V11.625ZM5.96249 12.75H6H6.76666C6.9822 12.75 7.17514 12.8837 7.25082 13.0855L7.81882 14.6002C8.07818 15.2918 8.73935 15.75 9.478 15.75C10.4566 15.75 11.25 14.9566 11.25 13.978V12.9569C11.25 12.8426 11.3426 12.75 11.4569 12.75H14.5111C15.54 12.75 16.3117 11.8087 16.1099 10.7997L14.9867 5.18374C14.7764 4.13203 13.853 3.375 12.7804 3.375H6H5.84398C5.55465 2.71279 4.89387 2.25 4.125 2.25C3.08947 2.25 2.25 3.08947 2.25 4.125V12.375C2.25 13.4105 3.08947 14.25 4.125 14.25C5.03211 14.25 5.78877 13.6058 5.96249 12.75ZM4.875 12.375C4.875 12.7892 4.53921 13.125 4.125 13.125C3.71079 13.125 3.375 12.7892 3.375 12.375V4.125C3.375 3.71079 3.71079 3.375 4.125 3.375C4.53921 3.375 4.875 3.71079 4.875 4.125V4.5V11.625V12.375Z" fill="#A9B0C0"/>
</svg>
