<svg width="152" height="36" viewBox="0 0 152 36" fill="none" xmlns="http://www.w3.org/2000/svg">
<rect x="52" y="2" width="100" height="32" rx="16" fill="url(#paint0_linear_89_1489)"/>
<g clipPath="url(#clip0_89_1489)">
<rect x="46" y="6" width="24" height="24" rx="12" fill="white"/>
<rect opacity="0.01" x="46" y="6" width="24" height="24" fill="#D8D8D8"/>
<g filter="url(#filter0_i_89_1489)">
<path fill-rule="evenodd" clip-rule="evenodd" d="M58 29C64.0751 29 69 24.0751 69 18C69 11.9249 64.0751 7 58 7C51.9249 7 47 11.9249 47 18C47 24.0751 51.9249 29 58 29Z" fill="url(#paint1_linear_89_1489)"/>
</g>
<mask id="mask0_89_1489" style="mask-type:alpha" maskUnits="userSpaceOnUse" x="47" y="7" width="22" height="22">
<path fill-rule="evenodd" clip-rule="evenodd" d="M58 29C64.0751 29 69 24.0751 69 18C69 11.9249 64.0751 7 58 7C51.9249 7 47 11.9249 47 18C47 24.0751 51.9249 29 58 29Z" fill="white"/>
</mask>
<g mask="url(#mask0_89_1489)">
<g opacity="0.726376" filter="url(#filter1_f_89_1489)">
<path fill-rule="evenodd" clip-rule="evenodd" d="M57.0692 18.0727C60.1199 18.0727 62.593 15.594 62.593 12.5364C62.593 9.47871 60.1199 7 57.0692 7C54.0185 7 51.5454 9.47871 51.5454 12.5364C51.5454 15.594 54.0185 18.0727 57.0692 18.0727Z" fill="#FFFCB6"/>
</g>
<g opacity="0.419364" filter="url(#filter2_f_89_1489)">
<path fill-rule="evenodd" clip-rule="evenodd" d="M59.8182 13.6364C61.9269 13.6364 63.6364 11.9269 63.6364 9.81818C63.6364 7.70946 61.9269 6 59.8182 6C57.7095 6 56 7.70946 56 9.81818C56 11.9269 57.7095 13.6364 59.8182 13.6364Z" fill="#FFFDC3"/>
</g>
<g filter="url(#filter3_f_89_1489)">
<path fill-rule="evenodd" clip-rule="evenodd" d="M50.4545 22.9091C51.8102 22.9091 52.9091 21.8102 52.9091 20.4545C52.9091 19.0989 51.8102 18 50.4545 18C49.0989 18 48 19.0989 48 20.4545C48 21.8102 49.0989 22.9091 50.4545 22.9091Z" fill="#FF7E32" fill-opacity="0.6"/>
</g>
<g filter="url(#filter4_f_89_1489)">
<path fill-rule="evenodd" clip-rule="evenodd" d="M65.5445 22.9091C66.9001 22.9091 67.9991 21.8102 67.9991 20.4545C67.9991 19.0989 66.9001 18 65.5445 18C64.1889 18 63.09 19.0989 63.09 20.4545C63.09 21.8102 64.1889 22.9091 65.5445 22.9091Z" fill="#FF7E32" fill-opacity="0.6"/>
</g>
</g>
<g filter="url(#filter5_i_89_1489)">
<path fill-rule="evenodd" clip-rule="evenodd" d="M55.0985 15.7455C54.8819 15.861 54.6185 15.8011 54.4714 15.6153L54.422 15.5398C54.2547 15.2263 53.8376 15 53.3518 15C52.9321 15 52.5628 15.1689 52.362 15.4187L52.2949 15.5159C52.1558 15.7544 51.8496 15.835 51.6111 15.6958C51.3726 15.5566 51.292 15.2505 51.4312 15.012C51.7947 14.389 52.5378 14 53.3518 14C54.1915 14 54.9547 14.4141 55.3042 15.0689C55.4342 15.3125 55.3421 15.6154 55.0985 15.7455Z" fill="#723B06"/>
</g>
<g filter="url(#filter6_i_89_1489)">
<path fill-rule="evenodd" clip-rule="evenodd" d="M64.0985 15.7455C63.8819 15.861 63.6185 15.8011 63.4714 15.6153L63.422 15.5398C63.2547 15.2263 62.8376 15 62.3518 15C61.9321 15 61.5628 15.1689 61.362 15.4187L61.2949 15.5159C61.1558 15.7544 60.8496 15.835 60.6111 15.6958C60.3726 15.5566 60.292 15.2505 60.4312 15.012C60.7947 14.389 61.5378 14 62.3518 14C63.1915 14 63.9547 14.4141 64.3042 15.0689C64.4342 15.3125 64.3421 15.6154 64.0985 15.7455Z" fill="#723B06"/>
</g>
<g filter="url(#filter7_i_89_1489)">
<path fill-rule="evenodd" clip-rule="evenodd" d="M62.3518 19.0986C62.3518 21.5839 60.3371 23.5986 57.8518 23.5986C55.3665 23.5986 53.3518 21.5839 53.3518 19.0986V18.5986H62.3518V19.0986Z" fill="#723B06"/>
</g>
<mask id="mask1_89_1489" style="mask-type:alpha" maskUnits="userSpaceOnUse" x="53" y="18" width="10" height="6">
<path fill-rule="evenodd" clip-rule="evenodd" d="M62.3518 19.0986C62.3518 21.5839 60.3371 23.5986 57.8518 23.5986C55.3665 23.5986 53.3518 21.5839 53.3518 19.0986V18.5986H62.3518V19.0986Z" fill="white"/>
</mask>
<g mask="url(#mask1_89_1489)">
<path fill-rule="evenodd" clip-rule="evenodd" d="M58 24.0986C60.4853 24.0986 62.5 23.4271 62.5 22.5986C62.5 21.7702 60.4853 21.0986 58 21.0986C55.5147 21.0986 53.5 21.7702 53.5 22.5986C53.5 23.4271 55.5147 24.0986 58 24.0986Z" fill="#ED5959"/>
</g>
<path fill-rule="evenodd" clip-rule="evenodd" d="M65.3677 13.5727L64.4404 13.25L65.3677 12.9273L65.6904 12L66.0132 12.9273L66.9404 13.25L66.0132 13.5727L65.6904 14.5L65.3677 13.5727Z" fill="#FFF4B0"/>
<path fill-rule="evenodd" clip-rule="evenodd" d="M49.5612 17.2067L48.6339 16.8839L49.5612 16.5612L49.8839 15.6339L50.2067 16.5612L51.1339 16.8839L50.2067 17.2067L49.8839 18.1339L49.5612 17.2067Z" fill="#FFF4B0"/>
</g>
<rect x="45" y="5" width="26" height="26" rx="13" stroke="white" stroke-width="2"/>
<g filter="url(#filter8_d_89_1489)">
<path d="M86.2044 16.6101L85.6725 20.6069H88.5705L88.3305 22.411C87.2517 22.522 86.1626 22.6052 85.0455 22.6885L85.2109 24.0763C87.3946 23.8681 89.4718 23.6183 91.4426 23.3269C91.5103 23.66 91.5602 24.0208 91.6224 24.3955L92.961 23.9097C92.8364 22.9522 92.5988 21.8975 92.2621 20.7456L90.9121 21.1065C90.9974 21.4118 91.081 21.731 91.1645 22.0501C90.7091 22.1057 90.2659 22.175 89.8105 22.2306L90.0265 20.6069H92.8965L93.4284 16.6101H90.5584L90.6821 15.6803H93.1181L93.6205 11.9056H87.3345L86.8321 15.6803H89.2261L89.1024 16.6101H86.2044ZM91.7431 19.3856H90.1891L90.3959 17.8313H91.9499L91.7431 19.3856ZM88.7331 19.3856H87.1511L87.3579 17.8313H88.9399L88.7331 19.3856ZM83.025 16.3048H85.489L86.0745 11.9056H82.0425L81.8652 13.2378H84.5252L84.2888 15.0142H81.9508L80.9174 19.4134H83.8294C83.6373 20.8567 83.4557 21.8003 83.2986 22.2444C83.1415 22.6885 82.72 22.9106 82.034 22.9106C81.642 22.9106 81.2537 22.8828 80.8794 22.855L81.0539 24.1734C81.4422 24.2012 81.8165 24.2289 82.1945 24.2289C83.4936 24.1457 84.2789 23.7155 84.554 22.9106C84.8011 22.1057 85.0956 20.5236 85.4096 18.1644H82.5396L83.025 16.3048ZM91.933 14.4868H88.335L88.5196 13.099H92.1176L91.933 14.4868ZM96.6284 16.9709C97.2133 17.415 97.7404 17.873 98.1853 18.3171C97.3237 18.8999 96.2511 19.3856 94.985 19.7464L95.5188 20.9954C98.8932 19.9407 101.043 18.095 101.982 15.4583L102.133 14.3203H98.8711C99.0853 13.9733 99.2873 13.6125 99.4772 13.2378H102.795L102.972 11.9056H96.2105L96.0332 13.2378H98.0772C97.3436 14.5423 96.3437 15.6387 95.0793 16.513L95.671 17.7481C95.9982 17.4983 96.3115 17.2485 96.6284 16.9709ZM97.9946 15.5415H100.613C100.268 16.2354 99.8193 16.8738 99.2378 17.4566C98.7685 16.9848 98.2312 16.4991 97.5958 16.0134C97.7281 15.8607 97.8604 15.708 97.9946 15.5415ZM103.595 12.4884L102.838 18.1783H104.21L104.967 12.4884H103.595ZM105.189 20.6069C106.155 20.6069 106.705 20.1489 106.824 19.2607L107.85 11.5448H106.464L105.486 18.8999C105.445 19.2052 105.241 19.3718 104.877 19.3718C104.387 19.3718 103.873 19.344 103.334 19.2885L103.481 20.6069H105.189ZM96.2439 20.9122C95.6508 21.8975 94.9921 22.744 94.254 23.4518L95.3416 24.3261C96.0909 23.5351 96.7625 22.5914 97.3825 21.5089L96.2439 20.9122ZM99.6275 21.051L98.2185 21.3285C98.3914 22.1334 98.5057 23.0632 98.5613 24.1179L100.076 23.7848C99.9688 22.7995 99.8246 21.8836 99.6275 21.051ZM102.573 20.8012L101.164 21.0787C101.455 21.9391 101.67 22.9522 101.799 24.0902L103.299 23.7571C103.118 22.7024 102.871 21.7171 102.573 20.8012ZM105.53 20.7734L104.258 21.495C104.836 22.522 105.288 23.4379 105.597 24.2706L106.928 23.424C106.621 22.6746 106.152 21.7865 105.53 20.7734ZM115.767 17.9146H117.811L117.626 19.3024H115.582L115.767 17.9146ZM115.403 20.6485H117.447L117.236 22.2306H115.192L115.403 20.6485ZM115.008 23.6183H120.86L121.044 22.2306H118.678L118.889 20.6485H120.821L121 19.3024H119.068L119.253 17.9146H121.185L121.366 16.5546H119.434L119.63 15.0836H121.842L122.026 13.6958H119.94C119.865 13.0019 119.726 12.2525 119.541 11.4337L118.077 11.8084C118.276 12.419 118.429 13.0574 118.554 13.6958H116.594C116.943 13.0713 117.252 12.4329 117.537 11.7668L116.146 11.4892C115.467 13.2239 114.499 14.8199 113.215 16.2632L113.363 17.0403C112.975 17.2207 112.589 17.3872 112.175 17.5538L112.478 15.2778H113.724L113.91 13.8762H112.664L112.984 11.4754H111.514L111.194 13.8762H109.556L109.37 15.2778H111.008L110.635 18.0811C109.979 18.2754 109.328 18.4281 108.668 18.553L108.836 20.024C109.373 19.8852 109.913 19.7187 110.439 19.5522L110.071 22.3138C110.027 22.6469 109.823 22.8134 109.487 22.8134C109.151 22.8134 108.792 22.7718 108.422 22.7163L108.557 24.1179H109.817C110.797 24.1179 111.366 23.6322 111.492 22.6885L111.981 19.0109C112.379 18.8583 112.779 18.6917 113.18 18.5252L113.372 17.0819L113.503 17.7758C113.829 17.4289 114.157 17.0681 114.485 16.7072L113.483 24.2428H114.925L115.008 23.6183ZM118.188 15.0836L117.992 16.5546H115.948L116.144 15.0836H118.188ZM123.919 12.308L123.743 13.6264H126.781L126.669 14.4729H128.097C127.952 14.7227 127.806 14.9725 127.645 15.2362H123.767L123.592 16.5546H126.672C125.613 17.7758 124.263 18.8722 122.622 19.8436L123.373 21.0371C123.953 20.6763 124.523 20.2877 125.067 19.8852L124.474 24.34H125.888L126.662 18.5252C127.303 17.9146 127.867 17.2485 128.38 16.5546H135.576L135.751 15.2362H129.213C129.325 15.028 129.438 14.806 129.552 14.584L128.173 14.3203L128.265 13.6264H131.513L131.399 14.4868H132.883L132.997 13.6264H136.035L136.211 12.308H133.173L133.284 11.4754H131.8L131.689 12.308H128.441L128.552 11.4754H127.068L126.957 12.308H123.919ZM130.911 19.4134L130.834 19.9962H127.18L126.999 21.3563H130.653L130.485 22.6191C130.452 22.8689 130.293 23.0077 130.041 23.0077C129.649 23.0077 129.137 22.9661 128.486 22.9106L128.719 24.3122H130.441C131.295 24.3122 131.787 23.882 131.901 23.0216L132.123 21.3563H134.993L135.174 19.9962H132.304L132.333 19.7742C133.163 19.2191 133.886 18.7334 134.517 18.3032L134.654 17.2762H128.508L128.334 18.5807H132.366C131.732 18.9277 131.247 19.2052 130.911 19.4134Z" fill="white"/>
<path d="M86.2044 16.6101L85.6725 20.6069H88.5705L88.3305 22.411C87.2517 22.522 86.1626 22.6052 85.0455 22.6885L85.2109 24.0763C87.3946 23.8681 89.4718 23.6183 91.4426 23.3269C91.5103 23.66 91.5602 24.0208 91.6224 24.3955L92.961 23.9097C92.8364 22.9522 92.5988 21.8975 92.2621 20.7456L90.9121 21.1065C90.9974 21.4118 91.081 21.731 91.1645 22.0501C90.7091 22.1057 90.2659 22.175 89.8105 22.2306L90.0265 20.6069H92.8965L93.4284 16.6101H90.5584L90.6821 15.6803H93.1181L93.6205 11.9056H87.3345L86.8321 15.6803H89.2261L89.1024 16.6101H86.2044ZM91.7431 19.3856H90.1891L90.3959 17.8313H91.9499L91.7431 19.3856ZM88.7331 19.3856H87.1511L87.3579 17.8313H88.9399L88.7331 19.3856ZM83.025 16.3048H85.489L86.0745 11.9056H82.0425L81.8652 13.2378H84.5252L84.2888 15.0142H81.9508L80.9174 19.4134H83.8294C83.6373 20.8567 83.4557 21.8003 83.2986 22.2444C83.1415 22.6885 82.72 22.9106 82.034 22.9106C81.642 22.9106 81.2537 22.8828 80.8794 22.855L81.0539 24.1734C81.4422 24.2012 81.8165 24.2289 82.1945 24.2289C83.4936 24.1457 84.2789 23.7155 84.554 22.9106C84.8011 22.1057 85.0956 20.5236 85.4096 18.1644H82.5396L83.025 16.3048ZM91.933 14.4868H88.335L88.5196 13.099H92.1176L91.933 14.4868ZM96.6284 16.9709C97.2133 17.415 97.7404 17.873 98.1853 18.3171C97.3237 18.8999 96.2511 19.3856 94.985 19.7464L95.5188 20.9954C98.8932 19.9407 101.043 18.095 101.982 15.4583L102.133 14.3203H98.8711C99.0853 13.9733 99.2873 13.6125 99.4772 13.2378H102.795L102.972 11.9056H96.2105L96.0332 13.2378H98.0772C97.3436 14.5423 96.3437 15.6387 95.0793 16.513L95.671 17.7481C95.9982 17.4983 96.3115 17.2485 96.6284 16.9709ZM97.9946 15.5415H100.613C100.268 16.2354 99.8193 16.8738 99.2378 17.4566C98.7685 16.9848 98.2312 16.4991 97.5958 16.0134C97.7281 15.8607 97.8604 15.708 97.9946 15.5415ZM103.595 12.4884L102.838 18.1783H104.21L104.967 12.4884H103.595ZM105.189 20.6069C106.155 20.6069 106.705 20.1489 106.824 19.2607L107.85 11.5448H106.464L105.486 18.8999C105.445 19.2052 105.241 19.3718 104.877 19.3718C104.387 19.3718 103.873 19.344 103.334 19.2885L103.481 20.6069H105.189ZM96.2439 20.9122C95.6508 21.8975 94.9921 22.744 94.254 23.4518L95.3416 24.3261C96.0909 23.5351 96.7625 22.5914 97.3825 21.5089L96.2439 20.9122ZM99.6275 21.051L98.2185 21.3285C98.3914 22.1334 98.5057 23.0632 98.5613 24.1179L100.076 23.7848C99.9688 22.7995 99.8246 21.8836 99.6275 21.051ZM102.573 20.8012L101.164 21.0787C101.455 21.9391 101.67 22.9522 101.799 24.0902L103.299 23.7571C103.118 22.7024 102.871 21.7171 102.573 20.8012ZM105.53 20.7734L104.258 21.495C104.836 22.522 105.288 23.4379 105.597 24.2706L106.928 23.424C106.621 22.6746 106.152 21.7865 105.53 20.7734ZM115.767 17.9146H117.811L117.626 19.3024H115.582L115.767 17.9146ZM115.403 20.6485H117.447L117.236 22.2306H115.192L115.403 20.6485ZM115.008 23.6183H120.86L121.044 22.2306H118.678L118.889 20.6485H120.821L121 19.3024H119.068L119.253 17.9146H121.185L121.366 16.5546H119.434L119.63 15.0836H121.842L122.026 13.6958H119.94C119.865 13.0019 119.726 12.2525 119.541 11.4337L118.077 11.8084C118.276 12.419 118.429 13.0574 118.554 13.6958H116.594C116.943 13.0713 117.252 12.4329 117.537 11.7668L116.146 11.4892C115.467 13.2239 114.499 14.8199 113.215 16.2632L113.363 17.0403C112.975 17.2207 112.589 17.3872 112.175 17.5538L112.478 15.2778H113.724L113.91 13.8762H112.664L112.984 11.4754H111.514L111.194 13.8762H109.556L109.37 15.2778H111.008L110.635 18.0811C109.979 18.2754 109.328 18.4281 108.668 18.553L108.836 20.024C109.373 19.8852 109.913 19.7187 110.439 19.5522L110.071 22.3138C110.027 22.6469 109.823 22.8134 109.487 22.8134C109.151 22.8134 108.792 22.7718 108.422 22.7163L108.557 24.1179H109.817C110.797 24.1179 111.366 23.6322 111.492 22.6885L111.981 19.0109C112.379 18.8583 112.779 18.6917 113.18 18.5252L113.372 17.0819L113.503 17.7758C113.829 17.4289 114.157 17.0681 114.485 16.7072L113.483 24.2428H114.925L115.008 23.6183ZM118.188 15.0836L117.992 16.5546H115.948L116.144 15.0836H118.188ZM123.919 12.308L123.743 13.6264H126.781L126.669 14.4729H128.097C127.952 14.7227 127.806 14.9725 127.645 15.2362H123.767L123.592 16.5546H126.672C125.613 17.7758 124.263 18.8722 122.622 19.8436L123.373 21.0371C123.953 20.6763 124.523 20.2877 125.067 19.8852L124.474 24.34H125.888L126.662 18.5252C127.303 17.9146 127.867 17.2485 128.38 16.5546H135.576L135.751 15.2362H129.213C129.325 15.028 129.438 14.806 129.552 14.584L128.173 14.3203L128.265 13.6264H131.513L131.399 14.4868H132.883L132.997 13.6264H136.035L136.211 12.308H133.173L133.284 11.4754H131.8L131.689 12.308H128.441L128.552 11.4754H127.068L126.957 12.308H123.919ZM130.911 19.4134L130.834 19.9962H127.18L126.999 21.3563H130.653L130.485 22.6191C130.452 22.8689 130.293 23.0077 130.041 23.0077C129.649 23.0077 129.137 22.9661 128.486 22.9106L128.719 24.3122H130.441C131.295 24.3122 131.787 23.882 131.901 23.0216L132.123 21.3563H134.993L135.174 19.9962H132.304L132.333 19.7742C133.163 19.2191 133.886 18.7334 134.517 18.3032L134.654 17.2762H128.508L128.334 18.5807H132.366C131.732 18.9277 131.247 19.2052 130.911 19.4134Z" fill="url(#paint2_linear_89_1489)" fill-opacity="0.5"/>
</g>
<defs>
<filter id="filter0_i_89_1489" x="47" y="7" width="22" height="26" filterUnits="userSpaceOnUse" color-interpolation-filters="sRGB">
<feFlood flood-opacity="0" result="BackgroundImageFix"/>
<feBlend mode="normal" in="SourceGraphic" in2="BackgroundImageFix" result="shape"/>
<feColorMatrix in="SourceAlpha" type="matrix" values="0 0 0 0 0 0 0 0 0 0 0 0 0 0 0 0 0 0 127 0" result="hardAlpha"/>
<feOffset dy="4"/>
<feGaussianBlur stdDeviation="2"/>
<feComposite in2="hardAlpha" operator="arithmetic" k2="-1" k3="1"/>
<feColorMatrix type="matrix" values="0 0 0 0 1 0 0 0 0 0.640548 0 0 0 0 0.150057 0 0 0 0.5 0"/>
<feBlend mode="normal" in2="shape" result="effect1_innerShadow_89_1489"/>
</filter>
<filter id="filter1_f_89_1489" x="41.1665" y="-3.37889" width="31.8054" height="31.8305" filterUnits="userSpaceOnUse" color-interpolation-filters="sRGB">
<feFlood flood-opacity="0" result="BackgroundImageFix"/>
<feBlend mode="normal" in="SourceGraphic" in2="BackgroundImageFix" result="shape"/>
<feGaussianBlur stdDeviation="5.18945" result="effect1_foregroundBlur_89_1489"/>
</filter>
<filter id="filter2_f_89_1489" x="51.5519" y="1.5519" width="16.5325" height="16.5325" filterUnits="userSpaceOnUse" color-interpolation-filters="sRGB">
<feFlood flood-opacity="0" result="BackgroundImageFix"/>
<feBlend mode="normal" in="SourceGraphic" in2="BackgroundImageFix" result="shape"/>
<feGaussianBlur stdDeviation="2.22405" result="effect1_foregroundBlur_89_1489"/>
</filter>
<filter id="filter3_f_89_1489" x="45.0346" y="15.0346" width="10.8399" height="10.8399" filterUnits="userSpaceOnUse" color-interpolation-filters="sRGB">
<feFlood flood-opacity="0" result="BackgroundImageFix"/>
<feBlend mode="normal" in="SourceGraphic" in2="BackgroundImageFix" result="shape"/>
<feGaussianBlur stdDeviation="1.4827" result="effect1_foregroundBlur_89_1489"/>
</filter>
<filter id="filter4_f_89_1489" x="60.1246" y="15.0346" width="10.8399" height="10.8399" filterUnits="userSpaceOnUse" color-interpolation-filters="sRGB">
<feFlood flood-opacity="0" result="BackgroundImageFix"/>
<feBlend mode="normal" in="SourceGraphic" in2="BackgroundImageFix" result="shape"/>
<feGaussianBlur stdDeviation="1.4827" result="effect1_foregroundBlur_89_1489"/>
</filter>
<filter id="filter5_i_89_1489" x="51.363" y="14" width="4.00012" height="2.80444" filterUnits="userSpaceOnUse" color-interpolation-filters="sRGB">
<feFlood flood-opacity="0" result="BackgroundImageFix"/>
<feBlend mode="normal" in="SourceGraphic" in2="BackgroundImageFix" result="shape"/>
<feColorMatrix in="SourceAlpha" type="matrix" values="0 0 0 0 0 0 0 0 0 0 0 0 0 0 0 0 0 0 127 0" result="hardAlpha"/>
<feOffset dy="1"/>
<feGaussianBlur stdDeviation="0.5"/>
<feComposite in2="hardAlpha" operator="arithmetic" k2="-1" k3="1"/>
<feColorMatrix type="matrix" values="0 0 0 0 0.253 0 0 0 0 0.131255 0 0 0 0 0.0139372 0 0 0 0.320449 0"/>
<feBlend mode="normal" in2="shape" result="effect1_innerShadow_89_1489"/>
</filter>
<filter id="filter6_i_89_1489" x="60.363" y="14" width="4.00012" height="2.80444" filterUnits="userSpaceOnUse" color-interpolation-filters="sRGB">
<feFlood flood-opacity="0" result="BackgroundImageFix"/>
<feBlend mode="normal" in="SourceGraphic" in2="BackgroundImageFix" result="shape"/>
<feColorMatrix in="SourceAlpha" type="matrix" values="0 0 0 0 0 0 0 0 0 0 0 0 0 0 0 0 0 0 127 0" result="hardAlpha"/>
<feOffset dy="1"/>
<feGaussianBlur stdDeviation="0.5"/>
<feComposite in2="hardAlpha" operator="arithmetic" k2="-1" k3="1"/>
<feColorMatrix type="matrix" values="0 0 0 0 0.253 0 0 0 0 0.131255 0 0 0 0 0.0139372 0 0 0 0.320449 0"/>
<feBlend mode="normal" in2="shape" result="effect1_innerShadow_89_1489"/>
</filter>
<filter id="filter7_i_89_1489" x="53.3518" y="18.5986" width="9" height="6" filterUnits="userSpaceOnUse" color-interpolation-filters="sRGB">
<feFlood flood-opacity="0" result="BackgroundImageFix"/>
<feBlend mode="normal" in="SourceGraphic" in2="BackgroundImageFix" result="shape"/>
<feColorMatrix in="SourceAlpha" type="matrix" values="0 0 0 0 0 0 0 0 0 0 0 0 0 0 0 0 0 0 127 0" result="hardAlpha"/>
<feOffset dy="1"/>
<feGaussianBlur stdDeviation="0.5"/>
<feComposite in2="hardAlpha" operator="arithmetic" k2="-1" k3="1"/>
<feColorMatrix type="matrix" values="0 0 0 0 0.253 0 0 0 0 0.131255 0 0 0 0 0.0139372 0 0 0 0.168023 0"/>
<feBlend mode="normal" in2="shape" result="effect1_innerShadow_89_1489"/>
</filter>
<filter id="filter8_d_89_1489" x="76.2544" y="9.43372" width="64.0729" height="20.9618" filterUnits="userSpaceOnUse" color-interpolation-filters="sRGB">
<feFlood flood-opacity="0" result="BackgroundImageFix"/>
<feColorMatrix in="SourceAlpha" type="matrix" values="0 0 0 0 0 0 0 0 0 0 0 0 0 0 0 0 0 0 127 0" result="hardAlpha"/>
<feOffset dy="2"/>
<feGaussianBlur stdDeviation="2"/>
<feComposite in2="hardAlpha" operator="out"/>
<feColorMatrix type="matrix" values="0 0 0 0 0.85098 0 0 0 0 0.658824 0 0 0 0 0.137255 0 0 0 0.25 0"/>
<feBlend mode="normal" in2="BackgroundImageFix" result="effect1_dropShadow_89_1489"/>
<feBlend mode="normal" in="SourceGraphic" in2="effect1_dropShadow_89_1489" result="shape"/>
</filter>
<linearGradient id="paint0_linear_89_1489" x1="58" y1="34" x2="157.5" y2="2" gradientUnits="userSpaceOnUse">
<stop stop-color="#FFD036"/>
<stop offset="1" stop-color="#FFDF5E"/>
</linearGradient>
<linearGradient id="paint1_linear_89_1489" x1="47" y1="7" x2="47" y2="29" gradientUnits="userSpaceOnUse">
<stop stop-color="#FFE88D"/>
<stop offset="1" stop-color="#FFA533"/>
</linearGradient>
<linearGradient id="paint2_linear_89_1489" x1="108" y1="18" x2="108.302" y2="27.785" gradientUnits="userSpaceOnUse">
<stop stop-color="#FFE48D" stop-opacity="0"/>
<stop offset="1" stop-color="#FFE48D"/>
</linearGradient>
<clipPath id="clip0_89_1489">
<rect x="46" y="6" width="24" height="24" rx="12" fill="white"/>
</clipPath>
</defs>
</svg>
