<svg width="20" height="20" viewBox="0 0 20 20" fill="none" xmlns="http://www.w3.org/2000/svg">
<g clip-path="url(#clip0_554_1923)">
<g clip-path="url(#clip1_554_1923)">
<path d="M4.73214 9.84375C4.73214 9.23877 5.25084 8.75 5.89286 8.75C6.53488 8.75 7.05357 9.23877 7.05357 9.84375C7.05357 10.4487 6.53488 10.9375 5.89286 10.9375C5.25084 10.9375 4.73214 10.4487 4.73214 9.84375ZM12.8571 12.0312C13.4992 12.0312 14.0179 12.52 14.0179 13.125C14.0179 13.73 13.4992 14.2188 12.8571 14.2188C12.2151 14.2188 11.6964 13.73 11.6964 13.125C11.6964 12.52 12.2151 12.0312 12.8571 12.0312ZM8.21429 9.84375C8.21429 9.38916 8.6024 9.02344 9.08482 9.02344H13.1473C13.6297 9.02344 14.0179 9.38916 14.0179 9.84375C14.0179 10.2983 13.6297 10.6641 13.1473 10.6641H9.08482C8.6024 10.6641 8.21429 10.2983 8.21429 9.84375ZM9.66518 12.3047C10.1476 12.3047 10.5357 12.6704 10.5357 13.125C10.5357 13.5796 10.1476 13.9453 9.66518 13.9453H5.60268C5.12026 13.9453 4.73214 13.5796 4.73214 13.125C4.73214 12.6704 5.12026 12.3047 5.60268 12.3047H9.66518ZM6.76339 2.1875H11.9866V0.820312C11.9866 0.367432 12.3747 0 12.8571 0C13.3396 0 13.7277 0.367432 13.7277 0.820312V2.1875H15.1786C16.459 2.1875 17.5 3.16675 17.5 4.375V15.3125C17.5 16.519 16.459 17.5 15.1786 17.5H3.57143C2.2892 17.5 1.25 16.519 1.25 15.3125V4.375C1.25 3.16675 2.2892 2.1875 3.57143 2.1875H5.02232V0.820312C5.02232 0.367432 5.41044 0 5.89286 0C6.37528 0 6.76339 0.367432 6.76339 0.820312V2.1875ZM2.99107 15.3125C2.99107 15.6133 3.25078 15.8594 3.57143 15.8594H15.1786C15.4978 15.8594 15.7589 15.6133 15.7589 15.3125V6.5625H2.99107V15.3125Z" fill="#A9B0C0"/>
</g>
<g clip-path="url(#clip2_554_1923)">
<rect x="10" y="11.25" width="10" height="8.75" fill="white"/>
<path d="M10 12.5C10 11.8105 10.5605 11.25 11.25 11.25H18.75C19.4395 11.25 20 11.8105 20 12.5V18.75C20 19.4395 19.4395 20 18.75 20H11.25C10.5605 20 10 19.4395 10 18.75V12.5ZM16.3242 14.5801C16.2363 14.4512 16.0918 14.375 15.9375 14.375C15.7832 14.375 15.6367 14.4512 15.5508 14.5801L13.8516 17.0723L13.334 16.4258C13.2441 16.3145 13.1094 16.25 12.9688 16.25C12.8281 16.25 12.6914 16.3145 12.6035 16.4258L11.3535 17.9883C11.2402 18.1289 11.2188 18.3223 11.2969 18.4844C11.375 18.6465 11.5391 18.75 11.7188 18.75H13.5938H14.2188H18.2812C18.4551 18.75 18.6152 18.6543 18.6953 18.5C18.7754 18.3457 18.7656 18.1602 18.668 18.0176L16.3242 14.5801ZM12.1875 14.375C12.7051 14.375 13.125 13.9551 13.125 13.4375C13.125 12.9199 12.7051 12.5 12.1875 12.5C11.6699 12.5 11.25 12.9199 11.25 13.4375C11.25 13.9551 11.6699 14.375 12.1875 14.375Z" fill="#A9B0C0"/>
</g>
<rect x="9.375" y="10.625" width="11.25" height="10" rx="1.875" stroke="white" stroke-width="1.25"/>
</g>
<defs>
<clipPath id="clip0_554_1923">
<rect width="20" height="20" fill="white"/>
</clipPath>
<clipPath id="clip1_554_1923">
<rect width="17.5" height="20" fill="white" transform="translate(1.25)"/>
</clipPath>
<clipPath id="clip2_554_1923">
<rect x="10" y="11.25" width="10" height="8.75" rx="1.25" fill="white"/>
</clipPath>
</defs>
</svg>
