<svg width="20" height="20" viewBox="0 0 20 20" fill="none" xmlns="http://www.w3.org/2000/svg">
<g clip-path="url(#clip0_554_1982)">
<g clip-path="url(#clip1_554_1982)">
<path d="M4.73214 9.84375C4.73214 9.23877 5.25084 8.75 5.89286 8.75C6.53488 8.75 7.05357 9.23877 7.05357 9.84375C7.05357 10.4487 6.53488 10.9375 5.89286 10.9375C5.25084 10.9375 4.73214 10.4487 4.73214 9.84375ZM12.8571 12.0312C13.4992 12.0312 14.0179 12.52 14.0179 13.125C14.0179 13.73 13.4992 14.2188 12.8571 14.2188C12.2151 14.2188 11.6964 13.73 11.6964 13.125C11.6964 12.52 12.2151 12.0312 12.8571 12.0312ZM8.21429 9.84375C8.21429 9.38916 8.6024 9.02344 9.08482 9.02344H13.1473C13.6297 9.02344 14.0179 9.38916 14.0179 9.84375C14.0179 10.2983 13.6297 10.6641 13.1473 10.6641H9.08482C8.6024 10.6641 8.21429 10.2983 8.21429 9.84375ZM9.66518 12.3047C10.1476 12.3047 10.5357 12.6704 10.5357 13.125C10.5357 13.5796 10.1476 13.9453 9.66518 13.9453H5.60268C5.12026 13.9453 4.73214 13.5796 4.73214 13.125C4.73214 12.6704 5.12026 12.3047 5.60268 12.3047H9.66518ZM6.76339 2.1875H11.9866V0.820312C11.9866 0.367432 12.3747 0 12.8571 0C13.3396 0 13.7277 0.367432 13.7277 0.820312V2.1875H15.1786C16.459 2.1875 17.5 3.16675 17.5 4.375V15.3125C17.5 16.519 16.459 17.5 15.1786 17.5H3.57143C2.2892 17.5 1.25 16.519 1.25 15.3125V4.375C1.25 3.16675 2.2892 2.1875 3.57143 2.1875H5.02232V0.820312C5.02232 0.367432 5.41044 0 5.89286 0C6.37528 0 6.76339 0.367432 6.76339 0.820312V2.1875ZM2.99107 15.3125C2.99107 15.6133 3.25078 15.8594 3.57143 15.8594H15.1786C15.4978 15.8594 15.7589 15.6133 15.7589 15.3125V6.5625H2.99107V15.3125Z" fill="#A9B0C0"/>
</g>
<g clip-path="url(#clip2_554_1982)">
<rect x="10" y="11.25" width="10" height="8.75" fill="white"/>
<g clip-path="url(#clip3_554_1982)">
<path d="M10 14.9376C10 15.2488 10.2514 15.5001 10.5625 15.5001C10.8736 15.5001 11.125 15.2488 11.125 14.9376C11.125 14.006 11.8809 13.2501 12.8125 13.2501H15.625V13.8126C15.625 14.0394 15.7621 14.2451 15.973 14.3329C16.184 14.4208 16.4248 14.3716 16.5865 14.2117L17.7115 13.0867C17.9313 12.8669 17.9313 12.5101 17.7115 12.2904L16.5865 11.1654C16.4248 11.0036 16.184 10.9562 15.973 11.0441C15.7621 11.132 15.625 11.3359 15.625 11.5626V12.1251H12.8125C11.2586 12.1251 10 13.3837 10 14.9376ZM19 16.0626C19 15.7515 18.7486 15.5001 18.4375 15.5001C18.1264 15.5001 17.875 15.7515 17.875 16.0626C17.875 16.9943 17.1191 17.7501 16.1875 17.7501H13.375V17.1876C13.375 16.9609 13.2379 16.7552 13.027 16.6673C12.816 16.5794 12.5752 16.6286 12.4135 16.7886L11.2885 17.9136C11.0688 18.1333 11.0688 18.4902 11.2885 18.7099L12.4135 19.8349C12.5752 19.9966 12.816 20.0441 13.027 19.9562C13.2379 19.8683 13.375 19.6644 13.375 19.4359V18.8751H16.1875C17.7414 18.8751 19 17.6165 19 16.0626Z" fill="#A9B0C0"/>
</g>
</g>
<rect x="9.375" y="10.625" width="11.25" height="10" rx="3.875" stroke="white" stroke-width="1.25"/>
</g>
<defs>
<clipPath id="clip0_554_1982">
<rect width="20" height="20" fill="white"/>
</clipPath>
<clipPath id="clip1_554_1982">
<rect width="17.5" height="20" fill="white" transform="translate(1.25)"/>
</clipPath>
<clipPath id="clip2_554_1982">
<rect x="10" y="11.25" width="10" height="8.75" rx="3.25" fill="white"/>
</clipPath>
<clipPath id="clip3_554_1982">
<rect width="9" height="9" fill="white" transform="translate(10 11)"/>
</clipPath>
</defs>
</svg>
