<svg width="46" height="27" viewBox="0 0 46 27" fill="none" xmlns="http://www.w3.org/2000/svg">
<rect x="0.5" y="1" width="45" height="25" rx="12.5" fill="#F7F8F9"/>
<g clip-path="url(#clip0_1338_4985)">
<path d="M20.375 13.5C20.375 12.0262 21.5261 10.875 23 10.875C24.4492 10.875 25.625 12.0262 25.625 13.5C25.625 14.9492 24.4492 16.125 23 16.125C21.5261 16.125 20.375 14.9492 20.375 13.5ZM23 12.1875C22.2753 12.1875 21.6875 12.7754 21.6875 13.5C21.6875 14.2246 22.2753 14.8125 23 14.8125C23.7246 14.8125 24.3125 14.2246 24.3125 13.5C24.3125 12.7754 23.7246 12.1875 23 12.1875ZM24.0144 6.50001C24.6214 6.50001 25.1492 6.91535 25.2914 7.50461L25.5046 8.39246C25.7371 8.50594 25.9585 8.63473 26.1691 8.77719L27.0468 8.51879C27.6292 8.34734 28.2527 8.59645 28.5562 9.12145L29.5707 10.8777C29.8714 11.4027 29.7757 12.0672 29.3382 12.4855L28.6738 13.0926C28.682 13.243 28.6875 13.3715 28.6875 13.5C28.6875 13.6285 28.682 13.757 28.6738 13.8828L29.3382 14.5145C29.7757 14.9328 29.8714 15.5973 29.5707 16.1223L28.5562 17.8777C28.2527 18.4027 27.6292 18.6516 27.0468 18.482L26.1691 18.2223C25.9585 18.3645 25.7371 18.493 25.5046 18.6078L25.2914 19.4965C25.1492 20.0844 24.6214 20.5 24.0144 20.5H21.9855C21.3785 20.5 20.8507 20.0844 20.7085 19.4965L20.4953 18.6078C20.2628 18.493 20.0414 18.3645 19.8308 18.2223L18.9285 18.482C18.3715 18.6516 17.7483 18.4027 17.4451 17.8777L16.4306 16.1223C16.1274 15.5973 16.2233 14.9328 16.6625 14.5145L17.3253 13.8828C17.3168 13.757 17.3125 13.6285 17.3125 13.4754C17.3125 13.3715 17.3168 13.243 17.3253 13.0926L16.6625 12.4855C16.2233 12.0672 16.1274 11.4027 16.4306 10.8777L17.4451 9.12145C17.7483 8.59645 18.3715 8.34734 18.9285 8.51879L19.8308 8.77719C20.0414 8.63473 20.2628 8.50594 20.4953 8.39246L20.7085 7.50461C20.8507 6.91508 21.3785 6.5 21.9855 6.5L24.0144 6.50001ZM21.6191 9.33281L21.3128 9.46133C20.9656 9.60625 20.6429 9.79492 20.3503 10.0191L20.0851 10.2215L18.5817 9.77852L17.567 11.534L18.7018 12.6141L18.66 12.9422C18.637 13.1254 18.625 13.3113 18.625 13.5C18.625 13.6887 18.637 13.8746 18.66 14.0578L18.7018 14.3859L17.5673 15.466L18.5817 17.2215L20.0851 16.7785L20.3503 16.9809C20.6429 17.2051 20.9656 17.3938 21.3128 17.5387L21.6191 17.6672L21.9855 19.1875H24.0144L24.3808 17.6672L24.6871 17.5387C25.0343 17.3938 25.357 17.2051 25.6496 16.9809L25.9148 16.7785L27.4187 17.2215L28.4332 15.466L27.2984 14.3859L27.3394 14.0578C27.364 13.8746 27.375 13.6887 27.375 13.5C27.375 13.3113 27.364 13.1254 27.3394 12.9422L27.2984 12.6141L28.4332 11.534L27.4187 9.77852L25.9148 10.2215L25.6496 10.0191C25.357 9.79492 25.0343 9.60625 24.6871 9.46133L24.3808 9.33281L24.0144 7.8125H21.9855L21.6191 9.33281Z" fill="#A9B0C0"/>
</g>
<rect x="0.5" y="1" width="45" height="25" rx="12.5" stroke="#DCDDE1"/>
<defs>
<clipPath id="clip0_1338_4985">
<rect width="14" height="14" fill="white" transform="translate(16 6.5)"/>
</clipPath>
</defs>
</svg>
