<svg width="10" height="10" viewBox="0 0 10 10" fill="none" xmlns="http://www.w3.org/2000/svg">
<path fill-rule="evenodd" clip-rule="evenodd" d="M1.46447 1.46446C2.3688 0.560143 3.61942 0 5 0C6.38058 0 7.6312 0.560143 8.53553 1.46446C9.43985 2.3688 10 3.61942 10 5C10 6.38058 9.43985 7.6312 8.53553 8.53553C7.6312 9.43985 6.38058 10 5 10C3.61942 10 2.3688 9.43985 1.46447 8.53553C0.560146 7.6312 0 6.38058 0 5C0 3.61942 0.560149 2.3688 1.46447 1.46446ZM7.59414 3.95778C7.77165 3.78026 7.77165 3.49246 7.59414 3.31495C7.41663 3.13744 7.12883 3.13744 6.95132 3.31495L4.54545 5.72081L3.50323 4.67859C3.32572 4.50108 3.03792 4.50108 2.86041 4.67859C2.6829 4.8561 2.6829 5.1439 2.86041 5.32141L4.22404 6.68505C4.40155 6.86256 4.68936 6.86256 4.86687 6.68505L7.59414 3.95778Z" fill="url(#paint0_linear_1338_4934)"/>
<defs>
<linearGradient id="paint0_linear_1338_4934" x1="1.88192" y1="8.33333" x2="11.6139" y2="3.40709" gradientUnits="userSpaceOnUse">
<stop stop-color="#FFC400"/>
<stop offset="1" stop-color="#FEE278"/>
</linearGradient>
</defs>
</svg>
